<?xml version="1.0" encoding="utf-8"?>
<svg xmlns="http://www.w3.org/2000/svg" xmlns:xlink="http://www.w3.org/1999/xlink" width="900" height="500" viewBox="0 0 3600 2000">
<defs>
  <clipPath id="clip560">
    <rect x="0" y="0" width="3600" height="2000"/>
  </clipPath>
</defs>
<path clip-path="url(#clip560)" d="M0 2000 L3600 2000 L3600 0 L0 0  Z" fill="#ffffff" fill-rule="evenodd" fill-opacity="1"/>
<defs>
  <clipPath id="clip561">
    <rect x="253" y="113" width="3300" height="1720"/>
  </clipPath>
</defs>
<path clip-path="url(#clip560)" d="M253.622 1832.86 L3552.76 1832.86 L3552.76 113.392 L253.622 113.392  Z" fill="#ffffff" fill-rule="evenodd" fill-opacity="1"/>
<polyline clip-path="url(#clip561)" style="stroke:#000000; stroke-linecap:round; stroke-linejoin:round; stroke-width:2; stroke-opacity:0.1; fill:none" points="454.318,1832.86 454.318,113.392 "/>
<polyline clip-path="url(#clip561)" style="stroke:#000000; stroke-linecap:round; stroke-linejoin:round; stroke-width:2; stroke-opacity:0.1; fill:none" points="990.937,1832.86 990.937,113.392 "/>
<polyline clip-path="url(#clip561)" style="stroke:#000000; stroke-linecap:round; stroke-linejoin:round; stroke-width:2; stroke-opacity:0.1; fill:none" points="1527.56,1832.86 1527.56,113.392 "/>
<polyline clip-path="url(#clip561)" style="stroke:#000000; stroke-linecap:round; stroke-linejoin:round; stroke-width:2; stroke-opacity:0.1; fill:none" points="2064.17,1832.86 2064.17,113.392 "/>
<polyline clip-path="url(#clip561)" style="stroke:#000000; stroke-linecap:round; stroke-linejoin:round; stroke-width:2; stroke-opacity:0.1; fill:none" points="2600.79,1832.86 2600.79,113.392 "/>
<polyline clip-path="url(#clip561)" style="stroke:#000000; stroke-linecap:round; stroke-linejoin:round; stroke-width:2; stroke-opacity:0.1; fill:none" points="3137.41,1832.86 3137.41,113.392 "/>
<polyline clip-path="url(#clip561)" style="stroke:#000000; stroke-linecap:round; stroke-linejoin:round; stroke-width:2; stroke-opacity:0.1; fill:none" points="253.622,1626.22 3552.76,1626.22 "/>
<polyline clip-path="url(#clip561)" style="stroke:#000000; stroke-linecap:round; stroke-linejoin:round; stroke-width:2; stroke-opacity:0.1; fill:none" points="253.622,1136.06 3552.76,1136.06 "/>
<polyline clip-path="url(#clip561)" style="stroke:#000000; stroke-linecap:round; stroke-linejoin:round; stroke-width:2; stroke-opacity:0.1; fill:none" points="253.622,645.895 3552.76,645.895 "/>
<polyline clip-path="url(#clip561)" style="stroke:#000000; stroke-linecap:round; stroke-linejoin:round; stroke-width:2; stroke-opacity:0.1; fill:none" points="253.622,155.733 3552.76,155.733 "/>
<polyline clip-path="url(#clip560)" style="stroke:#000000; stroke-linecap:round; stroke-linejoin:round; stroke-width:4; stroke-opacity:1; fill:none" points="253.622,1832.86 3552.76,1832.86 "/>
<polyline clip-path="url(#clip560)" style="stroke:#000000; stroke-linecap:round; stroke-linejoin:round; stroke-width:4; stroke-opacity:1; fill:none" points="454.318,1832.86 454.318,1813.96 "/>
<polyline clip-path="url(#clip560)" style="stroke:#000000; stroke-linecap:round; stroke-linejoin:round; stroke-width:4; stroke-opacity:1; fill:none" points="990.937,1832.86 990.937,1813.96 "/>
<polyline clip-path="url(#clip560)" style="stroke:#000000; stroke-linecap:round; stroke-linejoin:round; stroke-width:4; stroke-opacity:1; fill:none" points="1527.56,1832.86 1527.56,1813.96 "/>
<polyline clip-path="url(#clip560)" style="stroke:#000000; stroke-linecap:round; stroke-linejoin:round; stroke-width:4; stroke-opacity:1; fill:none" points="2064.17,1832.86 2064.17,1813.96 "/>
<polyline clip-path="url(#clip560)" style="stroke:#000000; stroke-linecap:round; stroke-linejoin:round; stroke-width:4; stroke-opacity:1; fill:none" points="2600.79,1832.86 2600.79,1813.96 "/>
<polyline clip-path="url(#clip560)" style="stroke:#000000; stroke-linecap:round; stroke-linejoin:round; stroke-width:4; stroke-opacity:1; fill:none" points="3137.41,1832.86 3137.41,1813.96 "/>
<path clip-path="url(#clip560)" d="M429.445 1904.14 L429.445 1899.88 Q431.204 1900.72 433.01 1901.16 Q434.815 1901.6 436.551 1901.6 Q441.181 1901.6 443.612 1898.49 Q446.065 1895.37 446.413 1889.03 Q445.07 1891.02 443.01 1892.08 Q440.95 1893.15 438.45 1893.15 Q433.264 1893.15 430.232 1890.02 Q427.223 1886.87 427.223 1881.43 Q427.223 1876.11 430.371 1872.89 Q433.519 1869.67 438.751 1869.67 Q444.746 1869.67 447.894 1874.28 Q451.065 1878.86 451.065 1887.61 Q451.065 1895.79 447.176 1900.67 Q443.311 1905.53 436.76 1905.53 Q435.001 1905.53 433.195 1905.18 Q431.389 1904.84 429.445 1904.14 M438.751 1889.49 Q441.899 1889.49 443.727 1887.34 Q445.579 1885.18 445.579 1881.43 Q445.579 1877.71 443.727 1875.55 Q441.899 1873.38 438.751 1873.38 Q435.602 1873.38 433.751 1875.55 Q431.922 1877.71 431.922 1881.43 Q431.922 1885.18 433.751 1887.34 Q435.602 1889.49 438.751 1889.49 Z" fill="#000000" fill-rule="nonzero" fill-opacity="1" /><path clip-path="url(#clip560)" d="M469.468 1873.38 Q465.857 1873.38 464.028 1876.94 Q462.223 1880.48 462.223 1887.61 Q462.223 1894.72 464.028 1898.29 Q465.857 1901.83 469.468 1901.83 Q473.102 1901.83 474.908 1898.29 Q476.736 1894.72 476.736 1887.61 Q476.736 1880.48 474.908 1876.94 Q473.102 1873.38 469.468 1873.38 M469.468 1869.67 Q475.278 1869.67 478.334 1874.28 Q481.412 1878.86 481.412 1887.61 Q481.412 1896.34 478.334 1900.95 Q475.278 1905.53 469.468 1905.53 Q463.658 1905.53 460.579 1900.95 Q457.524 1896.34 457.524 1887.61 Q457.524 1878.86 460.579 1874.28 Q463.658 1869.67 469.468 1869.67 Z" fill="#000000" fill-rule="nonzero" fill-opacity="1" /><path clip-path="url(#clip560)" d="M950.543 1900.92 L958.182 1900.92 L958.182 1874.56 L949.872 1876.23 L949.872 1871.97 L958.136 1870.3 L962.812 1870.3 L962.812 1900.92 L970.451 1900.92 L970.451 1904.86 L950.543 1904.86 L950.543 1900.92 Z" fill="#000000" fill-rule="nonzero" fill-opacity="1" /><path clip-path="url(#clip560)" d="M989.895 1873.38 Q986.284 1873.38 984.455 1876.94 Q982.65 1880.48 982.65 1887.61 Q982.65 1894.72 984.455 1898.29 Q986.284 1901.83 989.895 1901.83 Q993.529 1901.83 995.335 1898.29 Q997.163 1894.72 997.163 1887.61 Q997.163 1880.48 995.335 1876.94 Q993.529 1873.38 989.895 1873.38 M989.895 1869.67 Q995.705 1869.67 998.761 1874.28 Q1001.84 1878.86 1001.84 1887.61 Q1001.84 1896.34 998.761 1900.95 Q995.705 1905.53 989.895 1905.53 Q984.085 1905.53 981.006 1900.95 Q977.951 1896.34 977.951 1887.61 Q977.951 1878.86 981.006 1874.28 Q984.085 1869.67 989.895 1869.67 Z" fill="#000000" fill-rule="nonzero" fill-opacity="1" /><path clip-path="url(#clip560)" d="M1020.06 1873.38 Q1016.45 1873.38 1014.62 1876.94 Q1012.81 1880.48 1012.81 1887.61 Q1012.81 1894.72 1014.62 1898.29 Q1016.45 1901.83 1020.06 1901.83 Q1023.69 1901.83 1025.5 1898.29 Q1027.33 1894.72 1027.33 1887.61 Q1027.33 1880.48 1025.5 1876.94 Q1023.69 1873.38 1020.06 1873.38 M1020.06 1869.67 Q1025.87 1869.67 1028.92 1874.28 Q1032 1878.86 1032 1887.61 Q1032 1896.34 1028.92 1900.95 Q1025.87 1905.53 1020.06 1905.53 Q1014.25 1905.53 1011.17 1900.95 Q1008.11 1896.34 1008.11 1887.61 Q1008.11 1878.86 1011.17 1874.28 Q1014.25 1869.67 1020.06 1869.67 Z" fill="#000000" fill-rule="nonzero" fill-opacity="1" /><path clip-path="url(#clip560)" d="M1487.16 1900.92 L1494.8 1900.92 L1494.8 1874.56 L1486.49 1876.23 L1486.49 1871.97 L1494.75 1870.3 L1499.43 1870.3 L1499.43 1900.92 L1507.07 1900.92 L1507.07 1904.86 L1487.16 1904.86 L1487.16 1900.92 Z" fill="#000000" fill-rule="nonzero" fill-opacity="1" /><path clip-path="url(#clip560)" d="M1517.32 1900.92 L1524.96 1900.92 L1524.96 1874.56 L1516.65 1876.23 L1516.65 1871.97 L1524.92 1870.3 L1529.59 1870.3 L1529.59 1900.92 L1537.23 1900.92 L1537.23 1904.86 L1517.32 1904.86 L1517.32 1900.92 Z" fill="#000000" fill-rule="nonzero" fill-opacity="1" /><path clip-path="url(#clip560)" d="M1556.68 1873.38 Q1553.06 1873.38 1551.24 1876.94 Q1549.43 1880.48 1549.43 1887.61 Q1549.43 1894.72 1551.24 1898.29 Q1553.06 1901.83 1556.68 1901.83 Q1560.31 1901.83 1562.12 1898.29 Q1563.94 1894.72 1563.94 1887.61 Q1563.94 1880.48 1562.12 1876.94 Q1560.31 1873.38 1556.68 1873.38 M1556.68 1869.67 Q1562.49 1869.67 1565.54 1874.28 Q1568.62 1878.86 1568.62 1887.61 Q1568.62 1896.34 1565.54 1900.95 Q1562.49 1905.53 1556.68 1905.53 Q1550.87 1905.53 1547.79 1900.95 Q1544.73 1896.34 1544.73 1887.61 Q1544.73 1878.86 1547.79 1874.28 Q1550.87 1869.67 1556.68 1869.67 Z" fill="#000000" fill-rule="nonzero" fill-opacity="1" /><path clip-path="url(#clip560)" d="M2023.78 1900.92 L2031.42 1900.92 L2031.42 1874.56 L2023.11 1876.23 L2023.11 1871.97 L2031.37 1870.3 L2036.05 1870.3 L2036.05 1900.92 L2043.69 1900.92 L2043.69 1904.86 L2023.78 1904.86 L2023.78 1900.92 Z" fill="#000000" fill-rule="nonzero" fill-opacity="1" /><path clip-path="url(#clip560)" d="M2057.16 1900.92 L2073.48 1900.92 L2073.48 1904.86 L2051.54 1904.86 L2051.54 1900.92 Q2054.2 1898.17 2058.78 1893.54 Q2063.39 1888.89 2064.57 1887.55 Q2066.81 1885.02 2067.69 1883.29 Q2068.6 1881.53 2068.6 1879.84 Q2068.6 1877.08 2066.65 1875.35 Q2064.73 1873.61 2061.63 1873.61 Q2059.43 1873.61 2056.98 1874.37 Q2054.55 1875.14 2051.77 1876.69 L2051.77 1871.97 Q2054.59 1870.83 2057.05 1870.25 Q2059.5 1869.67 2061.54 1869.67 Q2066.91 1869.67 2070.1 1872.36 Q2073.3 1875.05 2073.3 1879.54 Q2073.3 1881.67 2072.48 1883.59 Q2071.7 1885.48 2069.59 1888.08 Q2069.01 1888.75 2065.91 1891.97 Q2062.81 1895.16 2057.16 1900.92 Z" fill="#000000" fill-rule="nonzero" fill-opacity="1" /><path clip-path="url(#clip560)" d="M2093.29 1873.38 Q2089.68 1873.38 2087.86 1876.94 Q2086.05 1880.48 2086.05 1887.61 Q2086.05 1894.72 2087.86 1898.29 Q2089.68 1901.83 2093.29 1901.83 Q2096.93 1901.83 2098.73 1898.29 Q2100.56 1894.72 2100.56 1887.61 Q2100.56 1880.48 2098.73 1876.94 Q2096.93 1873.38 2093.29 1873.38 M2093.29 1869.67 Q2099.11 1869.67 2102.16 1874.28 Q2105.24 1878.86 2105.24 1887.61 Q2105.24 1896.34 2102.16 1900.95 Q2099.11 1905.53 2093.29 1905.53 Q2087.48 1905.53 2084.41 1900.95 Q2081.35 1896.34 2081.35 1887.61 Q2081.35 1878.86 2084.41 1874.28 Q2087.48 1869.67 2093.29 1869.67 Z" fill="#000000" fill-rule="nonzero" fill-opacity="1" /><path clip-path="url(#clip560)" d="M2560.4 1900.92 L2568.04 1900.92 L2568.04 1874.56 L2559.73 1876.23 L2559.73 1871.97 L2567.99 1870.3 L2572.67 1870.3 L2572.67 1900.92 L2580.31 1900.92 L2580.31 1904.86 L2560.4 1904.86 L2560.4 1900.92 Z" fill="#000000" fill-rule="nonzero" fill-opacity="1" /><path clip-path="url(#clip560)" d="M2603.92 1886.23 Q2607.28 1886.94 2609.15 1889.21 Q2611.05 1891.48 2611.05 1894.81 Q2611.05 1899.93 2607.53 1902.73 Q2604.01 1905.53 2597.53 1905.53 Q2595.35 1905.53 2593.04 1905.09 Q2590.75 1904.67 2588.29 1903.82 L2588.29 1899.3 Q2590.24 1900.44 2592.55 1901.02 Q2594.87 1901.6 2597.39 1901.6 Q2601.79 1901.6 2604.08 1899.86 Q2606.4 1898.12 2606.4 1894.81 Q2606.4 1891.76 2604.24 1890.05 Q2602.11 1888.31 2598.29 1888.31 L2594.27 1888.31 L2594.27 1884.47 L2598.48 1884.47 Q2601.93 1884.47 2603.76 1883.1 Q2605.59 1881.71 2605.59 1879.12 Q2605.59 1876.46 2603.69 1875.05 Q2601.81 1873.61 2598.29 1873.61 Q2596.37 1873.61 2594.17 1874.03 Q2591.97 1874.44 2589.34 1875.32 L2589.34 1871.16 Q2592 1870.42 2594.31 1870.05 Q2596.65 1869.67 2598.71 1869.67 Q2604.03 1869.67 2607.14 1872.11 Q2610.24 1874.51 2610.24 1878.63 Q2610.24 1881.5 2608.59 1883.49 Q2606.95 1885.46 2603.92 1886.23 Z" fill="#000000" fill-rule="nonzero" fill-opacity="1" /><path clip-path="url(#clip560)" d="M2629.91 1873.38 Q2626.3 1873.38 2624.47 1876.94 Q2622.67 1880.48 2622.67 1887.61 Q2622.67 1894.72 2624.47 1898.29 Q2626.3 1901.83 2629.91 1901.83 Q2633.55 1901.83 2635.35 1898.29 Q2637.18 1894.72 2637.18 1887.61 Q2637.18 1880.48 2635.35 1876.94 Q2633.55 1873.38 2629.91 1873.38 M2629.91 1869.67 Q2635.72 1869.67 2638.78 1874.28 Q2641.86 1878.86 2641.86 1887.61 Q2641.86 1896.34 2638.78 1900.95 Q2635.72 1905.53 2629.91 1905.53 Q2624.1 1905.53 2621.03 1900.95 Q2617.97 1896.34 2617.97 1887.61 Q2617.97 1878.86 2621.03 1874.28 Q2624.1 1869.67 2629.91 1869.67 Z" fill="#000000" fill-rule="nonzero" fill-opacity="1" /><path clip-path="url(#clip560)" d="M3097.02 1900.92 L3104.66 1900.92 L3104.66 1874.56 L3096.35 1876.23 L3096.35 1871.97 L3104.61 1870.3 L3109.29 1870.3 L3109.29 1900.92 L3116.93 1900.92 L3116.93 1904.86 L3097.02 1904.86 L3097.02 1900.92 Z" fill="#000000" fill-rule="nonzero" fill-opacity="1" /><path clip-path="url(#clip560)" d="M3139.22 1874.37 L3127.41 1892.82 L3139.22 1892.82 L3139.22 1874.37 M3137.99 1870.3 L3143.87 1870.3 L3143.87 1892.82 L3148.8 1892.82 L3148.8 1896.71 L3143.87 1896.71 L3143.87 1904.86 L3139.22 1904.86 L3139.22 1896.71 L3123.62 1896.71 L3123.62 1892.2 L3137.99 1870.3 Z" fill="#000000" fill-rule="nonzero" fill-opacity="1" /><path clip-path="url(#clip560)" d="M3166.53 1873.38 Q3162.92 1873.38 3161.09 1876.94 Q3159.29 1880.48 3159.29 1887.61 Q3159.29 1894.72 3161.09 1898.29 Q3162.92 1901.83 3166.53 1901.83 Q3170.17 1901.83 3171.97 1898.29 Q3173.8 1894.72 3173.8 1887.61 Q3173.8 1880.48 3171.97 1876.94 Q3170.17 1873.38 3166.53 1873.38 M3166.53 1869.67 Q3172.34 1869.67 3175.4 1874.28 Q3178.48 1878.86 3178.48 1887.61 Q3178.48 1896.34 3175.4 1900.95 Q3172.34 1905.53 3166.53 1905.53 Q3160.72 1905.53 3157.64 1900.95 Q3154.59 1896.34 3154.59 1887.61 Q3154.59 1878.86 3157.64 1874.28 Q3160.72 1869.67 3166.53 1869.67 Z" fill="#000000" fill-rule="nonzero" fill-opacity="1" /><path clip-path="url(#clip560)" d="M1589.61 1953.49 L1589.61 1990.44 L1597.38 1990.44 Q1607.22 1990.44 1611.77 1985.98 Q1616.35 1981.53 1616.35 1971.92 Q1616.35 1962.37 1611.77 1957.94 Q1607.22 1953.49 1597.38 1953.49 L1589.61 1953.49 M1583.18 1948.2 L1596.39 1948.2 Q1610.21 1948.2 1616.67 1953.96 Q1623.13 1959.69 1623.13 1971.92 Q1623.13 1984.2 1616.64 1989.96 Q1610.14 1995.72 1596.39 1995.72 L1583.18 1995.72 L1583.18 1948.2 Z" fill="#000000" fill-rule="nonzero" fill-opacity="1" /><path clip-path="url(#clip560)" d="M1633.12 1960.08 L1638.98 1960.08 L1638.98 1995.72 L1633.12 1995.72 L1633.12 1960.08 M1633.12 1946.2 L1638.98 1946.2 L1638.98 1953.61 L1633.12 1953.61 L1633.12 1946.2 Z" fill="#000000" fill-rule="nonzero" fill-opacity="1" /><path clip-path="url(#clip560)" d="M1673.96 1961.13 L1673.96 1966.66 Q1671.48 1965.39 1668.8 1964.75 Q1666.13 1964.12 1663.27 1964.12 Q1658.9 1964.12 1656.71 1965.45 Q1654.54 1966.79 1654.54 1969.47 Q1654.54 1971.5 1656.1 1972.68 Q1657.66 1973.83 1662.37 1974.88 L1664.38 1975.32 Q1670.62 1976.66 1673.23 1979.11 Q1675.87 1981.53 1675.87 1985.89 Q1675.87 1990.85 1671.92 1993.75 Q1668.01 1996.65 1661.13 1996.65 Q1658.27 1996.65 1655.15 1996.07 Q1652.06 1995.53 1648.62 1994.42 L1648.62 1988.37 Q1651.87 1990.06 1655.02 1990.92 Q1658.17 1991.75 1661.26 1991.75 Q1665.4 1991.75 1667.63 1990.34 Q1669.85 1988.91 1669.85 1986.33 Q1669.85 1983.95 1668.23 1982.67 Q1666.64 1981.4 1661.2 1980.22 L1659.16 1979.75 Q1653.72 1978.6 1651.3 1976.24 Q1648.88 1973.86 1648.88 1969.72 Q1648.88 1964.69 1652.44 1961.95 Q1656.01 1959.22 1662.57 1959.22 Q1665.81 1959.22 1668.68 1959.69 Q1671.54 1960.17 1673.96 1961.13 Z" fill="#000000" fill-rule="nonzero" fill-opacity="1" /><path clip-path="url(#clip560)" d="M1690.99 1949.95 L1690.99 1960.08 L1703.05 1960.08 L1703.05 1964.63 L1690.99 1964.63 L1690.99 1983.98 Q1690.99 1988.34 1692.17 1989.58 Q1693.38 1990.82 1697.04 1990.82 L1703.05 1990.82 L1703.05 1995.72 L1697.04 1995.72 Q1690.26 1995.72 1687.68 1993.21 Q1685.1 1990.66 1685.1 1983.98 L1685.1 1964.63 L1680.8 1964.63 L1680.8 1960.08 L1685.1 1960.08 L1685.1 1949.95 L1690.99 1949.95 Z" fill="#000000" fill-rule="nonzero" fill-opacity="1" /><path clip-path="url(#clip560)" d="M1731.41 1965.55 Q1730.42 1964.98 1729.25 1964.72 Q1728.1 1964.44 1726.7 1964.44 Q1721.73 1964.44 1719.06 1967.68 Q1716.42 1970.9 1716.42 1976.95 L1716.42 1995.72 L1710.53 1995.72 L1710.53 1960.08 L1716.42 1960.08 L1716.42 1965.61 Q1718.27 1962.37 1721.23 1960.81 Q1724.19 1959.22 1728.42 1959.22 Q1729.02 1959.22 1729.76 1959.31 Q1730.49 1959.38 1731.38 1959.53 L1731.41 1965.55 Z" fill="#000000" fill-rule="nonzero" fill-opacity="1" /><path clip-path="url(#clip560)" d="M1737.55 1960.08 L1743.41 1960.08 L1743.41 1995.72 L1737.55 1995.72 L1737.55 1960.08 M1737.55 1946.2 L1743.41 1946.2 L1743.41 1953.61 L1737.55 1953.61 L1737.55 1946.2 Z" fill="#000000" fill-rule="nonzero" fill-opacity="1" /><path clip-path="url(#clip560)" d="M1781.32 1961.44 L1781.32 1966.92 Q1778.83 1965.55 1776.32 1964.88 Q1773.84 1964.18 1771.29 1964.18 Q1765.59 1964.18 1762.44 1967.81 Q1759.29 1971.41 1759.29 1977.93 Q1759.29 1984.46 1762.44 1988.08 Q1765.59 1991.68 1771.29 1991.68 Q1773.84 1991.68 1776.32 1991.01 Q1778.83 1990.31 1781.32 1988.94 L1781.32 1994.36 Q1778.87 1995.5 1776.22 1996.07 Q1773.62 1996.65 1770.65 1996.65 Q1762.6 1996.65 1757.86 1991.59 Q1753.12 1986.53 1753.12 1977.93 Q1753.12 1969.21 1757.89 1964.21 Q1762.7 1959.22 1771.04 1959.22 Q1773.74 1959.22 1776.32 1959.79 Q1778.9 1960.33 1781.32 1961.44 Z" fill="#000000" fill-rule="nonzero" fill-opacity="1" /><path clip-path="url(#clip560)" d="M1797.3 1949.95 L1797.3 1960.08 L1809.36 1960.08 L1809.36 1964.63 L1797.3 1964.63 L1797.3 1983.98 Q1797.3 1988.34 1798.47 1989.58 Q1799.68 1990.82 1803.34 1990.82 L1809.36 1990.82 L1809.36 1995.72 L1803.34 1995.72 Q1796.56 1995.72 1793.99 1993.21 Q1791.41 1990.66 1791.41 1983.98 L1791.41 1964.63 L1787.11 1964.63 L1787.11 1960.08 L1791.41 1960.08 L1791.41 1949.95 L1797.3 1949.95 Z" fill="#000000" fill-rule="nonzero" fill-opacity="1" /><path clip-path="url(#clip560)" d="M1856.27 1953.81 L1840.04 1979.17 L1856.27 1979.17 L1856.27 1953.81 M1854.59 1948.2 L1862.67 1948.2 L1862.67 1979.17 L1869.45 1979.17 L1869.45 1984.52 L1862.67 1984.52 L1862.67 1995.72 L1856.27 1995.72 L1856.27 1984.52 L1834.82 1984.52 L1834.82 1978.31 L1854.59 1948.2 Z" fill="#000000" fill-rule="nonzero" fill-opacity="1" /><path clip-path="url(#clip560)" d="M1899.37 1981.66 L1899.37 1960.08 L1905.23 1960.08 L1905.23 1981.43 Q1905.23 1986.49 1907.2 1989.04 Q1909.17 1991.55 1913.12 1991.55 Q1917.86 1991.55 1920.6 1988.53 Q1923.37 1985.51 1923.37 1980.29 L1923.37 1960.08 L1929.22 1960.08 L1929.22 1995.72 L1923.37 1995.72 L1923.37 1990.25 Q1921.24 1993.5 1918.4 1995.09 Q1915.6 1996.65 1911.88 1996.65 Q1905.74 1996.65 1902.55 1992.83 Q1899.37 1989.01 1899.37 1981.66 M1914.11 1959.22 L1914.11 1959.22 Z" fill="#000000" fill-rule="nonzero" fill-opacity="1" /><path clip-path="url(#clip560)" d="M1970.92 1974.21 L1970.92 1995.72 L1965.06 1995.72 L1965.06 1974.4 Q1965.06 1969.34 1963.09 1966.82 Q1961.12 1964.31 1957.17 1964.31 Q1952.43 1964.31 1949.69 1967.33 Q1946.95 1970.36 1946.95 1975.58 L1946.95 1995.72 L1941.06 1995.72 L1941.06 1960.08 L1946.95 1960.08 L1946.95 1965.61 Q1949.05 1962.4 1951.89 1960.81 Q1954.75 1959.22 1958.48 1959.22 Q1964.62 1959.22 1967.77 1963.04 Q1970.92 1966.82 1970.92 1974.21 Z" fill="#000000" fill-rule="nonzero" fill-opacity="1" /><path clip-path="url(#clip560)" d="M1982.6 1960.08 L1988.46 1960.08 L1988.46 1995.72 L1982.6 1995.72 L1982.6 1960.08 M1982.6 1946.2 L1988.46 1946.2 L1988.46 1953.61 L1982.6 1953.61 L1982.6 1946.2 Z" fill="#000000" fill-rule="nonzero" fill-opacity="1" /><path clip-path="url(#clip560)" d="M2006.5 1949.95 L2006.5 1960.08 L2018.57 1960.08 L2018.57 1964.63 L2006.5 1964.63 L2006.5 1983.98 Q2006.5 1988.34 2007.68 1989.58 Q2008.89 1990.82 2012.55 1990.82 L2018.57 1990.82 L2018.57 1995.72 L2012.55 1995.72 Q2005.77 1995.72 2003.19 1993.21 Q2000.62 1990.66 2000.62 1983.98 L2000.62 1964.63 L1996.32 1964.63 L1996.32 1960.08 L2000.62 1960.08 L2000.62 1949.95 L2006.5 1949.95 Z" fill="#000000" fill-rule="nonzero" fill-opacity="1" /><path clip-path="url(#clip560)" d="M2072.64 1961.44 L2072.64 1966.92 Q2070.16 1965.55 2067.65 1964.88 Q2065.16 1964.18 2062.62 1964.18 Q2056.92 1964.18 2053.77 1967.81 Q2050.62 1971.41 2050.62 1977.93 Q2050.62 1984.46 2053.77 1988.08 Q2056.92 1991.68 2062.62 1991.68 Q2065.16 1991.68 2067.65 1991.01 Q2070.16 1990.31 2072.64 1988.94 L2072.64 1994.36 Q2070.19 1995.5 2067.55 1996.07 Q2064.94 1996.65 2061.98 1996.65 Q2053.93 1996.65 2049.19 1991.59 Q2044.44 1986.53 2044.44 1977.93 Q2044.44 1969.21 2049.22 1964.21 Q2054.02 1959.22 2062.36 1959.22 Q2065.07 1959.22 2067.65 1959.79 Q2070.23 1960.33 2072.64 1961.44 Z" fill="#000000" fill-rule="nonzero" fill-opacity="1" /><path clip-path="url(#clip560)" d="M2096.64 1964.18 Q2091.93 1964.18 2089.19 1967.87 Q2086.46 1971.53 2086.46 1977.93 Q2086.46 1984.33 2089.16 1988.02 Q2091.9 1991.68 2096.64 1991.68 Q2101.32 1991.68 2104.06 1987.99 Q2106.8 1984.3 2106.8 1977.93 Q2106.8 1971.6 2104.06 1967.91 Q2101.32 1964.18 2096.64 1964.18 M2096.64 1959.22 Q2104.28 1959.22 2108.64 1964.18 Q2113 1969.15 2113 1977.93 Q2113 1986.68 2108.64 1991.68 Q2104.28 1996.65 2096.64 1996.65 Q2088.97 1996.65 2084.61 1991.68 Q2080.28 1986.68 2080.28 1977.93 Q2080.28 1969.15 2084.61 1964.18 Q2088.97 1959.22 2096.64 1959.22 Z" fill="#000000" fill-rule="nonzero" fill-opacity="1" /><path clip-path="url(#clip560)" d="M2122.11 1981.66 L2122.11 1960.08 L2127.96 1960.08 L2127.96 1981.43 Q2127.96 1986.49 2129.94 1989.04 Q2131.91 1991.55 2135.86 1991.55 Q2140.6 1991.55 2143.34 1988.53 Q2146.1 1985.51 2146.1 1980.29 L2146.1 1960.08 L2151.96 1960.08 L2151.96 1995.72 L2146.1 1995.72 L2146.1 1990.25 Q2143.97 1993.5 2141.14 1995.09 Q2138.34 1996.65 2134.61 1996.65 Q2128.47 1996.65 2125.29 1992.83 Q2122.11 1989.01 2122.11 1981.66 M2136.84 1959.22 L2136.84 1959.22 Z" fill="#000000" fill-rule="nonzero" fill-opacity="1" /><path clip-path="url(#clip560)" d="M2193.66 1974.21 L2193.66 1995.72 L2187.8 1995.72 L2187.8 1974.4 Q2187.8 1969.34 2185.83 1966.82 Q2183.85 1964.31 2179.91 1964.31 Q2175.16 1964.31 2172.43 1967.33 Q2169.69 1970.36 2169.69 1975.58 L2169.69 1995.72 L2163.8 1995.72 L2163.8 1960.08 L2169.69 1960.08 L2169.69 1965.61 Q2171.79 1962.4 2174.62 1960.81 Q2177.49 1959.22 2181.21 1959.22 Q2187.35 1959.22 2190.51 1963.04 Q2193.66 1966.82 2193.66 1974.21 Z" fill="#000000" fill-rule="nonzero" fill-opacity="1" /><path clip-path="url(#clip560)" d="M2211.13 1949.95 L2211.13 1960.08 L2223.19 1960.08 L2223.19 1964.63 L2211.13 1964.63 L2211.13 1983.98 Q2211.13 1988.34 2212.31 1989.58 Q2213.52 1990.82 2217.18 1990.82 L2223.19 1990.82 L2223.19 1995.72 L2217.18 1995.72 Q2210.4 1995.72 2207.82 1993.21 Q2205.24 1990.66 2205.24 1983.98 L2205.24 1964.63 L2200.94 1964.63 L2200.94 1960.08 L2205.24 1960.08 L2205.24 1949.95 L2211.13 1949.95 Z" fill="#000000" fill-rule="nonzero" fill-opacity="1" /><polyline clip-path="url(#clip560)" style="stroke:#000000; stroke-linecap:round; stroke-linejoin:round; stroke-width:4; stroke-opacity:1; fill:none" points="253.622,1832.86 253.622,113.392 "/>
<polyline clip-path="url(#clip560)" style="stroke:#000000; stroke-linecap:round; stroke-linejoin:round; stroke-width:4; stroke-opacity:1; fill:none" points="253.622,1626.22 272.52,1626.22 "/>
<polyline clip-path="url(#clip560)" style="stroke:#000000; stroke-linecap:round; stroke-linejoin:round; stroke-width:4; stroke-opacity:1; fill:none" points="253.622,1136.06 272.52,1136.06 "/>
<polyline clip-path="url(#clip560)" style="stroke:#000000; stroke-linecap:round; stroke-linejoin:round; stroke-width:4; stroke-opacity:1; fill:none" points="253.622,645.895 272.52,645.895 "/>
<polyline clip-path="url(#clip560)" style="stroke:#000000; stroke-linecap:round; stroke-linejoin:round; stroke-width:4; stroke-opacity:1; fill:none" points="253.622,155.733 272.52,155.733 "/>
<path clip-path="url(#clip560)" d="M113.187 1612.02 Q109.576 1612.02 107.748 1615.58 Q105.942 1619.12 105.942 1626.25 Q105.942 1633.36 107.748 1636.92 Q109.576 1640.47 113.187 1640.47 Q116.822 1640.47 118.627 1636.92 Q120.456 1633.36 120.456 1626.25 Q120.456 1619.12 118.627 1615.58 Q116.822 1612.02 113.187 1612.02 M113.187 1608.31 Q118.997 1608.31 122.053 1612.92 Q125.132 1617.5 125.132 1626.25 Q125.132 1634.98 122.053 1639.59 Q118.997 1644.17 113.187 1644.17 Q107.377 1644.17 104.298 1639.59 Q101.243 1634.98 101.243 1626.25 Q101.243 1617.5 104.298 1612.92 Q107.377 1608.31 113.187 1608.31 Z" fill="#000000" fill-rule="nonzero" fill-opacity="1" /><path clip-path="url(#clip560)" d="M133.349 1637.62 L138.233 1637.62 L138.233 1643.5 L133.349 1643.5 L133.349 1637.62 Z" fill="#000000" fill-rule="nonzero" fill-opacity="1" /><path clip-path="url(#clip560)" d="M158.997 1624.35 Q155.849 1624.35 153.997 1626.51 Q152.169 1628.66 152.169 1632.41 Q152.169 1636.14 153.997 1638.31 Q155.849 1640.47 158.997 1640.47 Q162.145 1640.47 163.974 1638.31 Q165.826 1636.14 165.826 1632.41 Q165.826 1628.66 163.974 1626.51 Q162.145 1624.35 158.997 1624.35 M168.28 1609.7 L168.28 1613.96 Q166.52 1613.13 164.715 1612.69 Q162.932 1612.25 161.173 1612.25 Q156.544 1612.25 154.09 1615.37 Q151.659 1618.5 151.312 1624.82 Q152.678 1622.8 154.738 1621.74 Q156.798 1620.65 159.275 1620.65 Q164.483 1620.65 167.493 1623.82 Q170.525 1626.97 170.525 1632.41 Q170.525 1637.73 167.377 1640.95 Q164.229 1644.17 158.997 1644.17 Q153.002 1644.17 149.831 1639.59 Q146.659 1634.98 146.659 1626.25 Q146.659 1618.06 150.548 1613.2 Q154.437 1608.31 160.988 1608.31 Q162.747 1608.31 164.53 1608.66 Q166.335 1609.01 168.28 1609.7 Z" fill="#000000" fill-rule="nonzero" fill-opacity="1" /><path clip-path="url(#clip560)" d="M177.4 1608.94 L199.622 1608.94 L199.622 1610.93 L187.076 1643.5 L182.192 1643.5 L193.997 1612.87 L177.4 1612.87 L177.4 1608.94 Z" fill="#000000" fill-rule="nonzero" fill-opacity="1" /><path clip-path="url(#clip560)" d="M112.377 1121.86 Q108.766 1121.86 106.937 1125.42 Q105.132 1128.96 105.132 1136.09 Q105.132 1143.2 106.937 1146.76 Q108.766 1150.3 112.377 1150.3 Q116.011 1150.3 117.817 1146.76 Q119.646 1143.2 119.646 1136.09 Q119.646 1128.96 117.817 1125.42 Q116.011 1121.86 112.377 1121.86 M112.377 1118.15 Q118.187 1118.15 121.243 1122.76 Q124.322 1127.34 124.322 1136.09 Q124.322 1144.82 121.243 1149.42 Q118.187 1154.01 112.377 1154.01 Q106.567 1154.01 103.488 1149.42 Q100.433 1144.82 100.433 1136.09 Q100.433 1127.34 103.488 1122.76 Q106.567 1118.15 112.377 1118.15 Z" fill="#000000" fill-rule="nonzero" fill-opacity="1" /><path clip-path="url(#clip560)" d="M132.539 1147.46 L137.423 1147.46 L137.423 1153.34 L132.539 1153.34 L132.539 1147.46 Z" fill="#000000" fill-rule="nonzero" fill-opacity="1" /><path clip-path="url(#clip560)" d="M158.187 1134.19 Q155.039 1134.19 153.187 1136.35 Q151.358 1138.5 151.358 1142.25 Q151.358 1145.98 153.187 1148.15 Q155.039 1150.3 158.187 1150.3 Q161.335 1150.3 163.164 1148.15 Q165.016 1145.98 165.016 1142.25 Q165.016 1138.5 163.164 1136.35 Q161.335 1134.19 158.187 1134.19 M167.469 1119.54 L167.469 1123.8 Q165.71 1122.97 163.905 1122.53 Q162.122 1122.09 160.363 1122.09 Q155.733 1122.09 153.28 1125.21 Q150.849 1128.34 150.502 1134.66 Q151.868 1132.64 153.928 1131.58 Q155.988 1130.49 158.465 1130.49 Q163.673 1130.49 166.682 1133.66 Q169.715 1136.81 169.715 1142.25 Q169.715 1147.57 166.567 1150.79 Q163.419 1154.01 158.187 1154.01 Q152.192 1154.01 149.02 1149.42 Q145.849 1144.82 145.849 1136.09 Q145.849 1127.9 149.738 1123.04 Q153.627 1118.15 160.178 1118.15 Q161.937 1118.15 163.719 1118.5 Q165.525 1118.85 167.469 1119.54 Z" fill="#000000" fill-rule="nonzero" fill-opacity="1" /><path clip-path="url(#clip560)" d="M187.77 1136.92 Q184.437 1136.92 182.516 1138.71 Q180.618 1140.49 180.618 1143.61 Q180.618 1146.74 182.516 1148.52 Q184.437 1150.3 187.77 1150.3 Q191.104 1150.3 193.025 1148.52 Q194.946 1146.72 194.946 1143.61 Q194.946 1140.49 193.025 1138.71 Q191.127 1136.92 187.77 1136.92 M183.094 1134.93 Q180.085 1134.19 178.395 1132.13 Q176.729 1130.07 176.729 1127.11 Q176.729 1122.97 179.668 1120.56 Q182.631 1118.15 187.77 1118.15 Q192.932 1118.15 195.872 1120.56 Q198.812 1122.97 198.812 1127.11 Q198.812 1130.07 197.122 1132.13 Q195.455 1134.19 192.469 1134.93 Q195.849 1135.72 197.724 1138.01 Q199.622 1140.3 199.622 1143.61 Q199.622 1148.64 196.543 1151.32 Q193.488 1154.01 187.77 1154.01 Q182.053 1154.01 178.974 1151.32 Q175.918 1148.64 175.918 1143.61 Q175.918 1140.3 177.817 1138.01 Q179.715 1135.72 183.094 1134.93 M181.381 1127.55 Q181.381 1130.23 183.048 1131.74 Q184.738 1133.24 187.77 1133.24 Q190.779 1133.24 192.469 1131.74 Q194.182 1130.23 194.182 1127.55 Q194.182 1124.86 192.469 1123.36 Q190.779 1121.86 187.77 1121.86 Q184.738 1121.86 183.048 1123.36 Q181.381 1124.86 181.381 1127.55 Z" fill="#000000" fill-rule="nonzero" fill-opacity="1" /><path clip-path="url(#clip560)" d="M112.47 631.694 Q108.859 631.694 107.03 635.258 Q105.224 638.8 105.224 645.93 Q105.224 653.036 107.03 656.601 Q108.859 660.142 112.47 660.142 Q116.104 660.142 117.91 656.601 Q119.738 653.036 119.738 645.93 Q119.738 638.8 117.91 635.258 Q116.104 631.694 112.47 631.694 M112.47 627.99 Q118.28 627.99 121.335 632.596 Q124.414 637.18 124.414 645.93 Q124.414 654.656 121.335 659.263 Q118.28 663.846 112.47 663.846 Q106.66 663.846 103.581 659.263 Q100.525 654.656 100.525 645.93 Q100.525 637.18 103.581 632.596 Q106.66 627.99 112.47 627.99 Z" fill="#000000" fill-rule="nonzero" fill-opacity="1" /><path clip-path="url(#clip560)" d="M132.632 657.295 L137.516 657.295 L137.516 663.175 L132.632 663.175 L132.632 657.295 Z" fill="#000000" fill-rule="nonzero" fill-opacity="1" /><path clip-path="url(#clip560)" d="M158.28 644.031 Q155.132 644.031 153.28 646.184 Q151.451 648.337 151.451 652.087 Q151.451 655.814 153.28 657.99 Q155.132 660.142 158.28 660.142 Q161.428 660.142 163.256 657.99 Q165.108 655.814 165.108 652.087 Q165.108 648.337 163.256 646.184 Q161.428 644.031 158.28 644.031 M167.562 629.379 L167.562 633.638 Q165.803 632.805 163.997 632.365 Q162.215 631.925 160.456 631.925 Q155.826 631.925 153.372 635.05 Q150.942 638.175 150.595 644.494 Q151.96 642.481 154.02 641.416 Q156.081 640.328 158.557 640.328 Q163.766 640.328 166.775 643.499 Q169.807 646.647 169.807 652.087 Q169.807 657.411 166.659 660.629 Q163.511 663.846 158.28 663.846 Q152.284 663.846 149.113 659.263 Q145.942 654.656 145.942 645.93 Q145.942 637.735 149.831 632.874 Q153.72 627.99 160.27 627.99 Q162.03 627.99 163.812 628.337 Q165.618 628.684 167.562 629.379 Z" fill="#000000" fill-rule="nonzero" fill-opacity="1" /><path clip-path="url(#clip560)" d="M178.002 662.457 L178.002 658.198 Q179.761 659.031 181.567 659.471 Q183.372 659.911 185.108 659.911 Q189.738 659.911 192.168 656.809 Q194.622 653.684 194.969 647.342 Q193.627 649.332 191.567 650.397 Q189.506 651.462 187.006 651.462 Q181.821 651.462 178.789 648.337 Q175.78 645.189 175.78 639.749 Q175.78 634.425 178.928 631.207 Q182.076 627.99 187.307 627.99 Q193.303 627.99 196.451 632.596 Q199.622 637.18 199.622 645.93 Q199.622 654.101 195.733 658.985 Q191.867 663.846 185.317 663.846 Q183.557 663.846 181.752 663.499 Q179.946 663.152 178.002 662.457 M187.307 647.805 Q190.455 647.805 192.284 645.652 Q194.136 643.499 194.136 639.749 Q194.136 636.022 192.284 633.869 Q190.455 631.694 187.307 631.694 Q184.159 631.694 182.307 633.869 Q180.479 636.022 180.479 639.749 Q180.479 643.499 182.307 645.652 Q184.159 647.805 187.307 647.805 Z" fill="#000000" fill-rule="nonzero" fill-opacity="1" /><path clip-path="url(#clip560)" d="M112.285 141.532 Q108.673 141.532 106.845 145.097 Q105.039 148.638 105.039 155.768 Q105.039 162.874 106.845 166.439 Q108.673 169.981 112.285 169.981 Q115.919 169.981 117.724 166.439 Q119.553 162.874 119.553 155.768 Q119.553 148.638 117.724 145.097 Q115.919 141.532 112.285 141.532 M112.285 137.828 Q118.095 137.828 121.15 142.435 Q124.229 147.018 124.229 155.768 Q124.229 164.495 121.15 169.101 Q118.095 173.685 112.285 173.685 Q106.474 173.685 103.396 169.101 Q100.34 164.495 100.34 155.768 Q100.34 147.018 103.396 142.435 Q106.474 137.828 112.285 137.828 Z" fill="#000000" fill-rule="nonzero" fill-opacity="1" /><path clip-path="url(#clip560)" d="M132.446 167.134 L137.331 167.134 L137.331 173.013 L132.446 173.013 L132.446 167.134 Z" fill="#000000" fill-rule="nonzero" fill-opacity="1" /><path clip-path="url(#clip560)" d="M146.335 138.453 L168.557 138.453 L168.557 140.444 L156.011 173.013 L151.127 173.013 L162.932 142.388 L146.335 142.388 L146.335 138.453 Z" fill="#000000" fill-rule="nonzero" fill-opacity="1" /><path clip-path="url(#clip560)" d="M187.678 141.532 Q184.067 141.532 182.238 145.097 Q180.432 148.638 180.432 155.768 Q180.432 162.874 182.238 166.439 Q184.067 169.981 187.678 169.981 Q191.312 169.981 193.117 166.439 Q194.946 162.874 194.946 155.768 Q194.946 148.638 193.117 145.097 Q191.312 141.532 187.678 141.532 M187.678 137.828 Q193.488 137.828 196.543 142.435 Q199.622 147.018 199.622 155.768 Q199.622 164.495 196.543 169.101 Q193.488 173.685 187.678 173.685 Q181.867 173.685 178.789 169.101 Q175.733 164.495 175.733 155.768 Q175.733 147.018 178.789 142.435 Q181.867 137.828 187.678 137.828 Z" fill="#000000" fill-rule="nonzero" fill-opacity="1" /><path clip-path="url(#clip560)" d="M-15.4358 1603.27 L-15.4358 1573.22 L-10.025 1573.22 L-10.025 1596.84 L4.04322 1596.84 L4.04322 1574.21 L9.45407 1574.21 L9.45407 1596.84 L26.6733 1596.84 L26.6733 1572.65 L32.0842 1572.65 L32.0842 1603.27 L-15.4358 1603.27 Z" fill="#000000" fill-rule="nonzero" fill-opacity="1" /><path clip-path="url(#clip560)" d="M14.292 1558.83 Q20.7532 1558.83 24.4453 1556.19 Q28.1056 1553.52 28.1056 1548.87 Q28.1056 1544.23 24.4453 1541.55 Q20.7532 1538.88 14.292 1538.88 Q7.83082 1538.88 4.17053 1541.55 Q0.478424 1544.23 0.478424 1548.87 Q0.478424 1553.52 4.17053 1556.19 Q7.83082 1558.83 14.292 1558.83 M26.737 1538.88 Q29.9198 1540.72 31.4794 1543.56 Q33.0072 1546.36 33.0072 1550.3 Q33.0072 1556.77 27.851 1560.84 Q22.6947 1564.88 14.292 1564.88 Q5.88927 1564.88 0.733052 1560.84 Q-4.42317 1556.77 -4.42317 1550.3 Q-4.42317 1546.36 -2.86357 1543.56 Q-1.3358 1540.72 1.84705 1538.88 L-3.5638 1538.88 L-3.5638 1533.02 L45.6431 1533.02 L45.6431 1538.88 L26.737 1538.88 Z" fill="#000000" fill-rule="nonzero" fill-opacity="1" /><path clip-path="url(#clip560)" d="M18.0159 1521.56 L-3.5638 1521.56 L-3.5638 1515.71 L17.7931 1515.71 Q22.8539 1515.71 25.4002 1513.73 Q27.9146 1511.76 27.9146 1507.81 Q27.9146 1503.07 24.8909 1500.33 Q21.8672 1497.56 16.6473 1497.56 L-3.5638 1497.56 L-3.5638 1491.71 L32.0842 1491.71 L32.0842 1497.56 L26.6096 1497.56 Q29.8562 1499.7 31.4476 1502.53 Q33.0072 1505.33 33.0072 1509.05 Q33.0072 1515.2 29.1878 1518.38 Q25.3683 1521.56 18.0159 1521.56 M-4.42317 1506.83 L-4.42317 1506.83 Z" fill="#000000" fill-rule="nonzero" fill-opacity="1" /><path clip-path="url(#clip560)" d="M-3.5638 1479.65 L-3.5638 1473.79 L32.0842 1473.79 L32.0842 1479.65 L-3.5638 1479.65 M-17.441 1479.65 L-17.441 1473.79 L-10.025 1473.79 L-10.025 1479.65 L-17.441 1479.65 Z" fill="#000000" fill-rule="nonzero" fill-opacity="1" /><path clip-path="url(#clip560)" d="M-17.441 1461.53 L-17.441 1455.68 L32.0842 1455.68 L32.0842 1461.53 L-17.441 1461.53 Z" fill="#000000" fill-rule="nonzero" fill-opacity="1" /><path clip-path="url(#clip560)" d="M-3.5638 1443.42 L-3.5638 1437.57 L32.0842 1437.57 L32.0842 1443.42 L-3.5638 1443.42 M-17.441 1443.42 L-17.441 1437.57 L-10.025 1437.57 L-10.025 1443.42 L-17.441 1443.42 Z" fill="#000000" fill-rule="nonzero" fill-opacity="1" /><path clip-path="url(#clip560)" d="M14.292 1399.72 Q7.83082 1399.72 4.17053 1402.4 Q0.478424 1405.04 0.478424 1409.69 Q0.478424 1414.33 4.17053 1417.01 Q7.83082 1419.65 14.292 1419.65 Q20.7532 1419.65 24.4453 1417.01 Q28.1056 1414.33 28.1056 1409.69 Q28.1056 1405.04 24.4453 1402.4 Q20.7532 1399.72 14.292 1399.72 M1.84705 1419.65 Q-1.3358 1417.8 -2.86357 1415 Q-4.42317 1412.17 -4.42317 1408.25 Q-4.42317 1401.76 0.733052 1397.72 Q5.88927 1393.64 14.292 1393.64 Q22.6947 1393.64 27.851 1397.72 Q33.0072 1401.76 33.0072 1408.25 Q33.0072 1412.17 31.4794 1415 Q29.9198 1417.8 26.737 1419.65 L32.0842 1419.65 L32.0842 1425.54 L-17.441 1425.54 L-17.441 1419.65 L1.84705 1419.65 Z" fill="#000000" fill-rule="nonzero" fill-opacity="1" /><path clip-path="url(#clip560)" d="M1.91071 1363.28 Q1.33779 1364.27 1.08317 1365.44 Q0.796709 1366.59 0.796709 1367.99 Q0.796709 1372.96 4.04322 1375.63 Q7.2579 1378.27 13.3053 1378.27 L32.0842 1378.27 L32.0842 1384.16 L-3.5638 1384.16 L-3.5638 1378.27 L1.97437 1378.27 Q-1.27215 1376.43 -2.83174 1373.47 Q-4.42317 1370.51 -4.42317 1366.27 Q-4.42317 1365.67 -4.32768 1364.94 Q-4.26403 1364.2 -4.10488 1363.31 L1.91071 1363.28 Z" fill="#000000" fill-rule="nonzero" fill-opacity="1" /><path clip-path="url(#clip560)" d="M-3.5638 1357.14 L-3.5638 1351.28 L32.0842 1351.28 L32.0842 1357.14 L-3.5638 1357.14 M-17.441 1357.14 L-17.441 1351.28 L-10.025 1351.28 L-10.025 1357.14 L-17.441 1357.14 Z" fill="#000000" fill-rule="nonzero" fill-opacity="1" /><path clip-path="url(#clip560)" d="M18.0159 1339.63 L-3.5638 1339.63 L-3.5638 1333.78 L17.7931 1333.78 Q22.8539 1333.78 25.4002 1331.8 Q27.9146 1329.83 27.9146 1325.88 Q27.9146 1321.14 24.8909 1318.4 Q21.8672 1315.63 16.6473 1315.63 L-3.5638 1315.63 L-3.5638 1309.78 L32.0842 1309.78 L32.0842 1315.63 L26.6096 1315.63 Q29.8562 1317.77 31.4476 1320.6 Q33.0072 1323.4 33.0072 1327.12 Q33.0072 1333.27 29.1878 1336.45 Q25.3683 1339.63 18.0159 1339.63 M-4.42317 1324.89 L-4.42317 1324.89 Z" fill="#000000" fill-rule="nonzero" fill-opacity="1" /><path clip-path="url(#clip560)" d="M3.27933 1269.96 Q-0.667403 1267.76 -2.54529 1264.71 Q-4.42317 1261.65 -4.42317 1257.51 Q-4.42317 1251.94 -0.50826 1248.92 Q3.37482 1245.9 10.5681 1245.9 L32.0842 1245.9 L32.0842 1251.78 L10.759 1251.78 Q5.63465 1251.78 3.15202 1253.6 Q0.669395 1255.41 0.669395 1259.14 Q0.669395 1263.69 3.69311 1266.33 Q6.71682 1268.97 11.9367 1268.97 L32.0842 1268.97 L32.0842 1274.86 L10.759 1274.86 Q5.60282 1274.86 3.15202 1276.67 Q0.669395 1278.49 0.669395 1282.28 Q0.669395 1286.76 3.72493 1289.41 Q6.74865 1292.05 11.9367 1292.05 L32.0842 1292.05 L32.0842 1297.94 L-3.5638 1297.94 L-3.5638 1292.05 L1.97437 1292.05 Q-1.30397 1290.04 -2.86357 1287.24 Q-4.42317 1284.44 -4.42317 1280.59 Q-4.42317 1276.71 -2.4498 1274 Q-0.476432 1271.26 3.27933 1269.96 Z" fill="#000000" fill-rule="nonzero" fill-opacity="1" /><path clip-path="url(#clip560)" d="M1.84705 1190.04 L-17.441 1190.04 L-17.441 1184.18 L32.0842 1184.18 L32.0842 1190.04 L26.737 1190.04 Q29.9198 1191.88 31.4794 1194.72 Q33.0072 1197.52 33.0072 1201.46 Q33.0072 1207.93 27.851 1212 Q22.6947 1216.04 14.292 1216.04 Q5.88927 1216.04 0.733052 1212 Q-4.42317 1207.93 -4.42317 1201.46 Q-4.42317 1197.52 -2.86357 1194.72 Q-1.3358 1191.88 1.84705 1190.04 M14.292 1209.99 Q20.7532 1209.99 24.4453 1207.35 Q28.1056 1204.68 28.1056 1200.03 Q28.1056 1195.38 24.4453 1192.71 Q20.7532 1190.04 14.292 1190.04 Q7.83082 1190.04 4.17053 1192.71 Q0.478424 1195.38 0.478424 1200.03 Q0.478424 1204.68 4.17053 1207.35 Q7.83082 1209.99 14.292 1209.99 Z" fill="#000000" fill-rule="nonzero" fill-opacity="1" /><path clip-path="url(#clip560)" d="M-3.5638 1172.12 L-3.5638 1166.26 L32.0842 1166.26 L32.0842 1172.12 L-3.5638 1172.12 M-17.441 1172.12 L-17.441 1166.26 L-10.025 1166.26 L-10.025 1172.12 L-17.441 1172.12 Z" fill="#000000" fill-rule="nonzero" fill-opacity="1" /><path clip-path="url(#clip560)" d="M-2.51346 1131.28 L3.02471 1131.28 Q1.75157 1133.76 1.11499 1136.44 Q0.478424 1139.11 0.478424 1141.98 Q0.478424 1146.34 1.81522 1148.53 Q3.15202 1150.7 5.82562 1150.7 Q7.86264 1150.7 9.0403 1149.14 Q10.1861 1147.58 11.2365 1142.87 L11.6821 1140.86 Q13.0189 1134.62 15.4697 1132.01 Q17.8886 1129.37 22.2491 1129.37 Q27.2144 1129.37 30.1108 1133.32 Q33.0072 1137.23 33.0072 1144.11 Q33.0072 1146.97 32.4343 1150.09 Q31.8932 1153.18 30.7792 1156.62 L24.7318 1156.62 Q26.4187 1153.37 27.278 1150.22 Q28.1056 1147.07 28.1056 1143.98 Q28.1056 1139.84 26.7051 1137.62 Q25.2729 1135.39 22.6947 1135.39 Q20.3076 1135.39 19.0345 1137.01 Q17.7613 1138.6 16.5837 1144.05 L16.1062 1146.08 Q14.9604 1151.52 12.6051 1153.94 Q10.218 1156.36 6.08025 1156.36 Q1.05134 1156.36 -1.68592 1152.8 Q-4.42317 1149.23 -4.42317 1142.68 Q-4.42317 1139.43 -3.94574 1136.57 Q-3.46831 1133.7 -2.51346 1131.28 Z" fill="#000000" fill-rule="nonzero" fill-opacity="1" /><path clip-path="url(#clip560)" d="M-2.51346 1097.32 L3.02471 1097.32 Q1.75157 1099.8 1.11499 1102.48 Q0.478424 1105.15 0.478424 1108.02 Q0.478424 1112.38 1.81522 1114.57 Q3.15202 1116.74 5.82562 1116.74 Q7.86264 1116.74 9.0403 1115.18 Q10.1861 1113.62 11.2365 1108.91 L11.6821 1106.9 Q13.0189 1100.66 15.4697 1098.05 Q17.8886 1095.41 22.2491 1095.41 Q27.2144 1095.41 30.1108 1099.36 Q33.0072 1103.27 33.0072 1110.15 Q33.0072 1113.01 32.4343 1116.13 Q31.8932 1119.22 30.7792 1122.66 L24.7318 1122.66 Q26.4187 1119.41 27.278 1116.26 Q28.1056 1113.11 28.1056 1110.02 Q28.1056 1105.88 26.7051 1103.65 Q25.2729 1101.43 22.6947 1101.43 Q20.3076 1101.43 19.0345 1103.05 Q17.7613 1104.64 16.5837 1110.08 L16.1062 1112.12 Q14.9604 1117.56 12.6051 1119.98 Q10.218 1122.4 6.08025 1122.4 Q1.05134 1122.4 -1.68592 1118.84 Q-4.42317 1115.27 -4.42317 1108.72 Q-4.42317 1105.47 -3.94574 1102.6 Q-3.46831 1099.74 -2.51346 1097.32 Z" fill="#000000" fill-rule="nonzero" fill-opacity="1" /><path clip-path="url(#clip560)" d="M-3.5638 1086.09 L-3.5638 1080.23 L32.0842 1080.23 L32.0842 1086.09 L-3.5638 1086.09 M-17.441 1086.09 L-17.441 1080.23 L-10.025 1080.23 L-10.025 1086.09 L-17.441 1086.09 Z" fill="#000000" fill-rule="nonzero" fill-opacity="1" /><path clip-path="url(#clip560)" d="M3.27933 1040.22 Q-0.667403 1038.02 -2.54529 1034.97 Q-4.42317 1031.91 -4.42317 1027.78 Q-4.42317 1022.21 -0.50826 1019.18 Q3.37482 1016.16 10.5681 1016.16 L32.0842 1016.16 L32.0842 1022.05 L10.759 1022.05 Q5.63465 1022.05 3.15202 1023.86 Q0.669395 1025.67 0.669395 1029.4 Q0.669395 1033.95 3.69311 1036.59 Q6.71682 1039.23 11.9367 1039.23 L32.0842 1039.23 L32.0842 1045.12 L10.759 1045.12 Q5.60282 1045.12 3.15202 1046.94 Q0.669395 1048.75 0.669395 1052.54 Q0.669395 1057.03 3.72493 1059.67 Q6.74865 1062.31 11.9367 1062.31 L32.0842 1062.31 L32.0842 1068.2 L-3.5638 1068.2 L-3.5638 1062.31 L1.97437 1062.31 Q-1.30397 1060.3 -2.86357 1057.5 Q-4.42317 1054.7 -4.42317 1050.85 Q-4.42317 1046.97 -2.4498 1044.26 Q-0.476432 1041.53 3.27933 1040.22 Z" fill="#000000" fill-rule="nonzero" fill-opacity="1" /><path clip-path="url(#clip560)" d="M-3.5638 1004.48 L-3.5638 998.621 L32.0842 998.621 L32.0842 1004.48 L-3.5638 1004.48 M-17.441 1004.48 L-17.441 998.621 L-10.025 998.621 L-10.025 1004.48 L-17.441 1004.48 Z" fill="#000000" fill-rule="nonzero" fill-opacity="1" /><path clip-path="url(#clip560)" d="M-17.441 986.367 L-17.441 980.51 L32.0842 980.51 L32.0842 986.367 L-17.441 986.367 Z" fill="#000000" fill-rule="nonzero" fill-opacity="1" /><path clip-path="url(#clip560)" d="M14.1647 952.055 Q14.1647 959.153 15.7879 961.891 Q17.4112 964.628 21.3261 964.628 Q24.4453 964.628 26.2914 962.591 Q28.1056 960.522 28.1056 956.989 Q28.1056 952.119 24.6681 949.191 Q21.1988 946.231 15.4697 946.231 L14.1647 946.231 L14.1647 952.055 M11.7457 940.374 L32.0842 940.374 L32.0842 946.231 L26.6733 946.231 Q29.9198 948.236 31.4794 951.228 Q33.0072 954.22 33.0072 958.549 Q33.0072 964.023 29.9516 967.27 Q26.8643 970.484 21.7081 970.484 Q15.6925 970.484 12.6369 966.474 Q9.58138 962.432 9.58138 954.443 L9.58138 946.231 L9.00847 946.231 Q4.96625 946.231 2.77008 948.904 Q0.542081 951.546 0.542081 956.352 Q0.542081 959.408 1.27414 962.304 Q2.00619 965.201 3.47031 967.874 L-1.94054 967.874 Q-3.18186 964.66 -3.7866 961.636 Q-4.42317 958.612 -4.42317 955.748 Q-4.42317 948.013 -0.412775 944.194 Q3.59762 940.374 11.7457 940.374 Z" fill="#000000" fill-rule="nonzero" fill-opacity="1" /><path clip-path="url(#clip560)" d="M1.91071 907.655 Q1.33779 908.641 1.08317 909.819 Q0.796709 910.965 0.796709 912.365 Q0.796709 917.331 4.04322 920.004 Q7.2579 922.646 13.3053 922.646 L32.0842 922.646 L32.0842 928.534 L-3.5638 928.534 L-3.5638 922.646 L1.97437 922.646 Q-1.27215 920.8 -2.83174 917.84 Q-4.42317 914.88 -4.42317 910.647 Q-4.42317 910.042 -4.32768 909.31 Q-4.26403 908.578 -4.10488 907.687 L1.91071 907.655 Z" fill="#000000" fill-rule="nonzero" fill-opacity="1" /><path clip-path="url(#clip560)" d="M-3.5638 901.512 L-3.5638 895.655 L32.0842 895.655 L32.0842 901.512 L-3.5638 901.512 M-17.441 901.512 L-17.441 895.655 L-10.025 895.655 L-10.025 901.512 L-17.441 901.512 Z" fill="#000000" fill-rule="nonzero" fill-opacity="1" /><path clip-path="url(#clip560)" d="M-13.6853 877.609 L-3.5638 877.609 L-3.5638 865.546 L0.987681 865.546 L0.987681 877.609 L20.3394 877.609 Q24.6999 877.609 25.9413 876.431 Q27.1826 875.221 27.1826 871.561 L27.1826 865.546 L32.0842 865.546 L32.0842 871.561 Q32.0842 878.341 29.5697 880.919 Q27.0234 883.497 20.3394 883.497 L0.987681 883.497 L0.987681 887.794 L-3.5638 887.794 L-3.5638 883.497 L-13.6853 883.497 L-13.6853 877.609 Z" fill="#000000" fill-rule="nonzero" fill-opacity="1" /><path clip-path="url(#clip560)" d="M35.3943 843.011 Q41.76 845.494 43.7016 847.849 Q45.6431 850.204 45.6431 854.151 L45.6431 858.83 L40.7415 858.83 L40.7415 855.392 Q40.7415 852.973 39.5957 851.636 Q38.4499 850.3 34.1848 848.676 L31.5112 847.626 L-3.5638 862.044 L-3.5638 855.838 L24.318 844.698 L-3.5638 833.558 L-3.5638 827.351 L35.3943 843.011 Z" fill="#000000" fill-rule="nonzero" fill-opacity="1" /><path clip-path="url(#clip560)" d="M-17.3774 784.478 Q-10.0568 788.743 -2.8954 790.812 Q4.26602 792.881 11.6184 792.881 Q18.9708 792.881 26.1959 790.812 Q33.3891 788.711 40.6779 784.478 L40.6779 789.571 Q33.1982 794.345 25.9731 796.732 Q18.748 799.088 11.6184 799.088 Q4.52065 799.088 -2.6726 796.732 Q-9.86585 794.377 -17.3774 789.571 L-17.3774 784.478 Z" fill="#000000" fill-rule="nonzero" fill-opacity="1" /><path clip-path="url(#clip560)" d="M-13.6853 767.323 L-3.5638 767.323 L-3.5638 755.26 L0.987681 755.26 L0.987681 767.323 L20.3394 767.323 Q24.6999 767.323 25.9413 766.145 Q27.1826 764.936 27.1826 761.275 L27.1826 755.26 L32.0842 755.26 L32.0842 761.275 Q32.0842 768.055 29.5697 770.633 Q27.0234 773.211 20.3394 773.211 L0.987681 773.211 L0.987681 777.508 L-3.5638 777.508 L-3.5638 773.211 L-13.6853 773.211 L-13.6853 767.323 Z" fill="#000000" fill-rule="nonzero" fill-opacity="1" /><path clip-path="url(#clip560)" d="M10.5681 717.925 L32.0842 717.925 L32.0842 723.781 L10.759 723.781 Q5.6983 723.781 3.18385 725.755 Q0.669395 727.728 0.669395 731.675 Q0.669395 736.417 3.69311 739.154 Q6.71682 741.892 11.9367 741.892 L32.0842 741.892 L32.0842 747.78 L-17.441 747.78 L-17.441 741.892 L1.97437 741.892 Q-1.24032 739.791 -2.83174 736.958 Q-4.42317 734.094 -4.42317 730.37 Q-4.42317 724.227 -0.603746 721.076 Q3.18385 717.925 10.5681 717.925 Z" fill="#000000" fill-rule="nonzero" fill-opacity="1" /><path clip-path="url(#clip560)" d="M1.91071 685.587 Q1.33779 686.574 1.08317 687.751 Q0.796709 688.897 0.796709 690.298 Q0.796709 695.263 4.04322 697.936 Q7.2579 700.578 13.3053 700.578 L32.0842 700.578 L32.0842 706.467 L-3.5638 706.467 L-3.5638 700.578 L1.97437 700.578 Q-1.27215 698.732 -2.83174 695.772 Q-4.42317 692.812 -4.42317 688.579 Q-4.42317 687.974 -4.32768 687.242 Q-4.26403 686.51 -4.10488 685.619 L1.91071 685.587 Z" fill="#000000" fill-rule="nonzero" fill-opacity="1" /><path clip-path="url(#clip560)" d="M12.7961 650.385 L15.6606 650.385 L15.6606 677.312 Q21.7081 676.93 24.8909 673.683 Q28.0419 670.405 28.0419 664.58 Q28.0419 661.206 27.2144 658.055 Q26.3869 654.872 24.7318 651.753 L30.2699 651.753 Q31.6067 654.904 32.307 658.214 Q33.0072 661.525 33.0072 664.93 Q33.0072 673.46 28.0419 678.457 Q23.0767 683.423 14.6103 683.423 Q5.85745 683.423 0.733052 678.712 Q-4.42317 673.97 -4.42317 665.949 Q-4.42317 658.756 0.223796 654.586 Q4.83893 650.385 12.7961 650.385 M11.0773 656.241 Q6.27122 656.305 3.40665 658.947 Q0.542081 661.556 0.542081 665.885 Q0.542081 670.787 3.31116 673.747 Q6.08025 676.675 11.1092 677.121 L11.0773 656.241 Z" fill="#000000" fill-rule="nonzero" fill-opacity="1" /><path clip-path="url(#clip560)" d="M12.7961 610.281 L15.6606 610.281 L15.6606 637.208 Q21.7081 636.826 24.8909 633.579 Q28.0419 630.301 28.0419 624.476 Q28.0419 621.102 27.2144 617.951 Q26.3869 614.769 24.7318 611.649 L30.2699 611.649 Q31.6067 614.8 32.307 618.111 Q33.0072 621.421 33.0072 624.826 Q33.0072 633.356 28.0419 638.353 Q23.0767 643.319 14.6103 643.319 Q5.85745 643.319 0.733052 638.608 Q-4.42317 633.866 -4.42317 625.845 Q-4.42317 618.652 0.223796 614.482 Q4.83893 610.281 12.7961 610.281 M11.0773 616.137 Q6.27122 616.201 3.40665 618.843 Q0.542081 621.453 0.542081 625.781 Q0.542081 630.683 3.31116 633.643 Q6.08025 636.571 11.1092 637.017 L11.0773 616.137 Z" fill="#000000" fill-rule="nonzero" fill-opacity="1" /><path clip-path="url(#clip560)" d="M13.8464 556.49 Q7.4807 556.49 3.97956 559.132 Q0.478424 561.742 0.478424 566.485 Q0.478424 571.195 3.97956 573.837 Q7.4807 576.447 13.8464 576.447 Q20.1803 576.447 23.6814 573.837 Q27.1826 571.195 27.1826 566.485 Q27.1826 561.742 23.6814 559.132 Q20.1803 556.49 13.8464 556.49 M27.66 550.634 Q36.763 550.634 41.1871 554.676 Q45.6431 558.718 45.6431 567.058 Q45.6431 570.145 45.1657 572.882 Q44.7201 575.619 43.7652 578.198 L38.0679 578.198 Q39.4684 575.619 40.1368 573.105 Q40.8052 570.591 40.8052 567.981 Q40.8052 562.22 37.7815 559.355 Q34.7896 556.49 28.7103 556.49 L25.8139 556.49 Q28.965 558.305 30.5246 561.137 Q32.0842 563.97 32.0842 567.917 Q32.0842 574.474 27.0871 578.484 Q22.09 582.494 13.8464 582.494 Q5.57099 582.494 0.57391 578.484 Q-4.42317 574.474 -4.42317 567.917 Q-4.42317 563.97 -2.86357 561.137 Q-1.30397 558.305 1.84705 556.49 L-3.5638 556.49 L-3.5638 550.634 L27.66 550.634 Z" fill="#000000" fill-rule="nonzero" fill-opacity="1" /><path clip-path="url(#clip560)" d="M1.91071 517.914 Q1.33779 518.901 1.08317 520.079 Q0.796709 521.224 0.796709 522.625 Q0.796709 527.59 4.04322 530.264 Q7.2579 532.906 13.3053 532.906 L32.0842 532.906 L32.0842 538.794 L-3.5638 538.794 L-3.5638 532.906 L1.97437 532.906 Q-1.27215 531.059 -2.83174 528.099 Q-4.42317 525.139 -4.42317 520.906 Q-4.42317 520.301 -4.32768 519.569 Q-4.26403 518.837 -4.10488 517.946 L1.91071 517.914 Z" fill="#000000" fill-rule="nonzero" fill-opacity="1" /><path clip-path="url(#clip560)" d="M0.542081 499.39 Q0.542081 504.101 4.23419 506.838 Q7.89447 509.575 14.292 509.575 Q20.6895 509.575 24.3817 506.87 Q28.0419 504.133 28.0419 499.39 Q28.0419 494.711 24.3498 491.974 Q20.6577 489.237 14.292 489.237 Q7.95813 489.237 4.26602 491.974 Q0.542081 494.711 0.542081 499.39 M-4.42317 499.39 Q-4.42317 491.751 0.542081 487.391 Q5.50733 483.03 14.292 483.03 Q23.0449 483.03 28.0419 487.391 Q33.0072 491.751 33.0072 499.39 Q33.0072 507.061 28.0419 511.421 Q23.0449 515.75 14.292 515.75 Q5.50733 515.75 0.542081 511.421 Q-4.42317 507.061 -4.42317 499.39 Z" fill="#000000" fill-rule="nonzero" fill-opacity="1" /><path clip-path="url(#clip560)" d="M18.0159 473.927 L-3.5638 473.927 L-3.5638 468.071 L17.7931 468.071 Q22.8539 468.071 25.4002 466.097 Q27.9146 464.124 27.9146 460.177 Q27.9146 455.435 24.8909 452.698 Q21.8672 449.929 16.6473 449.929 L-3.5638 449.929 L-3.5638 444.072 L32.0842 444.072 L32.0842 449.929 L26.6096 449.929 Q29.8562 452.061 31.4476 454.894 Q33.0072 457.695 33.0072 461.419 Q33.0072 467.562 29.1878 470.744 Q25.3683 473.927 18.0159 473.927 M-4.42317 459.191 L-4.42317 459.191 Z" fill="#000000" fill-rule="nonzero" fill-opacity="1" /><path clip-path="url(#clip560)" d="M26.737 426.344 L45.6431 426.344 L45.6431 432.232 L-3.5638 432.232 L-3.5638 426.344 L1.84705 426.344 Q-1.3358 424.498 -2.86357 421.697 Q-4.42317 418.864 -4.42317 414.949 Q-4.42317 408.456 0.733052 404.414 Q5.88927 400.34 14.292 400.34 Q22.6947 400.34 27.851 404.414 Q33.0072 408.456 33.0072 414.949 Q33.0072 418.864 31.4794 421.697 Q29.9198 424.498 26.737 426.344 M14.292 406.419 Q7.83082 406.419 4.17053 409.093 Q0.478424 411.734 0.478424 416.381 Q0.478424 421.028 4.17053 423.702 Q7.83082 426.344 14.292 426.344 Q20.7532 426.344 24.4453 423.702 Q28.1056 421.028 28.1056 416.381 Q28.1056 411.734 24.4453 409.093 Q20.7532 406.419 14.292 406.419 Z" fill="#000000" fill-rule="nonzero" fill-opacity="1" /><path clip-path="url(#clip560)" d="M-2.51346 367.906 L3.02471 367.906 Q1.75157 370.389 1.11499 373.063 Q0.478424 375.736 0.478424 378.601 Q0.478424 382.961 1.81522 385.157 Q3.15202 387.322 5.82562 387.322 Q7.86264 387.322 9.0403 385.762 Q10.1861 384.203 11.2365 379.492 L11.6821 377.487 Q13.0189 371.248 15.4697 368.638 Q17.8886 365.997 22.2491 365.997 Q27.2144 365.997 30.1108 369.943 Q33.0072 373.858 33.0072 380.733 Q33.0072 383.598 32.4343 386.717 Q31.8932 389.804 30.7792 393.242 L24.7318 393.242 Q26.4187 389.995 27.278 386.844 Q28.1056 383.693 28.1056 380.606 Q28.1056 376.468 26.7051 374.24 Q25.2729 372.012 22.6947 372.012 Q20.3076 372.012 19.0345 373.636 Q17.7613 375.227 16.5837 380.67 L16.1062 382.707 Q14.9604 388.149 12.6051 390.568 Q10.218 392.987 6.08025 392.987 Q1.05134 392.987 -1.68592 389.423 Q-4.42317 385.858 -4.42317 379.301 Q-4.42317 376.055 -3.94574 373.19 Q-3.46831 370.325 -2.51346 367.906 Z" fill="#000000" fill-rule="nonzero" fill-opacity="1" /><path clip-path="url(#clip560)" d="M-17.3774 357.594 L-17.3774 352.501 Q-9.86585 347.727 -2.6726 345.372 Q4.52065 342.985 11.6184 342.985 Q18.748 342.985 25.9731 345.372 Q33.1982 347.727 40.6779 352.501 L40.6779 357.594 Q33.3891 353.361 26.1959 351.292 Q18.9708 349.191 11.6184 349.191 Q4.26602 349.191 -2.8954 351.292 Q-10.0568 353.361 -17.3774 357.594 Z" fill="#000000" fill-rule="nonzero" fill-opacity="1" /><path clip-path="url(#clip560)" d="M929.919 12.096 L968.159 12.096 L968.159 18.9825 L938.102 18.9825 L938.102 36.8875 L966.903 36.8875 L966.903 43.7741 L938.102 43.7741 L938.102 65.6895 L968.888 65.6895 L968.888 72.576 L929.919 72.576 L929.919 12.096 Z" fill="#000000" fill-rule="nonzero" fill-opacity="1" /><path clip-path="url(#clip560)" d="M986.469 49.9314 Q986.469 58.1548 989.832 62.8538 Q993.234 67.5124 999.149 67.5124 Q1005.06 67.5124 1008.47 62.8538 Q1011.87 58.1548 1011.87 49.9314 Q1011.87 41.7081 1008.47 37.0496 Q1005.06 32.3505 999.149 32.3505 Q993.234 32.3505 989.832 37.0496 Q986.469 41.7081 986.469 49.9314 M1011.87 65.7705 Q1009.52 69.8214 1005.91 71.8063 Q1002.35 73.7508 997.326 73.7508 Q989.102 73.7508 983.917 67.1883 Q978.773 60.6258 978.773 49.9314 Q978.773 39.2371 983.917 32.6746 Q989.102 26.1121 997.326 26.1121 Q1002.35 26.1121 1005.91 28.0971 Q1009.52 30.0415 1011.87 34.0924 L1011.87 27.2059 L1019.32 27.2059 L1019.32 89.8329 L1011.87 89.8329 L1011.87 65.7705 Z" fill="#000000" fill-rule="nonzero" fill-opacity="1" /><path clip-path="url(#clip560)" d="M1033.91 54.671 L1033.91 27.2059 L1041.36 27.2059 L1041.36 54.3874 Q1041.36 60.8284 1043.87 64.0691 Q1046.38 67.2693 1051.41 67.2693 Q1057.44 67.2693 1060.92 63.421 Q1064.45 59.5726 1064.45 52.9291 L1064.45 27.2059 L1071.9 27.2059 L1071.9 72.576 L1064.45 72.576 L1064.45 65.6084 Q1061.74 69.7404 1058.13 71.7658 Q1054.57 73.7508 1049.83 73.7508 Q1042.01 73.7508 1037.96 68.8897 Q1033.91 64.0286 1033.91 54.671 M1052.66 26.1121 L1052.66 26.1121 Z" fill="#000000" fill-rule="nonzero" fill-opacity="1" /><path clip-path="url(#clip560)" d="M1087.26 27.2059 L1094.71 27.2059 L1094.71 72.576 L1087.26 72.576 L1087.26 27.2059 M1087.26 9.54393 L1094.71 9.54393 L1094.71 18.9825 L1087.26 18.9825 L1087.26 9.54393 Z" fill="#000000" fill-rule="nonzero" fill-opacity="1" /><path clip-path="url(#clip560)" d="M1110.31 9.54393 L1117.76 9.54393 L1117.76 72.576 L1110.31 72.576 L1110.31 9.54393 Z" fill="#000000" fill-rule="nonzero" fill-opacity="1" /><path clip-path="url(#clip560)" d="M1133.36 27.2059 L1140.81 27.2059 L1140.81 72.576 L1133.36 72.576 L1133.36 27.2059 M1133.36 9.54393 L1140.81 9.54393 L1140.81 18.9825 L1133.36 18.9825 L1133.36 9.54393 Z" fill="#000000" fill-rule="nonzero" fill-opacity="1" /><path clip-path="url(#clip560)" d="M1188.97 49.9314 Q1188.97 41.7081 1185.57 37.0496 Q1182.21 32.3505 1176.29 32.3505 Q1170.38 32.3505 1166.98 37.0496 Q1163.62 41.7081 1163.62 49.9314 Q1163.62 58.1548 1166.98 62.8538 Q1170.38 67.5124 1176.29 67.5124 Q1182.21 67.5124 1185.57 62.8538 Q1188.97 58.1548 1188.97 49.9314 M1163.62 34.0924 Q1165.96 30.0415 1169.53 28.0971 Q1173.14 26.1121 1178.12 26.1121 Q1186.38 26.1121 1191.53 32.6746 Q1196.71 39.2371 1196.71 49.9314 Q1196.71 60.6258 1191.53 67.1883 Q1186.38 73.7508 1178.12 73.7508 Q1173.14 73.7508 1169.53 71.8063 Q1165.96 69.8214 1163.62 65.7705 L1163.62 72.576 L1156.12 72.576 L1156.12 9.54393 L1163.62 9.54393 L1163.62 34.0924 Z" fill="#000000" fill-rule="nonzero" fill-opacity="1" /><path clip-path="url(#clip560)" d="M1235.36 34.1734 Q1234.1 33.4443 1232.6 33.1202 Q1231.14 32.7556 1229.36 32.7556 Q1223.04 32.7556 1219.64 36.8875 Q1216.28 40.9789 1216.28 48.6757 L1216.28 72.576 L1208.78 72.576 L1208.78 27.2059 L1216.28 27.2059 L1216.28 34.2544 Q1218.63 30.1225 1222.39 28.1376 Q1226.16 26.1121 1231.55 26.1121 Q1232.32 26.1121 1233.25 26.2337 Q1234.18 26.3147 1235.32 26.5172 L1235.36 34.1734 Z" fill="#000000" fill-rule="nonzero" fill-opacity="1" /><path clip-path="url(#clip560)" d="M1243.18 27.2059 L1250.63 27.2059 L1250.63 72.576 L1243.18 72.576 L1243.18 27.2059 M1243.18 9.54393 L1250.63 9.54393 L1250.63 18.9825 L1243.18 18.9825 L1243.18 9.54393 Z" fill="#000000" fill-rule="nonzero" fill-opacity="1" /><path clip-path="url(#clip560)" d="M1265.46 54.671 L1265.46 27.2059 L1272.91 27.2059 L1272.91 54.3874 Q1272.91 60.8284 1275.42 64.0691 Q1277.93 67.2693 1282.96 67.2693 Q1288.99 67.2693 1292.47 63.421 Q1296 59.5726 1296 52.9291 L1296 27.2059 L1303.45 27.2059 L1303.45 72.576 L1296 72.576 L1296 65.6084 Q1293.28 69.7404 1289.68 71.7658 Q1286.11 73.7508 1281.38 73.7508 Q1273.56 73.7508 1269.51 68.8897 Q1265.46 64.0286 1265.46 54.671 M1284.21 26.1121 L1284.21 26.1121 Z" fill="#000000" fill-rule="nonzero" fill-opacity="1" /><path clip-path="url(#clip560)" d="M1354.13 35.9153 Q1356.92 30.8922 1360.81 28.5022 Q1364.7 26.1121 1369.97 26.1121 Q1377.06 26.1121 1380.91 31.0947 Q1384.75 36.0368 1384.75 45.1919 L1384.75 72.576 L1377.26 72.576 L1377.26 45.4349 Q1377.26 38.913 1374.95 35.7533 Q1372.64 32.5936 1367.9 32.5936 Q1362.11 32.5936 1358.75 36.4419 Q1355.39 40.2903 1355.39 46.9338 L1355.39 72.576 L1347.89 72.576 L1347.89 45.4349 Q1347.89 38.8725 1345.58 35.7533 Q1343.27 32.5936 1338.45 32.5936 Q1332.74 32.5936 1329.38 36.4824 Q1326.02 40.3308 1326.02 46.9338 L1326.02 72.576 L1318.52 72.576 L1318.52 27.2059 L1326.02 27.2059 L1326.02 34.2544 Q1328.57 30.082 1332.13 28.0971 Q1335.7 26.1121 1340.6 26.1121 Q1345.54 26.1121 1348.98 28.6237 Q1352.47 31.1352 1354.13 35.9153 Z" fill="#000000" fill-rule="nonzero" fill-opacity="1" /><path clip-path="url(#clip560)" d="M1455.85 34.0924 L1455.85 9.54393 L1463.3 9.54393 L1463.3 72.576 L1455.85 72.576 L1455.85 65.7705 Q1453.5 69.8214 1449.89 71.8063 Q1446.33 73.7508 1441.3 73.7508 Q1433.08 73.7508 1427.9 67.1883 Q1422.75 60.6258 1422.75 49.9314 Q1422.75 39.2371 1427.9 32.6746 Q1433.08 26.1121 1441.3 26.1121 Q1446.33 26.1121 1449.89 28.0971 Q1453.5 30.0415 1455.85 34.0924 M1430.45 49.9314 Q1430.45 58.1548 1433.81 62.8538 Q1437.21 67.5124 1443.13 67.5124 Q1449.04 67.5124 1452.44 62.8538 Q1455.85 58.1548 1455.85 49.9314 Q1455.85 41.7081 1452.44 37.0496 Q1449.04 32.3505 1443.13 32.3505 Q1437.21 32.3505 1433.81 37.0496 Q1430.45 41.7081 1430.45 49.9314 Z" fill="#000000" fill-rule="nonzero" fill-opacity="1" /><path clip-path="url(#clip560)" d="M1478.65 27.2059 L1486.11 27.2059 L1486.11 72.576 L1478.65 72.576 L1478.65 27.2059 M1478.65 9.54393 L1486.11 9.54393 L1486.11 18.9825 L1478.65 18.9825 L1478.65 9.54393 Z" fill="#000000" fill-rule="nonzero" fill-opacity="1" /><path clip-path="url(#clip560)" d="M1530.63 28.5427 L1530.63 35.5912 Q1527.47 33.9709 1524.06 33.1607 Q1520.66 32.3505 1517.02 32.3505 Q1511.47 32.3505 1508.67 34.0519 Q1505.92 35.7533 1505.92 39.156 Q1505.92 41.7486 1507.9 43.2475 Q1509.89 44.7058 1515.88 46.0426 L1518.43 46.6097 Q1526.37 48.3111 1529.7 51.4303 Q1533.06 54.509 1533.06 60.0587 Q1533.06 66.3781 1528.03 70.0644 Q1523.05 73.7508 1514.3 73.7508 Q1510.66 73.7508 1506.69 73.0216 Q1502.76 72.3329 1498.38 70.9151 L1498.38 63.2184 Q1502.51 65.3654 1506.52 66.4591 Q1510.53 67.5124 1514.46 67.5124 Q1519.73 67.5124 1522.57 65.73 Q1525.4 63.9071 1525.4 60.6258 Q1525.4 57.5877 1523.34 55.9673 Q1521.31 54.3469 1514.38 52.8481 L1511.79 52.2405 Q1504.86 50.7821 1501.78 47.7845 Q1498.71 44.7463 1498.71 39.4801 Q1498.71 33.0797 1503.24 29.5959 Q1507.78 26.1121 1516.13 26.1121 Q1520.26 26.1121 1523.9 26.7198 Q1527.55 27.3274 1530.63 28.5427 Z" fill="#000000" fill-rule="nonzero" fill-opacity="1" /><path clip-path="url(#clip560)" d="M1573.85 28.5427 L1573.85 35.5912 Q1570.69 33.9709 1567.29 33.1607 Q1563.89 32.3505 1560.24 32.3505 Q1554.69 32.3505 1551.89 34.0519 Q1549.14 35.7533 1549.14 39.156 Q1549.14 41.7486 1551.12 43.2475 Q1553.11 44.7058 1559.11 46.0426 L1561.66 46.6097 Q1569.6 48.3111 1572.92 51.4303 Q1576.28 54.509 1576.28 60.0587 Q1576.28 66.3781 1571.26 70.0644 Q1566.28 73.7508 1557.53 73.7508 Q1553.88 73.7508 1549.91 73.0216 Q1545.98 72.3329 1541.61 70.9151 L1541.61 63.2184 Q1545.74 65.3654 1549.75 66.4591 Q1553.76 67.5124 1557.69 67.5124 Q1562.95 67.5124 1565.79 65.73 Q1568.62 63.9071 1568.62 60.6258 Q1568.62 57.5877 1566.56 55.9673 Q1564.53 54.3469 1557.61 52.8481 L1555.01 52.2405 Q1548.09 50.7821 1545.01 47.7845 Q1541.93 44.7463 1541.93 39.4801 Q1541.93 33.0797 1546.47 29.5959 Q1551 26.1121 1559.35 26.1121 Q1563.48 26.1121 1567.13 26.7198 Q1570.77 27.3274 1573.85 28.5427 Z" fill="#000000" fill-rule="nonzero" fill-opacity="1" /><path clip-path="url(#clip560)" d="M1588.15 27.2059 L1595.6 27.2059 L1595.6 72.576 L1588.15 72.576 L1588.15 27.2059 M1588.15 9.54393 L1595.6 9.54393 L1595.6 18.9825 L1588.15 18.9825 L1588.15 9.54393 Z" fill="#000000" fill-rule="nonzero" fill-opacity="1" /><path clip-path="url(#clip560)" d="M1646.52 35.9153 Q1649.32 30.8922 1653.21 28.5022 Q1657.1 26.1121 1662.36 26.1121 Q1669.45 26.1121 1673.3 31.0947 Q1677.15 36.0368 1677.15 45.1919 L1677.15 72.576 L1669.65 72.576 L1669.65 45.4349 Q1669.65 38.913 1667.35 35.7533 Q1665.04 32.5936 1660.3 32.5936 Q1654.5 32.5936 1651.14 36.4419 Q1647.78 40.2903 1647.78 46.9338 L1647.78 72.576 L1640.29 72.576 L1640.29 45.4349 Q1640.29 38.8725 1637.98 35.7533 Q1635.67 32.5936 1630.85 32.5936 Q1625.13 32.5936 1621.77 36.4824 Q1618.41 40.3308 1618.41 46.9338 L1618.41 72.576 L1610.92 72.576 L1610.92 27.2059 L1618.41 27.2059 L1618.41 34.2544 Q1620.96 30.082 1624.53 28.0971 Q1628.09 26.1121 1632.99 26.1121 Q1637.94 26.1121 1641.38 28.6237 Q1644.86 31.1352 1646.52 35.9153 Z" fill="#000000" fill-rule="nonzero" fill-opacity="1" /><path clip-path="url(#clip560)" d="M1692.02 27.2059 L1699.47 27.2059 L1699.47 72.576 L1692.02 72.576 L1692.02 27.2059 M1692.02 9.54393 L1699.47 9.54393 L1699.47 18.9825 L1692.02 18.9825 L1692.02 9.54393 Z" fill="#000000" fill-rule="nonzero" fill-opacity="1" /><path clip-path="url(#clip560)" d="M1715.06 9.54393 L1722.52 9.54393 L1722.52 72.576 L1715.06 72.576 L1715.06 9.54393 Z" fill="#000000" fill-rule="nonzero" fill-opacity="1" /><path clip-path="url(#clip560)" d="M1758.73 49.7694 Q1749.7 49.7694 1746.22 51.8354 Q1742.73 53.9013 1742.73 58.8839 Q1742.73 62.8538 1745.33 65.2034 Q1747.96 67.5124 1752.45 67.5124 Q1758.65 67.5124 1762.38 63.1374 Q1766.15 58.7219 1766.15 51.4303 L1766.15 49.7694 L1758.73 49.7694 M1773.6 46.6907 L1773.6 72.576 L1766.15 72.576 L1766.15 65.6895 Q1763.59 69.8214 1759.79 71.8063 Q1755.98 73.7508 1750.47 73.7508 Q1743.5 73.7508 1739.37 69.8619 Q1735.28 65.9325 1735.28 59.3701 Q1735.28 51.7138 1740.38 47.825 Q1745.53 43.9361 1755.7 43.9361 L1766.15 43.9361 L1766.15 43.2069 Q1766.15 38.0623 1762.74 35.2672 Q1759.38 32.4315 1753.27 32.4315 Q1749.38 32.4315 1745.69 33.3632 Q1742 34.295 1738.6 36.1584 L1738.6 29.2718 Q1742.69 27.692 1746.54 26.9223 Q1750.39 26.1121 1754.03 26.1121 Q1763.88 26.1121 1768.74 31.2163 Q1773.6 36.3204 1773.6 46.6907 Z" fill="#000000" fill-rule="nonzero" fill-opacity="1" /><path clip-path="url(#clip560)" d="M1815.24 34.1734 Q1813.99 33.4443 1812.49 33.1202 Q1811.03 32.7556 1809.25 32.7556 Q1802.93 32.7556 1799.53 36.8875 Q1796.16 40.9789 1796.16 48.6757 L1796.16 72.576 L1788.67 72.576 L1788.67 27.2059 L1796.16 27.2059 L1796.16 34.2544 Q1798.51 30.1225 1802.28 28.1376 Q1806.05 26.1121 1811.44 26.1121 Q1812.21 26.1121 1813.14 26.2337 Q1814.07 26.3147 1815.2 26.5172 L1815.24 34.1734 Z" fill="#000000" fill-rule="nonzero" fill-opacity="1" /><path clip-path="url(#clip560)" d="M1823.06 27.2059 L1830.52 27.2059 L1830.52 72.576 L1823.06 72.576 L1823.06 27.2059 M1823.06 9.54393 L1830.52 9.54393 L1830.52 18.9825 L1823.06 18.9825 L1823.06 9.54393 Z" fill="#000000" fill-rule="nonzero" fill-opacity="1" /><path clip-path="url(#clip560)" d="M1853.48 14.324 L1853.48 27.2059 L1868.84 27.2059 L1868.84 32.9987 L1853.48 32.9987 L1853.48 57.6282 Q1853.48 63.1779 1854.98 64.7578 Q1856.52 66.3376 1861.18 66.3376 L1868.84 66.3376 L1868.84 72.576 L1861.18 72.576 Q1852.55 72.576 1849.27 69.3758 Q1845.99 66.1351 1845.99 57.6282 L1845.99 32.9987 L1840.52 32.9987 L1840.52 27.2059 L1845.99 27.2059 L1845.99 14.324 L1853.48 14.324 Z" fill="#000000" fill-rule="nonzero" fill-opacity="1" /><path clip-path="url(#clip560)" d="M1897.52 76.7889 Q1894.36 84.8907 1891.36 87.3618 Q1888.36 89.8329 1883.34 89.8329 L1877.38 89.8329 L1877.38 83.5945 L1881.76 83.5945 Q1884.84 83.5945 1886.54 82.1361 Q1888.24 80.6778 1890.31 75.2496 L1891.64 71.8468 L1873.29 27.2059 L1881.19 27.2059 L1895.37 62.6918 L1909.55 27.2059 L1917.45 27.2059 L1897.52 76.7889 Z" fill="#000000" fill-rule="nonzero" fill-opacity="1" /><path clip-path="url(#clip560)" d="M1948.76 27.2059 L1956.66 27.2059 L1970.84 65.2844 L1985.02 27.2059 L1992.92 27.2059 L1975.9 72.576 L1965.78 72.576 L1948.76 27.2059 Z" fill="#000000" fill-rule="nonzero" fill-opacity="1" /><path clip-path="url(#clip560)" d="M2032.13 28.5427 L2032.13 35.5912 Q2028.97 33.9709 2025.57 33.1607 Q2022.16 32.3505 2018.52 32.3505 Q2012.97 32.3505 2010.17 34.0519 Q2007.42 35.7533 2007.42 39.156 Q2007.42 41.7486 2009.4 43.2475 Q2011.39 44.7058 2017.38 46.0426 L2019.94 46.6097 Q2027.88 48.3111 2031.2 51.4303 Q2034.56 54.509 2034.56 60.0587 Q2034.56 66.3781 2029.54 70.0644 Q2024.55 73.7508 2015.8 73.7508 Q2012.16 73.7508 2008.19 73.0216 Q2004.26 72.3329 1999.88 70.9151 L1999.88 63.2184 Q2004.02 65.3654 2008.03 66.4591 Q2012.04 67.5124 2015.97 67.5124 Q2021.23 67.5124 2024.07 65.73 Q2026.9 63.9071 2026.9 60.6258 Q2026.9 57.5877 2024.84 55.9673 Q2022.81 54.3469 2015.89 52.8481 L2013.29 52.2405 Q2006.37 50.7821 2003.29 47.7845 Q2000.21 44.7463 2000.21 39.4801 Q2000.21 33.0797 2004.75 29.5959 Q2009.28 26.1121 2017.63 26.1121 Q2021.76 26.1121 2025.4 26.7198 Q2029.05 27.3274 2032.13 28.5427 Z" fill="#000000" fill-rule="nonzero" fill-opacity="1" /><path clip-path="url(#clip560)" d="M2102.66 34.0924 L2102.66 9.54393 L2110.11 9.54393 L2110.11 72.576 L2102.66 72.576 L2102.66 65.7705 Q2100.31 69.8214 2096.7 71.8063 Q2093.14 73.7508 2088.11 73.7508 Q2079.89 73.7508 2074.7 67.1883 Q2069.56 60.6258 2069.56 49.9314 Q2069.56 39.2371 2074.7 32.6746 Q2079.89 26.1121 2088.11 26.1121 Q2093.14 26.1121 2096.7 28.0971 Q2100.31 30.0415 2102.66 34.0924 M2077.26 49.9314 Q2077.26 58.1548 2080.62 62.8538 Q2084.02 67.5124 2089.94 67.5124 Q2095.85 67.5124 2099.25 62.8538 Q2102.66 58.1548 2102.66 49.9314 Q2102.66 41.7081 2099.25 37.0496 Q2095.85 32.3505 2089.94 32.3505 Q2084.02 32.3505 2080.62 37.0496 Q2077.26 41.7081 2077.26 49.9314 Z" fill="#000000" fill-rule="nonzero" fill-opacity="1" /><path clip-path="url(#clip560)" d="M2125.46 27.2059 L2132.92 27.2059 L2132.92 72.576 L2125.46 72.576 L2125.46 27.2059 M2125.46 9.54393 L2132.92 9.54393 L2132.92 18.9825 L2125.46 18.9825 L2125.46 9.54393 Z" fill="#000000" fill-rule="nonzero" fill-opacity="1" /><path clip-path="url(#clip560)" d="M2177.44 28.5427 L2177.44 35.5912 Q2174.28 33.9709 2170.87 33.1607 Q2167.47 32.3505 2163.82 32.3505 Q2158.27 32.3505 2155.48 34.0519 Q2152.72 35.7533 2152.72 39.156 Q2152.72 41.7486 2154.71 43.2475 Q2156.69 44.7058 2162.69 46.0426 L2165.24 46.6097 Q2173.18 48.3111 2176.5 51.4303 Q2179.87 54.509 2179.87 60.0587 Q2179.87 66.3781 2174.84 70.0644 Q2169.86 73.7508 2161.11 73.7508 Q2157.46 73.7508 2153.49 73.0216 Q2149.56 72.3329 2145.19 70.9151 L2145.19 63.2184 Q2149.32 65.3654 2153.33 66.4591 Q2157.34 67.5124 2161.27 67.5124 Q2166.54 67.5124 2169.37 65.73 Q2172.21 63.9071 2172.21 60.6258 Q2172.21 57.5877 2170.14 55.9673 Q2168.12 54.3469 2161.19 52.8481 L2158.6 52.2405 Q2151.67 50.7821 2148.59 47.7845 Q2145.51 44.7463 2145.51 39.4801 Q2145.51 33.0797 2150.05 29.5959 Q2154.59 26.1121 2162.93 26.1121 Q2167.06 26.1121 2170.71 26.7198 Q2174.36 27.3274 2177.44 28.5427 Z" fill="#000000" fill-rule="nonzero" fill-opacity="1" /><path clip-path="url(#clip560)" d="M2199.11 14.324 L2199.11 27.2059 L2214.46 27.2059 L2214.46 32.9987 L2199.11 32.9987 L2199.11 57.6282 Q2199.11 63.1779 2200.61 64.7578 Q2202.15 66.3376 2206.8 66.3376 L2214.46 66.3376 L2214.46 72.576 L2206.8 72.576 Q2198.18 72.576 2194.89 69.3758 Q2191.61 66.1351 2191.61 57.6282 L2191.61 32.9987 L2186.14 32.9987 L2186.14 27.2059 L2191.61 27.2059 L2191.61 14.324 L2199.11 14.324 Z" fill="#000000" fill-rule="nonzero" fill-opacity="1" /><path clip-path="url(#clip560)" d="M2250.55 34.1734 Q2249.3 33.4443 2247.8 33.1202 Q2246.34 32.7556 2244.56 32.7556 Q2238.24 32.7556 2234.84 36.8875 Q2231.47 40.9789 2231.47 48.6757 L2231.47 72.576 L2223.98 72.576 L2223.98 27.2059 L2231.47 27.2059 L2231.47 34.2544 Q2233.82 30.1225 2237.59 28.1376 Q2241.36 26.1121 2246.75 26.1121 Q2247.52 26.1121 2248.45 26.2337 Q2249.38 26.3147 2250.51 26.5172 L2250.55 34.1734 Z" fill="#000000" fill-rule="nonzero" fill-opacity="1" /><path clip-path="url(#clip560)" d="M2258.37 27.2059 L2265.83 27.2059 L2265.83 72.576 L2258.37 72.576 L2258.37 27.2059 M2258.37 9.54393 L2265.83 9.54393 L2265.83 18.9825 L2258.37 18.9825 L2258.37 9.54393 Z" fill="#000000" fill-rule="nonzero" fill-opacity="1" /><path clip-path="url(#clip560)" d="M2314.07 28.9478 L2314.07 35.9153 Q2310.91 34.1734 2307.71 33.3227 Q2304.55 32.4315 2301.31 32.4315 Q2294.06 32.4315 2290.05 37.0496 Q2286.04 41.6271 2286.04 49.9314 Q2286.04 58.2358 2290.05 62.8538 Q2294.06 67.4314 2301.31 67.4314 Q2304.55 67.4314 2307.71 66.5807 Q2310.91 65.6895 2314.07 63.9476 L2314.07 70.8341 Q2310.95 72.2924 2307.59 73.0216 Q2304.27 73.7508 2300.5 73.7508 Q2290.25 73.7508 2284.22 67.3098 Q2278.18 60.8689 2278.18 49.9314 Q2278.18 38.832 2284.26 32.472 Q2290.37 26.1121 2300.99 26.1121 Q2304.43 26.1121 2307.71 26.8413 Q2310.99 27.5299 2314.07 28.9478 Z" fill="#000000" fill-rule="nonzero" fill-opacity="1" /><path clip-path="url(#clip560)" d="M2334.41 14.324 L2334.41 27.2059 L2349.76 27.2059 L2349.76 32.9987 L2334.41 32.9987 L2334.41 57.6282 Q2334.41 63.1779 2335.91 64.7578 Q2337.45 66.3376 2342.1 66.3376 L2349.76 66.3376 L2349.76 72.576 L2342.1 72.576 Q2333.48 72.576 2330.19 69.3758 Q2326.91 66.1351 2326.91 57.6282 L2326.91 32.9987 L2321.44 32.9987 L2321.44 27.2059 L2326.91 27.2059 L2326.91 14.324 L2334.41 14.324 Z" fill="#000000" fill-rule="nonzero" fill-opacity="1" /><path clip-path="url(#clip560)" d="M2409.47 19.2256 L2388.81 51.5113 L2409.47 51.5113 L2409.47 19.2256 M2407.32 12.096 L2417.61 12.096 L2417.61 51.5113 L2426.24 51.5113 L2426.24 58.3168 L2417.61 58.3168 L2417.61 72.576 L2409.47 72.576 L2409.47 58.3168 L2382.17 58.3168 L2382.17 50.4176 L2407.32 12.096 Z" fill="#000000" fill-rule="nonzero" fill-opacity="1" /><path clip-path="url(#clip560)" d="M2464.32 54.671 L2464.32 27.2059 L2471.77 27.2059 L2471.77 54.3874 Q2471.77 60.8284 2474.29 64.0691 Q2476.8 67.2693 2481.82 67.2693 Q2487.86 67.2693 2491.34 63.421 Q2494.86 59.5726 2494.86 52.9291 L2494.86 27.2059 L2502.32 27.2059 L2502.32 72.576 L2494.86 72.576 L2494.86 65.6084 Q2492.15 69.7404 2488.54 71.7658 Q2484.98 73.7508 2480.24 73.7508 Q2472.42 73.7508 2468.37 68.8897 Q2464.32 64.0286 2464.32 54.671 M2483.08 26.1121 L2483.08 26.1121 Z" fill="#000000" fill-rule="nonzero" fill-opacity="1" /><path clip-path="url(#clip560)" d="M2555.38 45.1919 L2555.38 72.576 L2547.93 72.576 L2547.93 45.4349 Q2547.93 38.994 2545.42 35.7938 Q2542.91 32.5936 2537.88 32.5936 Q2531.85 32.5936 2528.37 36.4419 Q2524.88 40.2903 2524.88 46.9338 L2524.88 72.576 L2517.39 72.576 L2517.39 27.2059 L2524.88 27.2059 L2524.88 34.2544 Q2527.55 30.163 2531.16 28.1376 Q2534.81 26.1121 2539.55 26.1121 Q2547.36 26.1121 2551.37 30.9732 Q2555.38 35.7938 2555.38 45.1919 Z" fill="#000000" fill-rule="nonzero" fill-opacity="1" /><path clip-path="url(#clip560)" d="M2570.25 27.2059 L2577.71 27.2059 L2577.71 72.576 L2570.25 72.576 L2570.25 27.2059 M2570.25 9.54393 L2577.71 9.54393 L2577.71 18.9825 L2570.25 18.9825 L2570.25 9.54393 Z" fill="#000000" fill-rule="nonzero" fill-opacity="1" /><path clip-path="url(#clip560)" d="M2600.67 14.324 L2600.67 27.2059 L2616.03 27.2059 L2616.03 32.9987 L2600.67 32.9987 L2600.67 57.6282 Q2600.67 63.1779 2602.17 64.7578 Q2603.71 66.3376 2608.37 66.3376 L2616.03 66.3376 L2616.03 72.576 L2608.37 72.576 Q2599.74 72.576 2596.46 69.3758 Q2593.18 66.1351 2593.18 57.6282 L2593.18 32.9987 L2587.71 32.9987 L2587.71 27.2059 L2593.18 27.2059 L2593.18 14.324 L2600.67 14.324 Z" fill="#000000" fill-rule="nonzero" fill-opacity="1" /><path clip-path="url(#clip560)" d="M2684.85 28.9478 L2684.85 35.9153 Q2681.69 34.1734 2678.49 33.3227 Q2675.33 32.4315 2672.09 32.4315 Q2664.84 32.4315 2660.83 37.0496 Q2656.82 41.6271 2656.82 49.9314 Q2656.82 58.2358 2660.83 62.8538 Q2664.84 67.4314 2672.09 67.4314 Q2675.33 67.4314 2678.49 66.5807 Q2681.69 65.6895 2684.85 63.9476 L2684.85 70.8341 Q2681.73 72.2924 2678.37 73.0216 Q2675.05 73.7508 2671.28 73.7508 Q2661.03 73.7508 2655 67.3098 Q2648.96 60.8689 2648.96 49.9314 Q2648.96 38.832 2655.04 32.472 Q2661.15 26.1121 2671.77 26.1121 Q2675.21 26.1121 2678.49 26.8413 Q2681.77 27.5299 2684.85 28.9478 Z" fill="#000000" fill-rule="nonzero" fill-opacity="1" /><path clip-path="url(#clip560)" d="M2715.4 32.4315 Q2709.4 32.4315 2705.92 37.1306 Q2702.43 41.7891 2702.43 49.9314 Q2702.43 58.0738 2705.88 62.7728 Q2709.36 67.4314 2715.4 67.4314 Q2721.35 67.4314 2724.83 62.7323 Q2728.32 58.0333 2728.32 49.9314 Q2728.32 41.8701 2724.83 37.1711 Q2721.35 32.4315 2715.4 32.4315 M2715.4 26.1121 Q2725.12 26.1121 2730.67 32.4315 Q2736.22 38.7509 2736.22 49.9314 Q2736.22 61.0714 2730.67 67.4314 Q2725.12 73.7508 2715.4 73.7508 Q2705.63 73.7508 2700.08 67.4314 Q2694.57 61.0714 2694.57 49.9314 Q2694.57 38.7509 2700.08 32.4315 Q2705.63 26.1121 2715.4 26.1121 Z" fill="#000000" fill-rule="nonzero" fill-opacity="1" /><path clip-path="url(#clip560)" d="M2747.8 54.671 L2747.8 27.2059 L2755.26 27.2059 L2755.26 54.3874 Q2755.26 60.8284 2757.77 64.0691 Q2760.28 67.2693 2765.3 67.2693 Q2771.34 67.2693 2774.82 63.421 Q2778.35 59.5726 2778.35 52.9291 L2778.35 27.2059 L2785.8 27.2059 L2785.8 72.576 L2778.35 72.576 L2778.35 65.6084 Q2775.63 69.7404 2772.03 71.7658 Q2768.46 73.7508 2763.72 73.7508 Q2755.9 73.7508 2751.85 68.8897 Q2747.8 64.0286 2747.8 54.671 M2766.56 26.1121 L2766.56 26.1121 Z" fill="#000000" fill-rule="nonzero" fill-opacity="1" /><path clip-path="url(#clip560)" d="M2838.87 45.1919 L2838.87 72.576 L2831.41 72.576 L2831.41 45.4349 Q2831.41 38.994 2828.9 35.7938 Q2826.39 32.5936 2821.37 32.5936 Q2815.33 32.5936 2811.85 36.4419 Q2808.36 40.2903 2808.36 46.9338 L2808.36 72.576 L2800.87 72.576 L2800.87 27.2059 L2808.36 27.2059 L2808.36 34.2544 Q2811.04 30.163 2814.64 28.1376 Q2818.29 26.1121 2823.03 26.1121 Q2830.85 26.1121 2834.86 30.9732 Q2838.87 35.7938 2838.87 45.1919 Z" fill="#000000" fill-rule="nonzero" fill-opacity="1" /><path clip-path="url(#clip560)" d="M2861.11 14.324 L2861.11 27.2059 L2876.46 27.2059 L2876.46 32.9987 L2861.11 32.9987 L2861.11 57.6282 Q2861.11 63.1779 2862.61 64.7578 Q2864.14 66.3376 2868.8 66.3376 L2876.46 66.3376 L2876.46 72.576 L2868.8 72.576 Q2860.17 72.576 2856.89 69.3758 Q2853.61 66.1351 2853.61 57.6282 L2853.61 32.9987 L2848.14 32.9987 L2848.14 27.2059 L2853.61 27.2059 L2853.61 14.324 L2861.11 14.324 Z" fill="#000000" fill-rule="nonzero" fill-opacity="1" /><polyline clip-path="url(#clip561)" style="stroke:#009af9; stroke-linecap:round; stroke-linejoin:round; stroke-width:4; stroke-opacity:1; fill:none" points="346.994,162.056 507.979,190.967 668.965,370.316 829.951,361.996 990.937,442.801 1151.92,467.733 1312.91,639.176 1473.89,659.834 1634.88,757.595 1795.87,866.48 2010.51,972.775 2171.5,996.263 2332.48,1130.17 2493.47,1248.32 2654.46,1335.36 2815.44,1448.87 2976.43,1511.96 3137.41,1581.13 3298.4,1728.2 3459.38,1784.2 "/>
</svg>
