<?xml version="1.0" encoding="utf-8"?>
<svg xmlns="http://www.w3.org/2000/svg" xmlns:xlink="http://www.w3.org/1999/xlink" width="900" height="500" viewBox="0 0 3600 2000">
<defs>
  <clipPath id="clip170">
    <rect x="0" y="0" width="3600" height="2000"/>
  </clipPath>
</defs>
<path clip-path="url(#clip170)" d="M0 2000 L3600 2000 L3600 0 L0 0  Z" fill="#ffffff" fill-rule="evenodd" fill-opacity="1"/>
<defs>
  <clipPath id="clip171">
    <rect x="283" y="113" width="3270" height="1720"/>
  </clipPath>
</defs>
<path clip-path="url(#clip170)" d="M283.784 1832.86 L3552.76 1832.86 L3552.76 113.392 L283.784 113.392  Z" fill="#ffffff" fill-rule="evenodd" fill-opacity="1"/>
<polyline clip-path="url(#clip171)" style="stroke:#000000; stroke-linecap:round; stroke-linejoin:round; stroke-width:2; stroke-opacity:0.1; fill:none" points="684.696,1832.86 684.696,113.392 "/>
<polyline clip-path="url(#clip171)" style="stroke:#000000; stroke-linecap:round; stroke-linejoin:round; stroke-width:2; stroke-opacity:0.1; fill:none" points="1301.48,1832.86 1301.48,113.392 "/>
<polyline clip-path="url(#clip171)" style="stroke:#000000; stroke-linecap:round; stroke-linejoin:round; stroke-width:2; stroke-opacity:0.1; fill:none" points="1918.27,1832.86 1918.27,113.392 "/>
<polyline clip-path="url(#clip171)" style="stroke:#000000; stroke-linecap:round; stroke-linejoin:round; stroke-width:2; stroke-opacity:0.1; fill:none" points="2535.06,1832.86 2535.06,113.392 "/>
<polyline clip-path="url(#clip171)" style="stroke:#000000; stroke-linecap:round; stroke-linejoin:round; stroke-width:2; stroke-opacity:0.1; fill:none" points="3151.84,1832.86 3151.84,113.392 "/>
<polyline clip-path="url(#clip171)" style="stroke:#000000; stroke-linecap:round; stroke-linejoin:round; stroke-width:2; stroke-opacity:0.1; fill:none" points="283.784,1724.1 3552.76,1724.1 "/>
<polyline clip-path="url(#clip171)" style="stroke:#000000; stroke-linecap:round; stroke-linejoin:round; stroke-width:2; stroke-opacity:0.1; fill:none" points="283.784,1449.25 3552.76,1449.25 "/>
<polyline clip-path="url(#clip171)" style="stroke:#000000; stroke-linecap:round; stroke-linejoin:round; stroke-width:2; stroke-opacity:0.1; fill:none" points="283.784,1174.4 3552.76,1174.4 "/>
<polyline clip-path="url(#clip171)" style="stroke:#000000; stroke-linecap:round; stroke-linejoin:round; stroke-width:2; stroke-opacity:0.1; fill:none" points="283.784,899.547 3552.76,899.547 "/>
<polyline clip-path="url(#clip171)" style="stroke:#000000; stroke-linecap:round; stroke-linejoin:round; stroke-width:2; stroke-opacity:0.1; fill:none" points="283.784,624.696 3552.76,624.696 "/>
<polyline clip-path="url(#clip171)" style="stroke:#000000; stroke-linecap:round; stroke-linejoin:round; stroke-width:2; stroke-opacity:0.1; fill:none" points="283.784,349.846 3552.76,349.846 "/>
<polyline clip-path="url(#clip170)" style="stroke:#000000; stroke-linecap:round; stroke-linejoin:round; stroke-width:4; stroke-opacity:1; fill:none" points="283.784,1832.86 3552.76,1832.86 "/>
<polyline clip-path="url(#clip170)" style="stroke:#000000; stroke-linecap:round; stroke-linejoin:round; stroke-width:4; stroke-opacity:1; fill:none" points="684.696,1832.86 684.696,1813.96 "/>
<polyline clip-path="url(#clip170)" style="stroke:#000000; stroke-linecap:round; stroke-linejoin:round; stroke-width:4; stroke-opacity:1; fill:none" points="1301.48,1832.86 1301.48,1813.96 "/>
<polyline clip-path="url(#clip170)" style="stroke:#000000; stroke-linecap:round; stroke-linejoin:round; stroke-width:4; stroke-opacity:1; fill:none" points="1918.27,1832.86 1918.27,1813.96 "/>
<polyline clip-path="url(#clip170)" style="stroke:#000000; stroke-linecap:round; stroke-linejoin:round; stroke-width:4; stroke-opacity:1; fill:none" points="2535.06,1832.86 2535.06,1813.96 "/>
<polyline clip-path="url(#clip170)" style="stroke:#000000; stroke-linecap:round; stroke-linejoin:round; stroke-width:4; stroke-opacity:1; fill:none" points="3151.84,1832.86 3151.84,1813.96 "/>
<path clip-path="url(#clip170)" d="M662.126 1873.38 Q658.515 1873.38 656.686 1876.94 Q654.881 1880.48 654.881 1887.61 Q654.881 1894.72 656.686 1898.29 Q658.515 1901.83 662.126 1901.83 Q665.76 1901.83 667.566 1898.29 Q669.395 1894.72 669.395 1887.61 Q669.395 1880.48 667.566 1876.94 Q665.76 1873.38 662.126 1873.38 M662.126 1869.67 Q667.936 1869.67 670.992 1874.28 Q674.071 1878.86 674.071 1887.61 Q674.071 1896.34 670.992 1900.95 Q667.936 1905.53 662.126 1905.53 Q656.316 1905.53 653.237 1900.95 Q650.182 1896.34 650.182 1887.61 Q650.182 1878.86 653.237 1874.28 Q656.316 1869.67 662.126 1869.67 Z" fill="#000000" fill-rule="nonzero" fill-opacity="1" /><path clip-path="url(#clip170)" d="M682.288 1898.98 L687.172 1898.98 L687.172 1904.86 L682.288 1904.86 L682.288 1898.98 Z" fill="#000000" fill-rule="nonzero" fill-opacity="1" /><path clip-path="url(#clip170)" d="M707.357 1888.45 Q704.024 1888.45 702.103 1890.23 Q700.205 1892.01 700.205 1895.14 Q700.205 1898.26 702.103 1900.05 Q704.024 1901.83 707.357 1901.83 Q710.691 1901.83 712.612 1900.05 Q714.533 1898.24 714.533 1895.14 Q714.533 1892.01 712.612 1890.23 Q710.714 1888.45 707.357 1888.45 M702.682 1886.46 Q699.672 1885.72 697.983 1883.66 Q696.316 1881.6 696.316 1878.63 Q696.316 1874.49 699.256 1872.08 Q702.219 1869.67 707.357 1869.67 Q712.519 1869.67 715.459 1872.08 Q718.399 1874.49 718.399 1878.63 Q718.399 1881.6 716.709 1883.66 Q715.043 1885.72 712.057 1886.46 Q715.436 1887.24 717.311 1889.54 Q719.209 1891.83 719.209 1895.14 Q719.209 1900.16 716.131 1902.85 Q713.075 1905.53 707.357 1905.53 Q701.64 1905.53 698.561 1902.85 Q695.506 1900.16 695.506 1895.14 Q695.506 1891.83 697.404 1889.54 Q699.302 1887.24 702.682 1886.46 M700.969 1879.07 Q700.969 1881.76 702.635 1883.26 Q704.325 1884.77 707.357 1884.77 Q710.367 1884.77 712.057 1883.26 Q713.769 1881.76 713.769 1879.07 Q713.769 1876.39 712.057 1874.88 Q710.367 1873.38 707.357 1873.38 Q704.325 1873.38 702.635 1874.88 Q700.969 1876.39 700.969 1879.07 Z" fill="#000000" fill-rule="nonzero" fill-opacity="1" /><path clip-path="url(#clip170)" d="M1278.96 1873.38 Q1275.35 1873.38 1273.52 1876.94 Q1271.71 1880.48 1271.71 1887.61 Q1271.71 1894.72 1273.52 1898.29 Q1275.35 1901.83 1278.96 1901.83 Q1282.59 1901.83 1284.4 1898.29 Q1286.23 1894.72 1286.23 1887.61 Q1286.23 1880.48 1284.4 1876.94 Q1282.59 1873.38 1278.96 1873.38 M1278.96 1869.67 Q1284.77 1869.67 1287.83 1874.28 Q1290.9 1878.86 1290.9 1887.61 Q1290.9 1896.34 1287.83 1900.95 Q1284.77 1905.53 1278.96 1905.53 Q1273.15 1905.53 1270.07 1900.95 Q1267.02 1896.34 1267.02 1887.61 Q1267.02 1878.86 1270.07 1874.28 Q1273.15 1869.67 1278.96 1869.67 Z" fill="#000000" fill-rule="nonzero" fill-opacity="1" /><path clip-path="url(#clip170)" d="M1299.12 1898.98 L1304.01 1898.98 L1304.01 1904.86 L1299.12 1904.86 L1299.12 1898.98 Z" fill="#000000" fill-rule="nonzero" fill-opacity="1" /><path clip-path="url(#clip170)" d="M1314.33 1904.14 L1314.33 1899.88 Q1316.09 1900.72 1317.89 1901.16 Q1319.7 1901.6 1321.44 1901.6 Q1326.07 1901.6 1328.5 1898.49 Q1330.95 1895.37 1331.3 1889.03 Q1329.95 1891.02 1327.89 1892.08 Q1325.83 1893.15 1323.33 1893.15 Q1318.15 1893.15 1315.12 1890.02 Q1312.11 1886.87 1312.11 1881.43 Q1312.11 1876.11 1315.26 1872.89 Q1318.4 1869.67 1323.64 1869.67 Q1329.63 1869.67 1332.78 1874.28 Q1335.95 1878.86 1335.95 1887.61 Q1335.95 1895.79 1332.06 1900.67 Q1328.2 1905.53 1321.64 1905.53 Q1319.89 1905.53 1318.08 1905.18 Q1316.27 1904.84 1314.33 1904.14 M1323.64 1889.49 Q1326.78 1889.49 1328.61 1887.34 Q1330.46 1885.18 1330.46 1881.43 Q1330.46 1877.71 1328.61 1875.55 Q1326.78 1873.38 1323.64 1873.38 Q1320.49 1873.38 1318.64 1875.55 Q1316.81 1877.71 1316.81 1881.43 Q1316.81 1885.18 1318.64 1887.34 Q1320.49 1889.49 1323.64 1889.49 Z" fill="#000000" fill-rule="nonzero" fill-opacity="1" /><path clip-path="url(#clip170)" d="M1885.42 1900.92 L1893.06 1900.92 L1893.06 1874.56 L1884.75 1876.23 L1884.75 1871.97 L1893.02 1870.3 L1897.69 1870.3 L1897.69 1900.92 L1905.33 1900.92 L1905.33 1904.86 L1885.42 1904.86 L1885.42 1900.92 Z" fill="#000000" fill-rule="nonzero" fill-opacity="1" /><path clip-path="url(#clip170)" d="M1914.77 1898.98 L1919.66 1898.98 L1919.66 1904.86 L1914.77 1904.86 L1914.77 1898.98 Z" fill="#000000" fill-rule="nonzero" fill-opacity="1" /><path clip-path="url(#clip170)" d="M1939.84 1873.38 Q1936.23 1873.38 1934.4 1876.94 Q1932.6 1880.48 1932.6 1887.61 Q1932.6 1894.72 1934.4 1898.29 Q1936.23 1901.83 1939.84 1901.83 Q1943.48 1901.83 1945.28 1898.29 Q1947.11 1894.72 1947.11 1887.61 Q1947.11 1880.48 1945.28 1876.94 Q1943.48 1873.38 1939.84 1873.38 M1939.84 1869.67 Q1945.65 1869.67 1948.71 1874.28 Q1951.79 1878.86 1951.79 1887.61 Q1951.79 1896.34 1948.71 1900.95 Q1945.65 1905.53 1939.84 1905.53 Q1934.03 1905.53 1930.96 1900.95 Q1927.9 1896.34 1927.9 1887.61 Q1927.9 1878.86 1930.96 1874.28 Q1934.03 1869.67 1939.84 1869.67 Z" fill="#000000" fill-rule="nonzero" fill-opacity="1" /><path clip-path="url(#clip170)" d="M2502.82 1900.92 L2510.46 1900.92 L2510.46 1874.56 L2502.15 1876.23 L2502.15 1871.97 L2510.42 1870.3 L2515.09 1870.3 L2515.09 1900.92 L2522.73 1900.92 L2522.73 1904.86 L2502.82 1904.86 L2502.82 1900.92 Z" fill="#000000" fill-rule="nonzero" fill-opacity="1" /><path clip-path="url(#clip170)" d="M2532.18 1898.98 L2537.06 1898.98 L2537.06 1904.86 L2532.18 1904.86 L2532.18 1898.98 Z" fill="#000000" fill-rule="nonzero" fill-opacity="1" /><path clip-path="url(#clip170)" d="M2548.05 1900.92 L2555.69 1900.92 L2555.69 1874.56 L2547.38 1876.23 L2547.38 1871.97 L2555.65 1870.3 L2560.32 1870.3 L2560.32 1900.92 L2567.96 1900.92 L2567.96 1904.86 L2548.05 1904.86 L2548.05 1900.92 Z" fill="#000000" fill-rule="nonzero" fill-opacity="1" /><path clip-path="url(#clip170)" d="M3119.8 1900.92 L3127.43 1900.92 L3127.43 1874.56 L3119.12 1876.23 L3119.12 1871.97 L3127.39 1870.3 L3132.06 1870.3 L3132.06 1900.92 L3139.7 1900.92 L3139.7 1904.86 L3119.8 1904.86 L3119.8 1900.92 Z" fill="#000000" fill-rule="nonzero" fill-opacity="1" /><path clip-path="url(#clip170)" d="M3149.15 1898.98 L3154.03 1898.98 L3154.03 1904.86 L3149.15 1904.86 L3149.15 1898.98 Z" fill="#000000" fill-rule="nonzero" fill-opacity="1" /><path clip-path="url(#clip170)" d="M3168.24 1900.92 L3184.56 1900.92 L3184.56 1904.86 L3162.62 1904.86 L3162.62 1900.92 Q3165.28 1898.17 3169.86 1893.54 Q3174.47 1888.89 3175.65 1887.55 Q3177.9 1885.02 3178.78 1883.29 Q3179.68 1881.53 3179.68 1879.84 Q3179.68 1877.08 3177.74 1875.35 Q3175.81 1873.61 3172.71 1873.61 Q3170.51 1873.61 3168.06 1874.37 Q3165.63 1875.14 3162.85 1876.69 L3162.85 1871.97 Q3165.68 1870.83 3168.13 1870.25 Q3170.58 1869.67 3172.62 1869.67 Q3177.99 1869.67 3181.18 1872.36 Q3184.38 1875.05 3184.38 1879.54 Q3184.38 1881.67 3183.57 1883.59 Q3182.78 1885.48 3180.68 1888.08 Q3180.1 1888.75 3176.99 1891.97 Q3173.89 1895.16 3168.24 1900.92 Z" fill="#000000" fill-rule="nonzero" fill-opacity="1" /><path clip-path="url(#clip170)" d="M1636.79 1953.49 L1636.79 1990.44 L1644.56 1990.44 Q1654.4 1990.44 1658.95 1985.98 Q1663.53 1981.53 1663.53 1971.92 Q1663.53 1962.37 1658.95 1957.94 Q1654.4 1953.49 1644.56 1953.49 L1636.79 1953.49 M1630.36 1948.2 L1643.57 1948.2 Q1657.39 1948.2 1663.85 1953.96 Q1670.31 1959.69 1670.31 1971.92 Q1670.31 1984.2 1663.82 1989.96 Q1657.32 1995.72 1643.57 1995.72 L1630.36 1995.72 L1630.36 1948.2 Z" fill="#000000" fill-rule="nonzero" fill-opacity="1" /><path clip-path="url(#clip170)" d="M1680.3 1960.08 L1686.16 1960.08 L1686.16 1995.72 L1680.3 1995.72 L1680.3 1960.08 M1680.3 1946.2 L1686.16 1946.2 L1686.16 1953.61 L1680.3 1953.61 L1680.3 1946.2 Z" fill="#000000" fill-rule="nonzero" fill-opacity="1" /><path clip-path="url(#clip170)" d="M1721.14 1961.13 L1721.14 1966.66 Q1718.66 1965.39 1715.98 1964.75 Q1713.31 1964.12 1710.45 1964.12 Q1706.08 1964.12 1703.89 1965.45 Q1701.72 1966.79 1701.72 1969.47 Q1701.72 1971.5 1703.28 1972.68 Q1704.84 1973.83 1709.55 1974.88 L1711.56 1975.32 Q1717.8 1976.66 1720.41 1979.11 Q1723.05 1981.53 1723.05 1985.89 Q1723.05 1990.85 1719.1 1993.75 Q1715.19 1996.65 1708.31 1996.65 Q1705.45 1996.65 1702.33 1996.07 Q1699.24 1995.53 1695.8 1994.42 L1695.8 1988.37 Q1699.05 1990.06 1702.2 1990.92 Q1705.35 1991.75 1708.44 1991.75 Q1712.58 1991.75 1714.81 1990.34 Q1717.03 1988.91 1717.03 1986.33 Q1717.03 1983.95 1715.41 1982.67 Q1713.82 1981.4 1708.38 1980.22 L1706.34 1979.75 Q1700.9 1978.6 1698.48 1976.24 Q1696.06 1973.86 1696.06 1969.72 Q1696.06 1964.69 1699.62 1961.95 Q1703.19 1959.22 1709.75 1959.22 Q1712.99 1959.22 1715.86 1959.69 Q1718.72 1960.17 1721.14 1961.13 Z" fill="#000000" fill-rule="nonzero" fill-opacity="1" /><path clip-path="url(#clip170)" d="M1738.17 1949.95 L1738.17 1960.08 L1750.23 1960.08 L1750.23 1964.63 L1738.17 1964.63 L1738.17 1983.98 Q1738.17 1988.34 1739.35 1989.58 Q1740.56 1990.82 1744.22 1990.82 L1750.23 1990.82 L1750.23 1995.72 L1744.22 1995.72 Q1737.44 1995.72 1734.86 1993.21 Q1732.28 1990.66 1732.28 1983.98 L1732.28 1964.63 L1727.98 1964.63 L1727.98 1960.08 L1732.28 1960.08 L1732.28 1949.95 L1738.17 1949.95 Z" fill="#000000" fill-rule="nonzero" fill-opacity="1" /><path clip-path="url(#clip170)" d="M1778.59 1965.55 Q1777.6 1964.98 1776.43 1964.72 Q1775.28 1964.44 1773.88 1964.44 Q1768.91 1964.44 1766.24 1967.68 Q1763.6 1970.9 1763.6 1976.95 L1763.6 1995.72 L1757.71 1995.72 L1757.71 1960.08 L1763.6 1960.08 L1763.6 1965.61 Q1765.45 1962.37 1768.41 1960.81 Q1771.37 1959.22 1775.6 1959.22 Q1776.2 1959.22 1776.94 1959.31 Q1777.67 1959.38 1778.56 1959.53 L1778.59 1965.55 Z" fill="#000000" fill-rule="nonzero" fill-opacity="1" /><path clip-path="url(#clip170)" d="M1784.73 1960.08 L1790.59 1960.08 L1790.59 1995.72 L1784.73 1995.72 L1784.73 1960.08 M1784.73 1946.2 L1790.59 1946.2 L1790.59 1953.61 L1784.73 1953.61 L1784.73 1946.2 Z" fill="#000000" fill-rule="nonzero" fill-opacity="1" /><path clip-path="url(#clip170)" d="M1828.5 1961.44 L1828.5 1966.92 Q1826.01 1965.55 1823.5 1964.88 Q1821.02 1964.18 1818.47 1964.18 Q1812.77 1964.18 1809.62 1967.81 Q1806.47 1971.41 1806.47 1977.93 Q1806.47 1984.46 1809.62 1988.08 Q1812.77 1991.68 1818.47 1991.68 Q1821.02 1991.68 1823.5 1991.01 Q1826.01 1990.31 1828.5 1988.94 L1828.5 1994.36 Q1826.05 1995.5 1823.4 1996.07 Q1820.8 1996.65 1817.83 1996.65 Q1809.78 1996.65 1805.04 1991.59 Q1800.3 1986.53 1800.3 1977.93 Q1800.3 1969.21 1805.07 1964.21 Q1809.88 1959.22 1818.22 1959.22 Q1820.92 1959.22 1823.5 1959.79 Q1826.08 1960.33 1828.5 1961.44 Z" fill="#000000" fill-rule="nonzero" fill-opacity="1" /><path clip-path="url(#clip170)" d="M1844.48 1949.95 L1844.48 1960.08 L1856.54 1960.08 L1856.54 1964.63 L1844.48 1964.63 L1844.48 1983.98 Q1844.48 1988.34 1845.65 1989.58 Q1846.86 1990.82 1850.52 1990.82 L1856.54 1990.82 L1856.54 1995.72 L1850.52 1995.72 Q1843.74 1995.72 1841.17 1993.21 Q1838.59 1990.66 1838.59 1983.98 L1838.59 1964.63 L1834.29 1964.63 L1834.29 1960.08 L1838.59 1960.08 L1838.59 1949.95 L1844.48 1949.95 Z" fill="#000000" fill-rule="nonzero" fill-opacity="1" /><path clip-path="url(#clip170)" d="M1885.85 1948.2 L1911.09 1948.2 L1911.09 1953.61 L1891.74 1953.61 L1891.74 1965.26 Q1893.14 1964.79 1894.54 1964.56 Q1895.94 1964.31 1897.34 1964.31 Q1905.3 1964.31 1909.95 1968.67 Q1914.59 1973.03 1914.59 1980.48 Q1914.59 1988.15 1909.82 1992.41 Q1905.05 1996.65 1896.36 1996.65 Q1893.36 1996.65 1890.24 1996.14 Q1887.16 1995.63 1883.85 1994.61 L1883.85 1988.15 Q1886.71 1989.71 1889.77 1990.47 Q1892.82 1991.24 1896.23 1991.24 Q1901.73 1991.24 1904.95 1988.34 Q1908.16 1985.44 1908.16 1980.48 Q1908.16 1975.51 1904.95 1972.62 Q1901.73 1969.72 1896.23 1969.72 Q1893.65 1969.72 1891.07 1970.29 Q1888.53 1970.87 1885.85 1972.08 L1885.85 1948.2 Z" fill="#000000" fill-rule="nonzero" fill-opacity="1" /><path clip-path="url(#clip170)" d="M1963.36 1977.8 Q1956.26 1977.8 1953.52 1979.43 Q1950.78 1981.05 1950.78 1984.97 Q1950.78 1988.08 1952.82 1989.93 Q1954.89 1991.75 1958.42 1991.75 Q1963.29 1991.75 1966.22 1988.31 Q1969.18 1984.84 1969.18 1979.11 L1969.18 1977.8 L1963.36 1977.8 M1975.04 1975.39 L1975.04 1995.72 L1969.18 1995.72 L1969.18 1990.31 Q1967.17 1993.56 1964.18 1995.12 Q1961.19 1996.65 1956.86 1996.65 Q1951.39 1996.65 1948.14 1993.59 Q1944.93 1990.5 1944.93 1985.35 Q1944.93 1979.33 1948.94 1976.28 Q1952.98 1973.22 1960.97 1973.22 L1969.18 1973.22 L1969.18 1972.65 Q1969.18 1968.61 1966.51 1966.41 Q1963.86 1964.18 1959.06 1964.18 Q1956 1964.18 1953.11 1964.91 Q1950.21 1965.65 1947.54 1967.11 L1947.54 1961.7 Q1950.75 1960.46 1953.77 1959.85 Q1956.8 1959.22 1959.66 1959.22 Q1967.4 1959.22 1971.22 1963.23 Q1975.04 1967.24 1975.04 1975.39 Z" fill="#000000" fill-rule="nonzero" fill-opacity="1" /><path clip-path="url(#clip170)" d="M2014.85 1966.92 Q2017.05 1962.97 2020.11 1961.09 Q2023.16 1959.22 2027.3 1959.22 Q2032.87 1959.22 2035.89 1963.13 Q2038.92 1967.01 2038.92 1974.21 L2038.92 1995.72 L2033.03 1995.72 L2033.03 1974.4 Q2033.03 1969.27 2031.21 1966.79 Q2029.4 1964.31 2025.68 1964.31 Q2021.12 1964.31 2018.48 1967.33 Q2015.84 1970.36 2015.84 1975.58 L2015.84 1995.72 L2009.95 1995.72 L2009.95 1974.4 Q2009.95 1969.24 2008.14 1966.79 Q2006.32 1964.31 2002.54 1964.31 Q1998.05 1964.31 1995.41 1967.36 Q1992.76 1970.39 1992.76 1975.58 L1992.76 1995.72 L1986.88 1995.72 L1986.88 1960.08 L1992.76 1960.08 L1992.76 1965.61 Q1994.77 1962.34 1997.57 1960.78 Q2000.37 1959.22 2004.22 1959.22 Q2008.11 1959.22 2010.81 1961.19 Q2013.55 1963.16 2014.85 1966.92 Z" fill="#000000" fill-rule="nonzero" fill-opacity="1" /><path clip-path="url(#clip170)" d="M2081.09 1976.44 L2081.09 1979.3 L2054.16 1979.3 Q2054.54 1985.35 2057.79 1988.53 Q2061.07 1991.68 2066.89 1991.68 Q2070.27 1991.68 2073.42 1990.85 Q2076.6 1990.03 2079.72 1988.37 L2079.72 1993.91 Q2076.57 1995.25 2073.26 1995.95 Q2069.95 1996.65 2066.54 1996.65 Q2058.01 1996.65 2053.02 1991.68 Q2048.05 1986.72 2048.05 1978.25 Q2048.05 1969.5 2052.76 1964.37 Q2057.5 1959.22 2065.52 1959.22 Q2072.72 1959.22 2076.89 1963.86 Q2081.09 1968.48 2081.09 1976.44 M2075.23 1974.72 Q2075.17 1969.91 2072.53 1967.05 Q2069.92 1964.18 2065.59 1964.18 Q2060.69 1964.18 2057.73 1966.95 Q2054.8 1969.72 2054.35 1974.75 L2075.23 1974.72 Z" fill="#000000" fill-rule="nonzero" fill-opacity="1" /><path clip-path="url(#clip170)" d="M2120.33 1974.21 L2120.33 1995.72 L2114.48 1995.72 L2114.48 1974.4 Q2114.48 1969.34 2112.5 1966.82 Q2110.53 1964.31 2106.58 1964.31 Q2101.84 1964.31 2099.1 1967.33 Q2096.37 1970.36 2096.37 1975.58 L2096.37 1995.72 L2090.48 1995.72 L2090.48 1960.08 L2096.37 1960.08 L2096.37 1965.61 Q2098.47 1962.4 2101.3 1960.81 Q2104.16 1959.22 2107.89 1959.22 Q2114.03 1959.22 2117.18 1963.04 Q2120.33 1966.82 2120.33 1974.21 Z" fill="#000000" fill-rule="nonzero" fill-opacity="1" /><path clip-path="url(#clip170)" d="M2132.01 1960.08 L2137.87 1960.08 L2137.87 1995.72 L2132.01 1995.72 L2132.01 1960.08 M2132.01 1946.2 L2137.87 1946.2 L2137.87 1953.61 L2132.01 1953.61 L2132.01 1946.2 Z" fill="#000000" fill-rule="nonzero" fill-opacity="1" /><path clip-path="url(#clip170)" d="M2155.92 1949.95 L2155.92 1960.08 L2167.98 1960.08 L2167.98 1964.63 L2155.92 1964.63 L2155.92 1983.98 Q2155.92 1988.34 2157.1 1989.58 Q2158.3 1990.82 2161.97 1990.82 L2167.98 1990.82 L2167.98 1995.72 L2161.97 1995.72 Q2155.19 1995.72 2152.61 1993.21 Q2150.03 1990.66 2150.03 1983.98 L2150.03 1964.63 L2145.73 1964.63 L2145.73 1960.08 L2150.03 1960.08 L2150.03 1949.95 L2155.92 1949.95 Z" fill="#000000" fill-rule="nonzero" fill-opacity="1" /><path clip-path="url(#clip170)" d="M2190.52 1999.03 Q2188.03 2005.4 2185.68 2007.34 Q2183.32 2009.28 2179.38 2009.28 L2174.7 2009.28 L2174.7 2004.38 L2178.13 2004.38 Q2180.55 2004.38 2181.89 2003.24 Q2183.23 2002.09 2184.85 1997.82 L2185.9 1995.15 L2171.48 1960.08 L2177.69 1960.08 L2188.83 1987.96 L2199.97 1960.08 L2206.17 1960.08 L2190.52 1999.03 Z" fill="#000000" fill-rule="nonzero" fill-opacity="1" /><polyline clip-path="url(#clip170)" style="stroke:#000000; stroke-linecap:round; stroke-linejoin:round; stroke-width:4; stroke-opacity:1; fill:none" points="283.784,1832.86 283.784,113.392 "/>
<polyline clip-path="url(#clip170)" style="stroke:#000000; stroke-linecap:round; stroke-linejoin:round; stroke-width:4; stroke-opacity:1; fill:none" points="283.784,1724.1 302.682,1724.1 "/>
<polyline clip-path="url(#clip170)" style="stroke:#000000; stroke-linecap:round; stroke-linejoin:round; stroke-width:4; stroke-opacity:1; fill:none" points="283.784,1449.25 302.682,1449.25 "/>
<polyline clip-path="url(#clip170)" style="stroke:#000000; stroke-linecap:round; stroke-linejoin:round; stroke-width:4; stroke-opacity:1; fill:none" points="283.784,1174.4 302.682,1174.4 "/>
<polyline clip-path="url(#clip170)" style="stroke:#000000; stroke-linecap:round; stroke-linejoin:round; stroke-width:4; stroke-opacity:1; fill:none" points="283.784,899.547 302.682,899.547 "/>
<polyline clip-path="url(#clip170)" style="stroke:#000000; stroke-linecap:round; stroke-linejoin:round; stroke-width:4; stroke-opacity:1; fill:none" points="283.784,624.696 302.682,624.696 "/>
<polyline clip-path="url(#clip170)" style="stroke:#000000; stroke-linecap:round; stroke-linejoin:round; stroke-width:4; stroke-opacity:1; fill:none" points="283.784,349.846 302.682,349.846 "/>
<path clip-path="url(#clip170)" d="M113.28 1709.9 Q109.669 1709.9 107.84 1713.46 Q106.035 1717 106.035 1724.13 Q106.035 1731.24 107.84 1734.8 Q109.669 1738.35 113.28 1738.35 Q116.914 1738.35 118.72 1734.8 Q120.548 1731.24 120.548 1724.13 Q120.548 1717 118.72 1713.46 Q116.914 1709.9 113.28 1709.9 M113.28 1706.19 Q119.09 1706.19 122.146 1710.8 Q125.224 1715.38 125.224 1724.13 Q125.224 1732.86 122.146 1737.47 Q119.09 1742.05 113.28 1742.05 Q107.47 1742.05 104.391 1737.47 Q101.336 1732.86 101.336 1724.13 Q101.336 1715.38 104.391 1710.8 Q107.47 1706.19 113.28 1706.19 Z" fill="#000000" fill-rule="nonzero" fill-opacity="1" /><path clip-path="url(#clip170)" d="M133.442 1735.5 L138.326 1735.5 L138.326 1741.38 L133.442 1741.38 L133.442 1735.5 Z" fill="#000000" fill-rule="nonzero" fill-opacity="1" /><path clip-path="url(#clip170)" d="M161.358 1710.89 L149.553 1729.34 L161.358 1729.34 L161.358 1710.89 M160.132 1706.82 L166.011 1706.82 L166.011 1729.34 L170.942 1729.34 L170.942 1733.23 L166.011 1733.23 L166.011 1741.38 L161.358 1741.38 L161.358 1733.23 L145.757 1733.23 L145.757 1728.72 L160.132 1706.82 Z" fill="#000000" fill-rule="nonzero" fill-opacity="1" /><path clip-path="url(#clip170)" d="M188.673 1724.97 Q185.34 1724.97 183.418 1726.75 Q181.52 1728.53 181.52 1731.66 Q181.52 1734.78 183.418 1736.56 Q185.34 1738.35 188.673 1738.35 Q192.006 1738.35 193.928 1736.56 Q195.849 1734.76 195.849 1731.66 Q195.849 1728.53 193.928 1726.75 Q192.029 1724.97 188.673 1724.97 M183.997 1722.98 Q180.988 1722.23 179.298 1720.17 Q177.631 1718.11 177.631 1715.15 Q177.631 1711.01 180.571 1708.6 Q183.534 1706.19 188.673 1706.19 Q193.835 1706.19 196.775 1708.6 Q199.715 1711.01 199.715 1715.15 Q199.715 1718.11 198.025 1720.17 Q196.358 1722.23 193.372 1722.98 Q196.752 1723.76 198.627 1726.05 Q200.525 1728.35 200.525 1731.66 Q200.525 1736.68 197.446 1739.36 Q194.391 1742.05 188.673 1742.05 Q182.955 1742.05 179.877 1739.36 Q176.821 1736.68 176.821 1731.66 Q176.821 1728.35 178.719 1726.05 Q180.618 1723.76 183.997 1722.98 M182.284 1715.59 Q182.284 1718.28 183.951 1719.78 Q185.641 1721.29 188.673 1721.29 Q191.682 1721.29 193.372 1719.78 Q195.085 1718.28 195.085 1715.59 Q195.085 1712.91 193.372 1711.4 Q191.682 1709.9 188.673 1709.9 Q185.641 1709.9 183.951 1711.4 Q182.284 1712.91 182.284 1715.59 Z" fill="#000000" fill-rule="nonzero" fill-opacity="1" /><path clip-path="url(#clip170)" d="M208.881 1706.82 L227.238 1706.82 L227.238 1710.75 L213.164 1710.75 L213.164 1719.23 Q214.182 1718.88 215.201 1718.72 Q216.219 1718.53 217.238 1718.53 Q223.025 1718.53 226.404 1721.7 Q229.784 1724.87 229.784 1730.29 Q229.784 1735.87 226.312 1738.97 Q222.84 1742.05 216.52 1742.05 Q214.344 1742.05 212.076 1741.68 Q209.83 1741.31 207.423 1740.57 L207.423 1735.87 Q209.506 1737 211.728 1737.56 Q213.951 1738.11 216.427 1738.11 Q220.432 1738.11 222.77 1736.01 Q225.108 1733.9 225.108 1730.29 Q225.108 1726.68 222.77 1724.57 Q220.432 1722.47 216.427 1722.47 Q214.553 1722.47 212.678 1722.88 Q210.826 1723.3 208.881 1724.18 L208.881 1706.82 Z" fill="#000000" fill-rule="nonzero" fill-opacity="1" /><path clip-path="url(#clip170)" d="M112.285 1435.05 Q108.673 1435.05 106.845 1438.61 Q105.039 1442.15 105.039 1449.28 Q105.039 1456.39 106.845 1459.95 Q108.673 1463.5 112.285 1463.5 Q115.919 1463.5 117.724 1459.95 Q119.553 1456.39 119.553 1449.28 Q119.553 1442.15 117.724 1438.61 Q115.919 1435.05 112.285 1435.05 M112.285 1431.34 Q118.095 1431.34 121.15 1435.95 Q124.229 1440.53 124.229 1449.28 Q124.229 1458.01 121.15 1462.62 Q118.095 1467.2 112.285 1467.2 Q106.474 1467.2 103.396 1462.62 Q100.34 1458.01 100.34 1449.28 Q100.34 1440.53 103.396 1435.95 Q106.474 1431.34 112.285 1431.34 Z" fill="#000000" fill-rule="nonzero" fill-opacity="1" /><path clip-path="url(#clip170)" d="M132.446 1460.65 L137.331 1460.65 L137.331 1466.53 L132.446 1466.53 L132.446 1460.65 Z" fill="#000000" fill-rule="nonzero" fill-opacity="1" /><path clip-path="url(#clip170)" d="M160.363 1436.04 L148.557 1454.49 L160.363 1454.49 L160.363 1436.04 M159.136 1431.97 L165.016 1431.97 L165.016 1454.49 L169.946 1454.49 L169.946 1458.38 L165.016 1458.38 L165.016 1466.53 L160.363 1466.53 L160.363 1458.38 L144.761 1458.38 L144.761 1453.87 L159.136 1431.97 Z" fill="#000000" fill-rule="nonzero" fill-opacity="1" /><path clip-path="url(#clip170)" d="M177.817 1465.81 L177.817 1461.55 Q179.576 1462.38 181.381 1462.82 Q183.187 1463.26 184.923 1463.26 Q189.553 1463.26 191.983 1460.16 Q194.437 1457.04 194.784 1450.69 Q193.442 1452.69 191.381 1453.75 Q189.321 1454.81 186.821 1454.81 Q181.636 1454.81 178.604 1451.69 Q175.594 1448.54 175.594 1443.1 Q175.594 1437.78 178.743 1434.56 Q181.891 1431.34 187.122 1431.34 Q193.117 1431.34 196.266 1435.95 Q199.437 1440.53 199.437 1449.28 Q199.437 1457.45 195.548 1462.34 Q191.682 1467.2 185.131 1467.2 Q183.372 1467.2 181.567 1466.85 Q179.761 1466.5 177.817 1465.81 M187.122 1451.16 Q190.27 1451.16 192.099 1449 Q193.951 1446.85 193.951 1443.1 Q193.951 1439.38 192.099 1437.22 Q190.27 1435.05 187.122 1435.05 Q183.974 1435.05 182.122 1437.22 Q180.293 1439.38 180.293 1443.1 Q180.293 1446.85 182.122 1449 Q183.974 1451.16 187.122 1451.16 Z" fill="#000000" fill-rule="nonzero" fill-opacity="1" /><path clip-path="url(#clip170)" d="M217.84 1435.05 Q214.228 1435.05 212.4 1438.61 Q210.594 1442.15 210.594 1449.28 Q210.594 1456.39 212.4 1459.95 Q214.228 1463.5 217.84 1463.5 Q221.474 1463.5 223.279 1459.95 Q225.108 1456.39 225.108 1449.28 Q225.108 1442.15 223.279 1438.61 Q221.474 1435.05 217.84 1435.05 M217.84 1431.34 Q223.65 1431.34 226.705 1435.95 Q229.784 1440.53 229.784 1449.28 Q229.784 1458.01 226.705 1462.62 Q223.65 1467.2 217.84 1467.2 Q212.029 1467.2 208.951 1462.62 Q205.895 1458.01 205.895 1449.28 Q205.895 1440.53 208.951 1435.95 Q212.029 1431.34 217.84 1431.34 Z" fill="#000000" fill-rule="nonzero" fill-opacity="1" /><path clip-path="url(#clip170)" d="M113.28 1160.2 Q109.669 1160.2 107.84 1163.76 Q106.035 1167.3 106.035 1174.43 Q106.035 1181.54 107.84 1185.1 Q109.669 1188.64 113.28 1188.64 Q116.914 1188.64 118.72 1185.1 Q120.548 1181.54 120.548 1174.43 Q120.548 1167.3 118.72 1163.76 Q116.914 1160.2 113.28 1160.2 M113.28 1156.49 Q119.09 1156.49 122.146 1161.1 Q125.224 1165.68 125.224 1174.43 Q125.224 1183.16 122.146 1187.77 Q119.09 1192.35 113.28 1192.35 Q107.47 1192.35 104.391 1187.77 Q101.336 1183.16 101.336 1174.43 Q101.336 1165.68 104.391 1161.1 Q107.47 1156.49 113.28 1156.49 Z" fill="#000000" fill-rule="nonzero" fill-opacity="1" /><path clip-path="url(#clip170)" d="M133.442 1185.8 L138.326 1185.8 L138.326 1191.68 L133.442 1191.68 L133.442 1185.8 Z" fill="#000000" fill-rule="nonzero" fill-opacity="1" /><path clip-path="url(#clip170)" d="M161.358 1161.19 L149.553 1179.64 L161.358 1179.64 L161.358 1161.19 M160.132 1157.12 L166.011 1157.12 L166.011 1179.64 L170.942 1179.64 L170.942 1183.53 L166.011 1183.53 L166.011 1191.68 L161.358 1191.68 L161.358 1183.53 L145.757 1183.53 L145.757 1179.02 L160.132 1157.12 Z" fill="#000000" fill-rule="nonzero" fill-opacity="1" /><path clip-path="url(#clip170)" d="M178.812 1190.96 L178.812 1186.7 Q180.571 1187.53 182.377 1187.97 Q184.182 1188.41 185.918 1188.41 Q190.548 1188.41 192.979 1185.31 Q195.432 1182.19 195.779 1175.84 Q194.437 1177.83 192.377 1178.9 Q190.317 1179.96 187.817 1179.96 Q182.631 1179.96 179.599 1176.84 Q176.59 1173.69 176.59 1168.25 Q176.59 1162.93 179.738 1159.71 Q182.886 1156.49 188.117 1156.49 Q194.113 1156.49 197.261 1161.1 Q200.432 1165.68 200.432 1174.43 Q200.432 1182.6 196.543 1187.49 Q192.678 1192.35 186.127 1192.35 Q184.367 1192.35 182.562 1192 Q180.756 1191.65 178.812 1190.96 M188.117 1176.31 Q191.266 1176.31 193.094 1174.15 Q194.946 1172 194.946 1168.25 Q194.946 1164.52 193.094 1162.37 Q191.266 1160.2 188.117 1160.2 Q184.969 1160.2 183.117 1162.37 Q181.289 1164.52 181.289 1168.25 Q181.289 1172 183.117 1174.15 Q184.969 1176.31 188.117 1176.31 Z" fill="#000000" fill-rule="nonzero" fill-opacity="1" /><path clip-path="url(#clip170)" d="M208.881 1157.12 L227.238 1157.12 L227.238 1161.05 L213.164 1161.05 L213.164 1169.52 Q214.182 1169.18 215.201 1169.02 Q216.219 1168.83 217.238 1168.83 Q223.025 1168.83 226.404 1172 Q229.784 1175.17 229.784 1180.59 Q229.784 1186.17 226.312 1189.27 Q222.84 1192.35 216.52 1192.35 Q214.344 1192.35 212.076 1191.98 Q209.83 1191.61 207.423 1190.87 L207.423 1186.17 Q209.506 1187.3 211.728 1187.86 Q213.951 1188.41 216.427 1188.41 Q220.432 1188.41 222.77 1186.31 Q225.108 1184.2 225.108 1180.59 Q225.108 1176.98 222.77 1174.87 Q220.432 1172.77 216.427 1172.77 Q214.553 1172.77 212.678 1173.18 Q210.826 1173.6 208.881 1174.48 L208.881 1157.12 Z" fill="#000000" fill-rule="nonzero" fill-opacity="1" /><path clip-path="url(#clip170)" d="M112.285 885.345 Q108.673 885.345 106.845 888.91 Q105.039 892.452 105.039 899.582 Q105.039 906.688 106.845 910.253 Q108.673 913.794 112.285 913.794 Q115.919 913.794 117.724 910.253 Q119.553 906.688 119.553 899.582 Q119.553 892.452 117.724 888.91 Q115.919 885.345 112.285 885.345 M112.285 881.642 Q118.095 881.642 121.15 886.248 Q124.229 890.832 124.229 899.582 Q124.229 908.308 121.15 912.915 Q118.095 917.498 112.285 917.498 Q106.474 917.498 103.396 912.915 Q100.34 908.308 100.34 899.582 Q100.34 890.832 103.396 886.248 Q106.474 881.642 112.285 881.642 Z" fill="#000000" fill-rule="nonzero" fill-opacity="1" /><path clip-path="url(#clip170)" d="M132.446 910.947 L137.331 910.947 L137.331 916.827 L132.446 916.827 L132.446 910.947 Z" fill="#000000" fill-rule="nonzero" fill-opacity="1" /><path clip-path="url(#clip170)" d="M147.562 882.267 L165.919 882.267 L165.919 886.202 L151.845 886.202 L151.845 894.674 Q152.863 894.327 153.882 894.165 Q154.9 893.98 155.919 893.98 Q161.706 893.98 165.085 897.151 Q168.465 900.322 168.465 905.739 Q168.465 911.318 164.993 914.419 Q161.52 917.498 155.201 917.498 Q153.025 917.498 150.757 917.128 Q148.511 916.757 146.104 916.017 L146.104 911.318 Q148.187 912.452 150.409 913.007 Q152.632 913.563 155.108 913.563 Q159.113 913.563 161.451 911.456 Q163.789 909.35 163.789 905.739 Q163.789 902.128 161.451 900.021 Q159.113 897.915 155.108 897.915 Q153.233 897.915 151.358 898.332 Q149.507 898.748 147.562 899.628 L147.562 882.267 Z" fill="#000000" fill-rule="nonzero" fill-opacity="1" /><path clip-path="url(#clip170)" d="M187.678 885.345 Q184.067 885.345 182.238 888.91 Q180.432 892.452 180.432 899.582 Q180.432 906.688 182.238 910.253 Q184.067 913.794 187.678 913.794 Q191.312 913.794 193.117 910.253 Q194.946 906.688 194.946 899.582 Q194.946 892.452 193.117 888.91 Q191.312 885.345 187.678 885.345 M187.678 881.642 Q193.488 881.642 196.543 886.248 Q199.622 890.832 199.622 899.582 Q199.622 908.308 196.543 912.915 Q193.488 917.498 187.678 917.498 Q181.867 917.498 178.789 912.915 Q175.733 908.308 175.733 899.582 Q175.733 890.832 178.789 886.248 Q181.867 881.642 187.678 881.642 Z" fill="#000000" fill-rule="nonzero" fill-opacity="1" /><path clip-path="url(#clip170)" d="M217.84 885.345 Q214.228 885.345 212.4 888.91 Q210.594 892.452 210.594 899.582 Q210.594 906.688 212.4 910.253 Q214.228 913.794 217.84 913.794 Q221.474 913.794 223.279 910.253 Q225.108 906.688 225.108 899.582 Q225.108 892.452 223.279 888.91 Q221.474 885.345 217.84 885.345 M217.84 881.642 Q223.65 881.642 226.705 886.248 Q229.784 890.832 229.784 899.582 Q229.784 908.308 226.705 912.915 Q223.65 917.498 217.84 917.498 Q212.029 917.498 208.951 912.915 Q205.895 908.308 205.895 899.582 Q205.895 890.832 208.951 886.248 Q212.029 881.642 217.84 881.642 Z" fill="#000000" fill-rule="nonzero" fill-opacity="1" /><path clip-path="url(#clip170)" d="M113.28 610.495 Q109.669 610.495 107.84 614.06 Q106.035 617.602 106.035 624.731 Q106.035 631.838 107.84 635.402 Q109.669 638.944 113.28 638.944 Q116.914 638.944 118.72 635.402 Q120.548 631.838 120.548 624.731 Q120.548 617.602 118.72 614.06 Q116.914 610.495 113.28 610.495 M113.28 606.791 Q119.09 606.791 122.146 611.398 Q125.224 615.981 125.224 624.731 Q125.224 633.458 122.146 638.064 Q119.09 642.648 113.28 642.648 Q107.47 642.648 104.391 638.064 Q101.336 633.458 101.336 624.731 Q101.336 615.981 104.391 611.398 Q107.47 606.791 113.28 606.791 Z" fill="#000000" fill-rule="nonzero" fill-opacity="1" /><path clip-path="url(#clip170)" d="M133.442 636.097 L138.326 636.097 L138.326 641.976 L133.442 641.976 L133.442 636.097 Z" fill="#000000" fill-rule="nonzero" fill-opacity="1" /><path clip-path="url(#clip170)" d="M148.557 607.416 L166.914 607.416 L166.914 611.352 L152.84 611.352 L152.84 619.824 Q153.858 619.476 154.877 619.314 Q155.895 619.129 156.914 619.129 Q162.701 619.129 166.081 622.301 Q169.46 625.472 169.46 630.888 Q169.46 636.467 165.988 639.569 Q162.516 642.648 156.196 642.648 Q154.02 642.648 151.752 642.277 Q149.507 641.907 147.099 641.166 L147.099 636.467 Q149.182 637.601 151.405 638.157 Q153.627 638.712 156.104 638.712 Q160.108 638.712 162.446 636.606 Q164.784 634.5 164.784 630.888 Q164.784 627.277 162.446 625.171 Q160.108 623.064 156.104 623.064 Q154.229 623.064 152.354 623.481 Q150.502 623.898 148.557 624.777 L148.557 607.416 Z" fill="#000000" fill-rule="nonzero" fill-opacity="1" /><path clip-path="url(#clip170)" d="M188.673 610.495 Q185.062 610.495 183.233 614.06 Q181.428 617.602 181.428 624.731 Q181.428 631.838 183.233 635.402 Q185.062 638.944 188.673 638.944 Q192.307 638.944 194.113 635.402 Q195.941 631.838 195.941 624.731 Q195.941 617.602 194.113 614.06 Q192.307 610.495 188.673 610.495 M188.673 606.791 Q194.483 606.791 197.539 611.398 Q200.617 615.981 200.617 624.731 Q200.617 633.458 197.539 638.064 Q194.483 642.648 188.673 642.648 Q182.863 642.648 179.784 638.064 Q176.729 633.458 176.729 624.731 Q176.729 615.981 179.784 611.398 Q182.863 606.791 188.673 606.791 Z" fill="#000000" fill-rule="nonzero" fill-opacity="1" /><path clip-path="url(#clip170)" d="M208.881 607.416 L227.238 607.416 L227.238 611.352 L213.164 611.352 L213.164 619.824 Q214.182 619.476 215.201 619.314 Q216.219 619.129 217.238 619.129 Q223.025 619.129 226.404 622.301 Q229.784 625.472 229.784 630.888 Q229.784 636.467 226.312 639.569 Q222.84 642.648 216.52 642.648 Q214.344 642.648 212.076 642.277 Q209.83 641.907 207.423 641.166 L207.423 636.467 Q209.506 637.601 211.728 638.157 Q213.951 638.712 216.427 638.712 Q220.432 638.712 222.77 636.606 Q225.108 634.5 225.108 630.888 Q225.108 627.277 222.77 625.171 Q220.432 623.064 216.427 623.064 Q214.553 623.064 212.678 623.481 Q210.826 623.898 208.881 624.777 L208.881 607.416 Z" fill="#000000" fill-rule="nonzero" fill-opacity="1" /><path clip-path="url(#clip170)" d="M112.285 335.645 Q108.673 335.645 106.845 339.209 Q105.039 342.751 105.039 349.881 Q105.039 356.987 106.845 360.552 Q108.673 364.094 112.285 364.094 Q115.919 364.094 117.724 360.552 Q119.553 356.987 119.553 349.881 Q119.553 342.751 117.724 339.209 Q115.919 335.645 112.285 335.645 M112.285 331.941 Q118.095 331.941 121.15 336.547 Q124.229 341.131 124.229 349.881 Q124.229 358.607 121.15 363.214 Q118.095 367.797 112.285 367.797 Q106.474 367.797 103.396 363.214 Q100.34 358.607 100.34 349.881 Q100.34 341.131 103.396 336.547 Q106.474 331.941 112.285 331.941 Z" fill="#000000" fill-rule="nonzero" fill-opacity="1" /><path clip-path="url(#clip170)" d="M132.446 361.246 L137.331 361.246 L137.331 367.126 L132.446 367.126 L132.446 361.246 Z" fill="#000000" fill-rule="nonzero" fill-opacity="1" /><path clip-path="url(#clip170)" d="M147.562 332.566 L165.919 332.566 L165.919 336.501 L151.845 336.501 L151.845 344.973 Q152.863 344.626 153.882 344.464 Q154.9 344.279 155.919 344.279 Q161.706 344.279 165.085 347.45 Q168.465 350.621 168.465 356.038 Q168.465 361.617 164.993 364.719 Q161.52 367.797 155.201 367.797 Q153.025 367.797 150.757 367.427 Q148.511 367.057 146.104 366.316 L146.104 361.617 Q148.187 362.751 150.409 363.307 Q152.632 363.862 155.108 363.862 Q159.113 363.862 161.451 361.756 Q163.789 359.649 163.789 356.038 Q163.789 352.427 161.451 350.32 Q159.113 348.214 155.108 348.214 Q153.233 348.214 151.358 348.631 Q149.507 349.047 147.562 349.927 L147.562 332.566 Z" fill="#000000" fill-rule="nonzero" fill-opacity="1" /><path clip-path="url(#clip170)" d="M178.488 363.191 L186.127 363.191 L186.127 336.825 L177.817 338.492 L177.817 334.233 L186.08 332.566 L190.756 332.566 L190.756 363.191 L198.395 363.191 L198.395 367.126 L178.488 367.126 L178.488 363.191 Z" fill="#000000" fill-rule="nonzero" fill-opacity="1" /><path clip-path="url(#clip170)" d="M217.84 335.645 Q214.228 335.645 212.4 339.209 Q210.594 342.751 210.594 349.881 Q210.594 356.987 212.4 360.552 Q214.228 364.094 217.84 364.094 Q221.474 364.094 223.279 360.552 Q225.108 356.987 225.108 349.881 Q225.108 342.751 223.279 339.209 Q221.474 335.645 217.84 335.645 M217.84 331.941 Q223.65 331.941 226.705 336.547 Q229.784 341.131 229.784 349.881 Q229.784 358.607 226.705 363.214 Q223.65 367.797 217.84 367.797 Q212.029 367.797 208.951 363.214 Q205.895 358.607 205.895 349.881 Q205.895 341.131 208.951 336.547 Q212.029 331.941 217.84 331.941 Z" fill="#000000" fill-rule="nonzero" fill-opacity="1" /><path clip-path="url(#clip170)" d="M-15.4358 1555.92 L-15.4358 1525.88 L-10.025 1525.88 L-10.025 1549.49 L4.04322 1549.49 L4.04322 1526.86 L9.45407 1526.86 L9.45407 1549.49 L26.6733 1549.49 L26.6733 1525.3 L32.0842 1525.3 L32.0842 1555.92 L-15.4358 1555.92 Z" fill="#000000" fill-rule="nonzero" fill-opacity="1" /><path clip-path="url(#clip170)" d="M14.292 1511.49 Q20.7532 1511.49 24.4453 1508.85 Q28.1056 1506.17 28.1056 1501.53 Q28.1056 1496.88 24.4453 1494.21 Q20.7532 1491.53 14.292 1491.53 Q7.83082 1491.53 4.17053 1494.21 Q0.478424 1496.88 0.478424 1501.53 Q0.478424 1506.17 4.17053 1508.85 Q7.83082 1511.49 14.292 1511.49 M26.737 1491.53 Q29.9198 1493.38 31.4794 1496.21 Q33.0072 1499.01 33.0072 1502.96 Q33.0072 1509.42 27.851 1513.49 Q22.6947 1517.54 14.292 1517.54 Q5.88927 1517.54 0.733052 1513.49 Q-4.42317 1509.42 -4.42317 1502.96 Q-4.42317 1499.01 -2.86357 1496.21 Q-1.3358 1493.38 1.84705 1491.53 L-3.5638 1491.53 L-3.5638 1485.68 L45.6431 1485.68 L45.6431 1491.53 L26.737 1491.53 Z" fill="#000000" fill-rule="nonzero" fill-opacity="1" /><path clip-path="url(#clip170)" d="M18.0159 1474.22 L-3.5638 1474.22 L-3.5638 1468.36 L17.7931 1468.36 Q22.8539 1468.36 25.4002 1466.39 Q27.9146 1464.42 27.9146 1460.47 Q27.9146 1455.73 24.8909 1452.99 Q21.8672 1450.22 16.6473 1450.22 L-3.5638 1450.22 L-3.5638 1444.36 L32.0842 1444.36 L32.0842 1450.22 L26.6096 1450.22 Q29.8562 1452.35 31.4476 1455.19 Q33.0072 1457.99 33.0072 1461.71 Q33.0072 1467.85 29.1878 1471.04 Q25.3683 1474.22 18.0159 1474.22 M-4.42317 1459.48 L-4.42317 1459.48 Z" fill="#000000" fill-rule="nonzero" fill-opacity="1" /><path clip-path="url(#clip170)" d="M-3.5638 1432.3 L-3.5638 1426.44 L32.0842 1426.44 L32.0842 1432.3 L-3.5638 1432.3 M-17.441 1432.3 L-17.441 1426.44 L-10.025 1426.44 L-10.025 1432.3 L-17.441 1432.3 Z" fill="#000000" fill-rule="nonzero" fill-opacity="1" /><path clip-path="url(#clip170)" d="M-17.441 1414.19 L-17.441 1408.33 L32.0842 1408.33 L32.0842 1414.19 L-17.441 1414.19 Z" fill="#000000" fill-rule="nonzero" fill-opacity="1" /><path clip-path="url(#clip170)" d="M-3.5638 1396.08 L-3.5638 1390.22 L32.0842 1390.22 L32.0842 1396.08 L-3.5638 1396.08 M-17.441 1396.08 L-17.441 1390.22 L-10.025 1390.22 L-10.025 1396.08 L-17.441 1396.08 Z" fill="#000000" fill-rule="nonzero" fill-opacity="1" /><path clip-path="url(#clip170)" d="M14.292 1352.38 Q7.83082 1352.38 4.17053 1355.05 Q0.478424 1357.69 0.478424 1362.34 Q0.478424 1366.99 4.17053 1369.66 Q7.83082 1372.3 14.292 1372.3 Q20.7532 1372.3 24.4453 1369.66 Q28.1056 1366.99 28.1056 1362.34 Q28.1056 1357.69 24.4453 1355.05 Q20.7532 1352.38 14.292 1352.38 M1.84705 1372.3 Q-1.3358 1370.46 -2.86357 1367.66 Q-4.42317 1364.82 -4.42317 1360.91 Q-4.42317 1354.42 0.733052 1350.37 Q5.88927 1346.3 14.292 1346.3 Q22.6947 1346.3 27.851 1350.37 Q33.0072 1354.42 33.0072 1360.91 Q33.0072 1364.82 31.4794 1367.66 Q29.9198 1370.46 26.737 1372.3 L32.0842 1372.3 L32.0842 1378.19 L-17.441 1378.19 L-17.441 1372.3 L1.84705 1372.3 Z" fill="#000000" fill-rule="nonzero" fill-opacity="1" /><path clip-path="url(#clip170)" d="M1.91071 1315.94 Q1.33779 1316.92 1.08317 1318.1 Q0.796709 1319.25 0.796709 1320.65 Q0.796709 1325.61 4.04322 1328.28 Q7.2579 1330.93 13.3053 1330.93 L32.0842 1330.93 L32.0842 1336.81 L-3.5638 1336.81 L-3.5638 1330.93 L1.97437 1330.93 Q-1.27215 1329.08 -2.83174 1326.12 Q-4.42317 1323.16 -4.42317 1318.93 Q-4.42317 1318.32 -4.32768 1317.59 Q-4.26403 1316.86 -4.10488 1315.97 L1.91071 1315.94 Z" fill="#000000" fill-rule="nonzero" fill-opacity="1" /><path clip-path="url(#clip170)" d="M-3.5638 1309.79 L-3.5638 1303.94 L32.0842 1303.94 L32.0842 1309.79 L-3.5638 1309.79 M-17.441 1309.79 L-17.441 1303.94 L-10.025 1303.94 L-10.025 1309.79 L-17.441 1309.79 Z" fill="#000000" fill-rule="nonzero" fill-opacity="1" /><path clip-path="url(#clip170)" d="M18.0159 1292.29 L-3.5638 1292.29 L-3.5638 1286.43 L17.7931 1286.43 Q22.8539 1286.43 25.4002 1284.46 Q27.9146 1282.48 27.9146 1278.54 Q27.9146 1273.79 24.8909 1271.06 Q21.8672 1268.29 16.6473 1268.29 L-3.5638 1268.29 L-3.5638 1262.43 L32.0842 1262.43 L32.0842 1268.29 L26.6096 1268.29 Q29.8562 1270.42 31.4476 1273.25 Q33.0072 1276.05 33.0072 1279.78 Q33.0072 1285.92 29.1878 1289.1 Q25.3683 1292.29 18.0159 1292.29 M-4.42317 1277.55 L-4.42317 1277.55 Z" fill="#000000" fill-rule="nonzero" fill-opacity="1" /><path clip-path="url(#clip170)" d="M3.27933 1222.61 Q-0.667403 1220.42 -2.54529 1217.36 Q-4.42317 1214.31 -4.42317 1210.17 Q-4.42317 1204.6 -0.50826 1201.58 Q3.37482 1198.55 10.5681 1198.55 L32.0842 1198.55 L32.0842 1204.44 L10.759 1204.44 Q5.63465 1204.44 3.15202 1206.25 Q0.669395 1208.07 0.669395 1211.79 Q0.669395 1216.34 3.69311 1218.99 Q6.71682 1221.63 11.9367 1221.63 L32.0842 1221.63 L32.0842 1227.52 L10.759 1227.52 Q5.60282 1227.52 3.15202 1229.33 Q0.669395 1231.14 0.669395 1234.93 Q0.669395 1239.42 3.72493 1242.06 Q6.74865 1244.7 11.9367 1244.7 L32.0842 1244.7 L32.0842 1250.59 L-3.5638 1250.59 L-3.5638 1244.7 L1.97437 1244.7 Q-1.30397 1242.7 -2.86357 1239.9 Q-4.42317 1237.1 -4.42317 1233.24 Q-4.42317 1229.36 -2.4498 1226.66 Q-0.476432 1223.92 3.27933 1222.61 Z" fill="#000000" fill-rule="nonzero" fill-opacity="1" /><path clip-path="url(#clip170)" d="M12.7961 1135.66 L15.6606 1135.66 L15.6606 1162.59 Q21.7081 1162.2 24.8909 1158.96 Q28.0419 1155.68 28.0419 1149.85 Q28.0419 1146.48 27.2144 1143.33 Q26.3869 1140.15 24.7318 1137.03 L30.2699 1137.03 Q31.6067 1140.18 32.307 1143.49 Q33.0072 1146.8 33.0072 1150.2 Q33.0072 1158.73 28.0419 1163.73 Q23.0767 1168.7 14.6103 1168.7 Q5.85745 1168.7 0.733052 1163.99 Q-4.42317 1159.24 -4.42317 1151.22 Q-4.42317 1144.03 0.223796 1139.86 Q4.83893 1135.66 12.7961 1135.66 M11.0773 1141.51 Q6.27122 1141.58 3.40665 1144.22 Q0.542081 1146.83 0.542081 1151.16 Q0.542081 1156.06 3.31116 1159.02 Q6.08025 1161.95 11.1092 1162.39 L11.0773 1141.51 Z" fill="#000000" fill-rule="nonzero" fill-opacity="1" /><path clip-path="url(#clip170)" d="M-3.5638 1097.56 L13.7828 1110.45 L32.0842 1096.89 L32.0842 1103.8 L18.0796 1114.17 L32.0842 1124.55 L32.0842 1131.46 L13.4326 1117.61 L-3.5638 1130.28 L-3.5638 1123.37 L9.13579 1113.92 L-3.5638 1104.47 L-3.5638 1097.56 Z" fill="#000000" fill-rule="nonzero" fill-opacity="1" /><path clip-path="url(#clip170)" d="M26.737 1082.95 L45.6431 1082.95 L45.6431 1088.84 L-3.5638 1088.84 L-3.5638 1082.95 L1.84705 1082.95 Q-1.3358 1081.1 -2.86357 1078.3 Q-4.42317 1075.47 -4.42317 1071.56 Q-4.42317 1065.06 0.733052 1061.02 Q5.88927 1056.95 14.292 1056.95 Q22.6947 1056.95 27.851 1061.02 Q33.0072 1065.06 33.0072 1071.56 Q33.0072 1075.47 31.4794 1078.3 Q29.9198 1081.1 26.737 1082.95 M14.292 1063.03 Q7.83082 1063.03 4.17053 1065.7 Q0.478424 1068.34 0.478424 1072.99 Q0.478424 1077.63 4.17053 1080.31 Q7.83082 1082.95 14.292 1082.95 Q20.7532 1082.95 24.4453 1080.31 Q28.1056 1077.63 28.1056 1072.99 Q28.1056 1068.34 24.4453 1065.7 Q20.7532 1063.03 14.292 1063.03 Z" fill="#000000" fill-rule="nonzero" fill-opacity="1" /><path clip-path="url(#clip170)" d="M0.542081 1033.43 Q0.542081 1038.14 4.23419 1040.87 Q7.89447 1043.61 14.292 1043.61 Q20.6895 1043.61 24.3817 1040.9 Q28.0419 1038.17 28.0419 1033.43 Q28.0419 1028.75 24.3498 1026.01 Q20.6577 1023.27 14.292 1023.27 Q7.95813 1023.27 4.26602 1026.01 Q0.542081 1028.75 0.542081 1033.43 M-4.42317 1033.43 Q-4.42317 1025.79 0.542081 1021.43 Q5.50733 1017.07 14.292 1017.07 Q23.0449 1017.07 28.0419 1021.43 Q33.0072 1025.79 33.0072 1033.43 Q33.0072 1041.1 28.0419 1045.46 Q23.0449 1049.79 14.292 1049.79 Q5.50733 1049.79 0.542081 1045.46 Q-4.42317 1041.1 -4.42317 1033.43 Z" fill="#000000" fill-rule="nonzero" fill-opacity="1" /><path clip-path="url(#clip170)" d="M-2.51346 984.632 L3.02471 984.632 Q1.75157 987.115 1.11499 989.788 Q0.478424 992.462 0.478424 995.326 Q0.478424 999.687 1.81522 1001.88 Q3.15202 1004.05 5.82562 1004.05 Q7.86264 1004.05 9.0403 1002.49 Q10.1861 1000.93 11.2365 996.218 L11.6821 994.212 Q13.0189 987.974 15.4697 985.364 Q17.8886 982.722 22.2491 982.722 Q27.2144 982.722 30.1108 986.669 Q33.0072 990.584 33.0072 997.459 Q33.0072 1000.32 32.4343 1003.44 Q31.8932 1006.53 30.7792 1009.97 L24.7318 1009.97 Q26.4187 1006.72 27.278 1003.57 Q28.1056 1000.42 28.1056 997.332 Q28.1056 993.194 26.7051 990.966 Q25.2729 988.738 22.6947 988.738 Q20.3076 988.738 19.0345 990.361 Q17.7613 991.953 16.5837 997.395 L16.1062 999.432 Q14.9604 1004.87 12.6051 1007.29 Q10.218 1009.71 6.08025 1009.71 Q1.05134 1009.71 -1.68592 1006.15 Q-4.42317 1002.58 -4.42317 996.027 Q-4.42317 992.78 -3.94574 989.916 Q-3.46831 987.051 -2.51346 984.632 Z" fill="#000000" fill-rule="nonzero" fill-opacity="1" /><path clip-path="url(#clip170)" d="M18.0159 974.001 L-3.5638 974.001 L-3.5638 968.145 L17.7931 968.145 Q22.8539 968.145 25.4002 966.171 Q27.9146 964.198 27.9146 960.251 Q27.9146 955.509 24.8909 952.772 Q21.8672 950.003 16.6473 950.003 L-3.5638 950.003 L-3.5638 944.146 L32.0842 944.146 L32.0842 950.003 L26.6096 950.003 Q29.8562 952.135 31.4476 954.968 Q33.0072 957.769 33.0072 961.493 Q33.0072 967.636 29.1878 970.818 Q25.3683 974.001 18.0159 974.001 M-4.42317 959.265 L-4.42317 959.265 Z" fill="#000000" fill-rule="nonzero" fill-opacity="1" /><path clip-path="url(#clip170)" d="M1.91071 911.426 Q1.33779 912.413 1.08317 913.591 Q0.796709 914.737 0.796709 916.137 Q0.796709 921.102 4.04322 923.776 Q7.2579 926.418 13.3053 926.418 L32.0842 926.418 L32.0842 932.306 L-3.5638 932.306 L-3.5638 926.418 L1.97437 926.418 Q-1.27215 924.572 -2.83174 921.612 Q-4.42317 918.651 -4.42317 914.418 Q-4.42317 913.814 -4.32768 913.081 Q-4.26403 912.349 -4.10488 911.458 L1.91071 911.426 Z" fill="#000000" fill-rule="nonzero" fill-opacity="1" /><path clip-path="url(#clip170)" d="M12.7961 876.224 L15.6606 876.224 L15.6606 903.151 Q21.7081 902.769 24.8909 899.523 Q28.0419 896.244 28.0419 890.42 Q28.0419 887.046 27.2144 883.895 Q26.3869 880.712 24.7318 877.593 L30.2699 877.593 Q31.6067 880.744 32.307 884.054 Q33.0072 887.364 33.0072 890.77 Q33.0072 899.3 28.0419 904.297 Q23.0767 909.262 14.6103 909.262 Q5.85745 909.262 0.733052 904.551 Q-4.42317 899.809 -4.42317 891.788 Q-4.42317 884.595 0.223796 880.425 Q4.83893 876.224 12.7961 876.224 M11.0773 882.08 Q6.27122 882.144 3.40665 884.786 Q0.542081 887.396 0.542081 891.725 Q0.542081 896.626 3.31116 899.586 Q6.08025 902.514 11.1092 902.96 L11.0773 882.08 Z" fill="#000000" fill-rule="nonzero" fill-opacity="1" /><path clip-path="url(#clip170)" d="M-17.3774 831.823 Q-10.0568 836.088 -2.8954 838.157 Q4.26602 840.226 11.6184 840.226 Q18.9708 840.226 26.1959 838.157 Q33.3891 836.056 40.6779 831.823 L40.6779 836.916 Q33.1982 841.69 25.9731 844.077 Q18.748 846.433 11.6184 846.433 Q4.52065 846.433 -2.6726 844.077 Q-9.86585 841.722 -17.3774 836.916 L-17.3774 831.823 Z" fill="#000000" fill-rule="nonzero" fill-opacity="1" /><path clip-path="url(#clip170)" d="M-13.6853 814.668 L-3.5638 814.668 L-3.5638 802.605 L0.987681 802.605 L0.987681 814.668 L20.3394 814.668 Q24.6999 814.668 25.9413 813.49 Q27.1826 812.28 27.1826 808.62 L27.1826 802.605 L32.0842 802.605 L32.0842 808.62 Q32.0842 815.4 29.5697 817.978 Q27.0234 820.556 20.3394 820.556 L0.987681 820.556 L0.987681 824.853 L-3.5638 824.853 L-3.5638 820.556 L-13.6853 820.556 L-13.6853 814.668 Z" fill="#000000" fill-rule="nonzero" fill-opacity="1" /><path clip-path="url(#clip170)" d="M10.5681 765.27 L32.0842 765.27 L32.0842 771.126 L10.759 771.126 Q5.6983 771.126 3.18385 773.1 Q0.669395 775.073 0.669395 779.02 Q0.669395 783.762 3.69311 786.499 Q6.71682 789.237 11.9367 789.237 L32.0842 789.237 L32.0842 795.125 L-17.441 795.125 L-17.441 789.237 L1.97437 789.237 Q-1.24032 787.136 -2.83174 784.303 Q-4.42317 781.439 -4.42317 777.715 Q-4.42317 771.572 -0.603746 768.421 Q3.18385 765.27 10.5681 765.27 Z" fill="#000000" fill-rule="nonzero" fill-opacity="1" /><path clip-path="url(#clip170)" d="M1.91071 732.932 Q1.33779 733.919 1.08317 735.096 Q0.796709 736.242 0.796709 737.643 Q0.796709 742.608 4.04322 745.281 Q7.2579 747.923 13.3053 747.923 L32.0842 747.923 L32.0842 753.811 L-3.5638 753.811 L-3.5638 747.923 L1.97437 747.923 Q-1.27215 746.077 -2.83174 743.117 Q-4.42317 740.157 -4.42317 735.924 Q-4.42317 735.319 -4.32768 734.587 Q-4.26403 733.855 -4.10488 732.964 L1.91071 732.932 Z" fill="#000000" fill-rule="nonzero" fill-opacity="1" /><path clip-path="url(#clip170)" d="M12.7961 697.73 L15.6606 697.73 L15.6606 724.657 Q21.7081 724.275 24.8909 721.028 Q28.0419 717.75 28.0419 711.925 Q28.0419 708.551 27.2144 705.4 Q26.3869 702.217 24.7318 699.098 L30.2699 699.098 Q31.6067 702.249 32.307 705.559 Q33.0072 708.87 33.0072 712.275 Q33.0072 720.805 28.0419 725.802 Q23.0767 730.768 14.6103 730.768 Q5.85745 730.768 0.733052 726.057 Q-4.42317 721.315 -4.42317 713.294 Q-4.42317 706.101 0.223796 701.931 Q4.83893 697.73 12.7961 697.73 M11.0773 703.586 Q6.27122 703.65 3.40665 706.291 Q0.542081 708.901 0.542081 713.23 Q0.542081 718.132 3.31116 721.092 Q6.08025 724.02 11.1092 724.466 L11.0773 703.586 Z" fill="#000000" fill-rule="nonzero" fill-opacity="1" /><path clip-path="url(#clip170)" d="M12.7961 657.626 L15.6606 657.626 L15.6606 684.553 Q21.7081 684.171 24.8909 680.924 Q28.0419 677.646 28.0419 671.821 Q28.0419 668.447 27.2144 665.296 Q26.3869 662.113 24.7318 658.994 L30.2699 658.994 Q31.6067 662.145 32.307 665.455 Q33.0072 668.766 33.0072 672.171 Q33.0072 680.701 28.0419 685.698 Q23.0767 690.664 14.6103 690.664 Q5.85745 690.664 0.733052 685.953 Q-4.42317 681.211 -4.42317 673.19 Q-4.42317 665.997 0.223796 661.827 Q4.83893 657.626 12.7961 657.626 M11.0773 663.482 Q6.27122 663.546 3.40665 666.188 Q0.542081 668.797 0.542081 673.126 Q0.542081 678.028 3.31116 680.988 Q6.08025 683.916 11.1092 684.362 L11.0773 663.482 Z" fill="#000000" fill-rule="nonzero" fill-opacity="1" /><path clip-path="url(#clip170)" d="M13.8464 603.835 Q7.4807 603.835 3.97956 606.477 Q0.478424 609.087 0.478424 613.83 Q0.478424 618.54 3.97956 621.182 Q7.4807 623.792 13.8464 623.792 Q20.1803 623.792 23.6814 621.182 Q27.1826 618.54 27.1826 613.83 Q27.1826 609.087 23.6814 606.477 Q20.1803 603.835 13.8464 603.835 M27.66 597.979 Q36.763 597.979 41.1871 602.021 Q45.6431 606.063 45.6431 614.403 Q45.6431 617.49 45.1657 620.227 Q44.7201 622.964 43.7652 625.542 L38.0679 625.542 Q39.4684 622.964 40.1368 620.45 Q40.8052 617.935 40.8052 615.326 Q40.8052 609.565 37.7815 606.7 Q34.7896 603.835 28.7103 603.835 L25.8139 603.835 Q28.965 605.65 30.5246 608.482 Q32.0842 611.315 32.0842 615.262 Q32.0842 621.819 27.0871 625.829 Q22.09 629.839 13.8464 629.839 Q5.57099 629.839 0.57391 625.829 Q-4.42317 621.819 -4.42317 615.262 Q-4.42317 611.315 -2.86357 608.482 Q-1.30397 605.65 1.84705 603.835 L-3.5638 603.835 L-3.5638 597.979 L27.66 597.979 Z" fill="#000000" fill-rule="nonzero" fill-opacity="1" /><path clip-path="url(#clip170)" d="M1.91071 565.259 Q1.33779 566.246 1.08317 567.424 Q0.796709 568.569 0.796709 569.97 Q0.796709 574.935 4.04322 577.609 Q7.2579 580.25 13.3053 580.25 L32.0842 580.25 L32.0842 586.139 L-3.5638 586.139 L-3.5638 580.25 L1.97437 580.25 Q-1.27215 578.404 -2.83174 575.444 Q-4.42317 572.484 -4.42317 568.251 Q-4.42317 567.646 -4.32768 566.914 Q-4.26403 566.182 -4.10488 565.291 L1.91071 565.259 Z" fill="#000000" fill-rule="nonzero" fill-opacity="1" /><path clip-path="url(#clip170)" d="M0.542081 546.735 Q0.542081 551.446 4.23419 554.183 Q7.89447 556.92 14.292 556.92 Q20.6895 556.92 24.3817 554.215 Q28.0419 551.477 28.0419 546.735 Q28.0419 542.056 24.3498 539.319 Q20.6577 536.582 14.292 536.582 Q7.95813 536.582 4.26602 539.319 Q0.542081 542.056 0.542081 546.735 M-4.42317 546.735 Q-4.42317 539.096 0.542081 534.736 Q5.50733 530.375 14.292 530.375 Q23.0449 530.375 28.0419 534.736 Q33.0072 539.096 33.0072 546.735 Q33.0072 554.406 28.0419 558.766 Q23.0449 563.095 14.292 563.095 Q5.50733 563.095 0.542081 558.766 Q-4.42317 554.406 -4.42317 546.735 Z" fill="#000000" fill-rule="nonzero" fill-opacity="1" /><path clip-path="url(#clip170)" d="M18.0159 521.272 L-3.5638 521.272 L-3.5638 515.416 L17.7931 515.416 Q22.8539 515.416 25.4002 513.442 Q27.9146 511.469 27.9146 507.522 Q27.9146 502.78 24.8909 500.043 Q21.8672 497.273 16.6473 497.273 L-3.5638 497.273 L-3.5638 491.417 L32.0842 491.417 L32.0842 497.273 L26.6096 497.273 Q29.8562 499.406 31.4476 502.239 Q33.0072 505.04 33.0072 508.764 Q33.0072 514.907 29.1878 518.089 Q25.3683 521.272 18.0159 521.272 M-4.42317 506.536 L-4.42317 506.536 Z" fill="#000000" fill-rule="nonzero" fill-opacity="1" /><path clip-path="url(#clip170)" d="M26.737 473.689 L45.6431 473.689 L45.6431 479.577 L-3.5638 479.577 L-3.5638 473.689 L1.84705 473.689 Q-1.3358 471.843 -2.86357 469.042 Q-4.42317 466.209 -4.42317 462.294 Q-4.42317 455.801 0.733052 451.759 Q5.88927 447.685 14.292 447.685 Q22.6947 447.685 27.851 451.759 Q33.0072 455.801 33.0072 462.294 Q33.0072 466.209 31.4794 469.042 Q29.9198 471.843 26.737 473.689 M14.292 453.764 Q7.83082 453.764 4.17053 456.437 Q0.478424 459.079 0.478424 463.726 Q0.478424 468.373 4.17053 471.047 Q7.83082 473.689 14.292 473.689 Q20.7532 473.689 24.4453 471.047 Q28.1056 468.373 28.1056 463.726 Q28.1056 459.079 24.4453 456.437 Q20.7532 453.764 14.292 453.764 Z" fill="#000000" fill-rule="nonzero" fill-opacity="1" /><path clip-path="url(#clip170)" d="M-2.51346 415.251 L3.02471 415.251 Q1.75157 417.734 1.11499 420.408 Q0.478424 423.081 0.478424 425.946 Q0.478424 430.306 1.81522 432.502 Q3.15202 434.667 5.82562 434.667 Q7.86264 434.667 9.0403 433.107 Q10.1861 431.548 11.2365 426.837 L11.6821 424.832 Q13.0189 418.593 15.4697 415.983 Q17.8886 413.342 22.2491 413.342 Q27.2144 413.342 30.1108 417.288 Q33.0072 421.203 33.0072 428.078 Q33.0072 430.943 32.4343 434.062 Q31.8932 437.149 30.7792 440.587 L24.7318 440.587 Q26.4187 437.34 27.278 434.189 Q28.1056 431.038 28.1056 427.951 Q28.1056 423.813 26.7051 421.585 Q25.2729 419.357 22.6947 419.357 Q20.3076 419.357 19.0345 420.981 Q17.7613 422.572 16.5837 428.015 L16.1062 430.052 Q14.9604 435.494 12.6051 437.913 Q10.218 440.332 6.08025 440.332 Q1.05134 440.332 -1.68592 436.767 Q-4.42317 433.203 -4.42317 426.646 Q-4.42317 423.399 -3.94574 420.535 Q-3.46831 417.67 -2.51346 415.251 Z" fill="#000000" fill-rule="nonzero" fill-opacity="1" /><path clip-path="url(#clip170)" d="M-17.3774 404.939 L-17.3774 399.846 Q-9.86585 395.072 -2.6726 392.717 Q4.52065 390.33 11.6184 390.33 Q18.748 390.33 25.9731 392.717 Q33.1982 395.072 40.6779 399.846 L40.6779 404.939 Q33.3891 400.706 26.1959 398.637 Q18.9708 396.536 11.6184 396.536 Q4.26602 396.536 -2.8954 398.637 Q-10.0568 400.706 -17.3774 404.939 Z" fill="#000000" fill-rule="nonzero" fill-opacity="1" /><path clip-path="url(#clip170)" d="M1046.11 12.096 L1084.35 12.096 L1084.35 18.9825 L1054.29 18.9825 L1054.29 36.8875 L1083.09 36.8875 L1083.09 43.7741 L1054.29 43.7741 L1054.29 65.6895 L1085.08 65.6895 L1085.08 72.576 L1046.11 72.576 L1046.11 12.096 Z" fill="#000000" fill-rule="nonzero" fill-opacity="1" /><path clip-path="url(#clip170)" d="M1102.66 49.9314 Q1102.66 58.1548 1106.02 62.8538 Q1109.43 67.5124 1115.34 67.5124 Q1121.25 67.5124 1124.66 62.8538 Q1128.06 58.1548 1128.06 49.9314 Q1128.06 41.7081 1124.66 37.0496 Q1121.25 32.3505 1115.34 32.3505 Q1109.43 32.3505 1106.02 37.0496 Q1102.66 41.7081 1102.66 49.9314 M1128.06 65.7705 Q1125.71 69.8214 1122.11 71.8063 Q1118.54 73.7508 1113.52 73.7508 Q1105.29 73.7508 1100.11 67.1883 Q1094.96 60.6258 1094.96 49.9314 Q1094.96 39.2371 1100.11 32.6746 Q1105.29 26.1121 1113.52 26.1121 Q1118.54 26.1121 1122.11 28.0971 Q1125.71 30.0415 1128.06 34.0924 L1128.06 27.2059 L1135.51 27.2059 L1135.51 89.8329 L1128.06 89.8329 L1128.06 65.7705 Z" fill="#000000" fill-rule="nonzero" fill-opacity="1" /><path clip-path="url(#clip170)" d="M1150.1 54.671 L1150.1 27.2059 L1157.55 27.2059 L1157.55 54.3874 Q1157.55 60.8284 1160.06 64.0691 Q1162.57 67.2693 1167.6 67.2693 Q1173.63 67.2693 1177.12 63.421 Q1180.64 59.5726 1180.64 52.9291 L1180.64 27.2059 L1188.09 27.2059 L1188.09 72.576 L1180.64 72.576 L1180.64 65.6084 Q1177.93 69.7404 1174.32 71.7658 Q1170.76 73.7508 1166.02 73.7508 Q1158.2 73.7508 1154.15 68.8897 Q1150.1 64.0286 1150.1 54.671 M1168.85 26.1121 L1168.85 26.1121 Z" fill="#000000" fill-rule="nonzero" fill-opacity="1" /><path clip-path="url(#clip170)" d="M1203.45 27.2059 L1210.9 27.2059 L1210.9 72.576 L1203.45 72.576 L1203.45 27.2059 M1203.45 9.54393 L1210.9 9.54393 L1210.9 18.9825 L1203.45 18.9825 L1203.45 9.54393 Z" fill="#000000" fill-rule="nonzero" fill-opacity="1" /><path clip-path="url(#clip170)" d="M1226.5 9.54393 L1233.95 9.54393 L1233.95 72.576 L1226.5 72.576 L1226.5 9.54393 Z" fill="#000000" fill-rule="nonzero" fill-opacity="1" /><path clip-path="url(#clip170)" d="M1249.55 27.2059 L1257 27.2059 L1257 72.576 L1249.55 72.576 L1249.55 27.2059 M1249.55 9.54393 L1257 9.54393 L1257 18.9825 L1249.55 18.9825 L1249.55 9.54393 Z" fill="#000000" fill-rule="nonzero" fill-opacity="1" /><path clip-path="url(#clip170)" d="M1305.17 49.9314 Q1305.17 41.7081 1301.76 37.0496 Q1298.4 32.3505 1292.49 32.3505 Q1286.57 32.3505 1283.17 37.0496 Q1279.81 41.7081 1279.81 49.9314 Q1279.81 58.1548 1283.17 62.8538 Q1286.57 67.5124 1292.49 67.5124 Q1298.4 67.5124 1301.76 62.8538 Q1305.17 58.1548 1305.17 49.9314 M1279.81 34.0924 Q1282.16 30.0415 1285.72 28.0971 Q1289.33 26.1121 1294.31 26.1121 Q1302.57 26.1121 1307.72 32.6746 Q1312.9 39.2371 1312.9 49.9314 Q1312.9 60.6258 1307.72 67.1883 Q1302.57 73.7508 1294.31 73.7508 Q1289.33 73.7508 1285.72 71.8063 Q1282.16 69.8214 1279.81 65.7705 L1279.81 72.576 L1272.31 72.576 L1272.31 9.54393 L1279.81 9.54393 L1279.81 34.0924 Z" fill="#000000" fill-rule="nonzero" fill-opacity="1" /><path clip-path="url(#clip170)" d="M1351.55 34.1734 Q1350.29 33.4443 1348.79 33.1202 Q1347.34 32.7556 1345.55 32.7556 Q1339.23 32.7556 1335.83 36.8875 Q1332.47 40.9789 1332.47 48.6757 L1332.47 72.576 L1324.97 72.576 L1324.97 27.2059 L1332.47 27.2059 L1332.47 34.2544 Q1334.82 30.1225 1338.59 28.1376 Q1342.35 26.1121 1347.74 26.1121 Q1348.51 26.1121 1349.44 26.2337 Q1350.37 26.3147 1351.51 26.5172 L1351.55 34.1734 Z" fill="#000000" fill-rule="nonzero" fill-opacity="1" /><path clip-path="url(#clip170)" d="M1359.37 27.2059 L1366.82 27.2059 L1366.82 72.576 L1359.37 72.576 L1359.37 27.2059 M1359.37 9.54393 L1366.82 9.54393 L1366.82 18.9825 L1359.37 18.9825 L1359.37 9.54393 Z" fill="#000000" fill-rule="nonzero" fill-opacity="1" /><path clip-path="url(#clip170)" d="M1381.65 54.671 L1381.65 27.2059 L1389.1 27.2059 L1389.1 54.3874 Q1389.1 60.8284 1391.61 64.0691 Q1394.12 67.2693 1399.15 67.2693 Q1405.18 67.2693 1408.67 63.421 Q1412.19 59.5726 1412.19 52.9291 L1412.19 27.2059 L1419.64 27.2059 L1419.64 72.576 L1412.19 72.576 L1412.19 65.6084 Q1409.48 69.7404 1405.87 71.7658 Q1402.31 73.7508 1397.57 73.7508 Q1389.75 73.7508 1385.7 68.8897 Q1381.65 64.0286 1381.65 54.671 M1400.4 26.1121 L1400.4 26.1121 Z" fill="#000000" fill-rule="nonzero" fill-opacity="1" /><path clip-path="url(#clip170)" d="M1470.32 35.9153 Q1473.12 30.8922 1477 28.5022 Q1480.89 26.1121 1486.16 26.1121 Q1493.25 26.1121 1497.1 31.0947 Q1500.95 36.0368 1500.95 45.1919 L1500.95 72.576 L1493.45 72.576 L1493.45 45.4349 Q1493.45 38.913 1491.14 35.7533 Q1488.83 32.5936 1484.09 32.5936 Q1478.3 32.5936 1474.94 36.4419 Q1471.58 40.2903 1471.58 46.9338 L1471.58 72.576 L1464.08 72.576 L1464.08 45.4349 Q1464.08 38.8725 1461.77 35.7533 Q1459.46 32.5936 1454.64 32.5936 Q1448.93 32.5936 1445.57 36.4824 Q1442.21 40.3308 1442.21 46.9338 L1442.21 72.576 L1434.71 72.576 L1434.71 27.2059 L1442.21 27.2059 L1442.21 34.2544 Q1444.76 30.082 1448.32 28.0971 Q1451.89 26.1121 1456.79 26.1121 Q1461.73 26.1121 1465.18 28.6237 Q1468.66 31.1352 1470.32 35.9153 Z" fill="#000000" fill-rule="nonzero" fill-opacity="1" /><path clip-path="url(#clip170)" d="M1580.99 48.0275 L1580.99 51.6733 L1546.72 51.6733 Q1547.21 59.3701 1551.34 63.421 Q1555.51 67.4314 1562.92 67.4314 Q1567.22 67.4314 1571.23 66.3781 Q1575.28 65.3249 1579.25 63.2184 L1579.25 70.267 Q1575.24 71.9684 1571.03 72.8596 Q1566.81 73.7508 1562.48 73.7508 Q1551.62 73.7508 1545.26 67.4314 Q1538.94 61.1119 1538.94 50.3365 Q1538.94 39.1965 1544.94 32.6746 Q1550.97 26.1121 1561.18 26.1121 Q1570.34 26.1121 1575.64 32.0264 Q1580.99 37.9003 1580.99 48.0275 M1573.54 45.84 Q1573.46 39.7232 1570.09 36.0774 Q1566.77 32.4315 1561.26 32.4315 Q1555.03 32.4315 1551.26 35.9558 Q1547.53 39.4801 1546.96 45.8805 L1573.54 45.84 Z" fill="#000000" fill-rule="nonzero" fill-opacity="1" /><path clip-path="url(#clip170)" d="M1629.48 27.2059 L1613.07 49.2833 L1630.33 72.576 L1621.54 72.576 L1608.34 54.752 L1595.13 72.576 L1586.34 72.576 L1603.96 48.8377 L1587.84 27.2059 L1596.63 27.2059 L1608.66 43.369 L1620.69 27.2059 L1629.48 27.2059 Z" fill="#000000" fill-rule="nonzero" fill-opacity="1" /><path clip-path="url(#clip170)" d="M1648.07 65.7705 L1648.07 89.8329 L1640.58 89.8329 L1640.58 27.2059 L1648.07 27.2059 L1648.07 34.0924 Q1650.42 30.0415 1653.99 28.0971 Q1657.59 26.1121 1662.58 26.1121 Q1670.84 26.1121 1675.99 32.6746 Q1681.17 39.2371 1681.17 49.9314 Q1681.17 60.6258 1675.99 67.1883 Q1670.84 73.7508 1662.58 73.7508 Q1657.59 73.7508 1653.99 71.8063 Q1650.42 69.8214 1648.07 65.7705 M1673.43 49.9314 Q1673.43 41.7081 1670.03 37.0496 Q1666.67 32.3505 1660.75 32.3505 Q1654.84 32.3505 1651.44 37.0496 Q1648.07 41.7081 1648.07 49.9314 Q1648.07 58.1548 1651.44 62.8538 Q1654.84 67.5124 1660.75 67.5124 Q1666.67 67.5124 1670.03 62.8538 Q1673.43 58.1548 1673.43 49.9314 Z" fill="#000000" fill-rule="nonzero" fill-opacity="1" /><path clip-path="url(#clip170)" d="M1711.11 32.4315 Q1705.11 32.4315 1701.63 37.1306 Q1698.14 41.7891 1698.14 49.9314 Q1698.14 58.0738 1701.59 62.7728 Q1705.07 67.4314 1711.11 67.4314 Q1717.06 67.4314 1720.55 62.7323 Q1724.03 58.0333 1724.03 49.9314 Q1724.03 41.8701 1720.55 37.1711 Q1717.06 32.4315 1711.11 32.4315 M1711.11 26.1121 Q1720.83 26.1121 1726.38 32.4315 Q1731.93 38.7509 1731.93 49.9314 Q1731.93 61.0714 1726.38 67.4314 Q1720.83 73.7508 1711.11 73.7508 Q1701.34 73.7508 1695.79 67.4314 Q1690.29 61.0714 1690.29 49.9314 Q1690.29 38.7509 1695.79 32.4315 Q1701.34 26.1121 1711.11 26.1121 Z" fill="#000000" fill-rule="nonzero" fill-opacity="1" /><path clip-path="url(#clip170)" d="M1773.21 28.5427 L1773.21 35.5912 Q1770.05 33.9709 1766.64 33.1607 Q1763.24 32.3505 1759.6 32.3505 Q1754.05 32.3505 1751.25 34.0519 Q1748.5 35.7533 1748.5 39.156 Q1748.5 41.7486 1750.48 43.2475 Q1752.47 44.7058 1758.46 46.0426 L1761.01 46.6097 Q1768.95 48.3111 1772.28 51.4303 Q1775.64 54.509 1775.64 60.0587 Q1775.64 66.3781 1770.61 70.0644 Q1765.63 73.7508 1756.88 73.7508 Q1753.24 73.7508 1749.27 73.0216 Q1745.34 72.3329 1740.96 70.9151 L1740.96 63.2184 Q1745.09 65.3654 1749.1 66.4591 Q1753.11 67.5124 1757.04 67.5124 Q1762.31 67.5124 1765.15 65.73 Q1767.98 63.9071 1767.98 60.6258 Q1767.98 57.5877 1765.92 55.9673 Q1763.89 54.3469 1756.96 52.8481 L1754.37 52.2405 Q1747.44 50.7821 1744.36 47.7845 Q1741.29 44.7463 1741.29 39.4801 Q1741.29 33.0797 1745.82 29.5959 Q1750.36 26.1121 1758.7 26.1121 Q1762.84 26.1121 1766.48 26.7198 Q1770.13 27.3274 1773.21 28.5427 Z" fill="#000000" fill-rule="nonzero" fill-opacity="1" /><path clip-path="url(#clip170)" d="M1786.74 54.671 L1786.74 27.2059 L1794.19 27.2059 L1794.19 54.3874 Q1794.19 60.8284 1796.7 64.0691 Q1799.21 67.2693 1804.24 67.2693 Q1810.27 67.2693 1813.76 63.421 Q1817.28 59.5726 1817.28 52.9291 L1817.28 27.2059 L1824.73 27.2059 L1824.73 72.576 L1817.28 72.576 L1817.28 65.6084 Q1814.57 69.7404 1810.96 71.7658 Q1807.4 73.7508 1802.66 73.7508 Q1794.84 73.7508 1790.79 68.8897 Q1786.74 64.0286 1786.74 54.671 M1805.49 26.1121 L1805.49 26.1121 Z" fill="#000000" fill-rule="nonzero" fill-opacity="1" /><path clip-path="url(#clip170)" d="M1866.38 34.1734 Q1865.12 33.4443 1863.62 33.1202 Q1862.16 32.7556 1860.38 32.7556 Q1854.06 32.7556 1850.66 36.8875 Q1847.3 40.9789 1847.3 48.6757 L1847.3 72.576 L1839.8 72.576 L1839.8 27.2059 L1847.3 27.2059 L1847.3 34.2544 Q1849.65 30.1225 1853.41 28.1376 Q1857.18 26.1121 1862.57 26.1121 Q1863.34 26.1121 1864.27 26.2337 Q1865.2 26.3147 1866.34 26.5172 L1866.38 34.1734 Z" fill="#000000" fill-rule="nonzero" fill-opacity="1" /><path clip-path="url(#clip170)" d="M1911.18 48.0275 L1911.18 51.6733 L1876.91 51.6733 Q1877.4 59.3701 1881.53 63.421 Q1885.7 67.4314 1893.11 67.4314 Q1897.41 67.4314 1901.42 66.3781 Q1905.47 65.3249 1909.44 63.2184 L1909.44 70.267 Q1905.43 71.9684 1901.22 72.8596 Q1897 73.7508 1892.67 73.7508 Q1881.81 73.7508 1875.45 67.4314 Q1869.13 61.1119 1869.13 50.3365 Q1869.13 39.1965 1875.13 32.6746 Q1881.16 26.1121 1891.37 26.1121 Q1900.53 26.1121 1905.83 32.0264 Q1911.18 37.9003 1911.18 48.0275 M1903.73 45.84 Q1903.65 39.7232 1900.28 36.0774 Q1896.96 32.4315 1891.45 32.4315 Q1885.21 32.4315 1881.45 35.9558 Q1877.72 39.4801 1877.15 45.8805 L1903.73 45.84 Z" fill="#000000" fill-rule="nonzero" fill-opacity="1" /><path clip-path="url(#clip170)" d="M1944.44 27.2059 L1952.34 27.2059 L1966.52 65.2844 L1980.69 27.2059 L1988.59 27.2059 L1971.58 72.576 L1961.45 72.576 L1944.44 27.2059 Z" fill="#000000" fill-rule="nonzero" fill-opacity="1" /><path clip-path="url(#clip170)" d="M2027.81 28.5427 L2027.81 35.5912 Q2024.65 33.9709 2021.24 33.1607 Q2017.84 32.3505 2014.2 32.3505 Q2008.65 32.3505 2005.85 34.0519 Q2003.1 35.7533 2003.1 39.156 Q2003.1 41.7486 2005.08 43.2475 Q2007.07 44.7058 2013.06 46.0426 L2015.61 46.6097 Q2023.55 48.3111 2026.87 51.4303 Q2030.24 54.509 2030.24 60.0587 Q2030.24 66.3781 2025.21 70.0644 Q2020.23 73.7508 2011.48 73.7508 Q2007.84 73.7508 2003.87 73.0216 Q1999.94 72.3329 1995.56 70.9151 L1995.56 63.2184 Q1999.69 65.3654 2003.7 66.4591 Q2007.71 67.5124 2011.64 67.5124 Q2016.91 67.5124 2019.75 65.73 Q2022.58 63.9071 2022.58 60.6258 Q2022.58 57.5877 2020.51 55.9673 Q2018.49 54.3469 2011.56 52.8481 L2008.97 52.2405 Q2002.04 50.7821 1998.96 47.7845 Q1995.89 44.7463 1995.89 39.4801 Q1995.89 33.0797 2000.42 29.5959 Q2004.96 26.1121 2013.3 26.1121 Q2017.44 26.1121 2021.08 26.7198 Q2024.73 27.3274 2027.81 28.5427 Z" fill="#000000" fill-rule="nonzero" fill-opacity="1" /><path clip-path="url(#clip170)" d="M2098.33 34.0924 L2098.33 9.54393 L2105.79 9.54393 L2105.79 72.576 L2098.33 72.576 L2098.33 65.7705 Q2095.98 69.8214 2092.38 71.8063 Q2088.81 73.7508 2083.79 73.7508 Q2075.57 73.7508 2070.38 67.1883 Q2065.24 60.6258 2065.24 49.9314 Q2065.24 39.2371 2070.38 32.6746 Q2075.57 26.1121 2083.79 26.1121 Q2088.81 26.1121 2092.38 28.0971 Q2095.98 30.0415 2098.33 34.0924 M2072.93 49.9314 Q2072.93 58.1548 2076.3 62.8538 Q2079.7 67.5124 2085.61 67.5124 Q2091.53 67.5124 2094.93 62.8538 Q2098.33 58.1548 2098.33 49.9314 Q2098.33 41.7081 2094.93 37.0496 Q2091.53 32.3505 2085.61 32.3505 Q2079.7 32.3505 2076.3 37.0496 Q2072.93 41.7081 2072.93 49.9314 Z" fill="#000000" fill-rule="nonzero" fill-opacity="1" /><path clip-path="url(#clip170)" d="M2121.14 27.2059 L2128.59 27.2059 L2128.59 72.576 L2121.14 72.576 L2121.14 27.2059 M2121.14 9.54393 L2128.59 9.54393 L2128.59 18.9825 L2121.14 18.9825 L2121.14 9.54393 Z" fill="#000000" fill-rule="nonzero" fill-opacity="1" /><path clip-path="url(#clip170)" d="M2173.11 28.5427 L2173.11 35.5912 Q2169.95 33.9709 2166.55 33.1607 Q2163.15 32.3505 2159.5 32.3505 Q2153.95 32.3505 2151.16 34.0519 Q2148.4 35.7533 2148.4 39.156 Q2148.4 41.7486 2150.39 43.2475 Q2152.37 44.7058 2158.37 46.0426 L2160.92 46.6097 Q2168.86 48.3111 2172.18 51.4303 Q2175.54 54.509 2175.54 60.0587 Q2175.54 66.3781 2170.52 70.0644 Q2165.54 73.7508 2156.79 73.7508 Q2153.14 73.7508 2149.17 73.0216 Q2145.24 72.3329 2140.87 70.9151 L2140.87 63.2184 Q2145 65.3654 2149.01 66.4591 Q2153.02 67.5124 2156.95 67.5124 Q2162.22 67.5124 2165.05 65.73 Q2167.89 63.9071 2167.89 60.6258 Q2167.89 57.5877 2165.82 55.9673 Q2163.8 54.3469 2156.87 52.8481 L2154.28 52.2405 Q2147.35 50.7821 2144.27 47.7845 Q2141.19 44.7463 2141.19 39.4801 Q2141.19 33.0797 2145.73 29.5959 Q2150.27 26.1121 2158.61 26.1121 Q2162.74 26.1121 2166.39 26.7198 Q2170.03 27.3274 2173.11 28.5427 Z" fill="#000000" fill-rule="nonzero" fill-opacity="1" /><path clip-path="url(#clip170)" d="M2194.78 14.324 L2194.78 27.2059 L2210.14 27.2059 L2210.14 32.9987 L2194.78 32.9987 L2194.78 57.6282 Q2194.78 63.1779 2196.28 64.7578 Q2197.82 66.3376 2202.48 66.3376 L2210.14 66.3376 L2210.14 72.576 L2202.48 72.576 Q2193.85 72.576 2190.57 69.3758 Q2187.29 66.1351 2187.29 57.6282 L2187.29 32.9987 L2181.82 32.9987 L2181.82 27.2059 L2187.29 27.2059 L2187.29 14.324 L2194.78 14.324 Z" fill="#000000" fill-rule="nonzero" fill-opacity="1" /><path clip-path="url(#clip170)" d="M2246.23 34.1734 Q2244.98 33.4443 2243.48 33.1202 Q2242.02 32.7556 2240.24 32.7556 Q2233.92 32.7556 2230.51 36.8875 Q2227.15 40.9789 2227.15 48.6757 L2227.15 72.576 L2219.66 72.576 L2219.66 27.2059 L2227.15 27.2059 L2227.15 34.2544 Q2229.5 30.1225 2233.27 28.1376 Q2237.04 26.1121 2242.42 26.1121 Q2243.19 26.1121 2244.12 26.2337 Q2245.06 26.3147 2246.19 26.5172 L2246.23 34.1734 Z" fill="#000000" fill-rule="nonzero" fill-opacity="1" /><path clip-path="url(#clip170)" d="M2254.05 27.2059 L2261.5 27.2059 L2261.5 72.576 L2254.05 72.576 L2254.05 27.2059 M2254.05 9.54393 L2261.5 9.54393 L2261.5 18.9825 L2254.05 18.9825 L2254.05 9.54393 Z" fill="#000000" fill-rule="nonzero" fill-opacity="1" /><path clip-path="url(#clip170)" d="M2309.75 28.9478 L2309.75 35.9153 Q2306.59 34.1734 2303.39 33.3227 Q2300.23 32.4315 2296.99 32.4315 Q2289.74 32.4315 2285.73 37.0496 Q2281.72 41.6271 2281.72 49.9314 Q2281.72 58.2358 2285.73 62.8538 Q2289.74 67.4314 2296.99 67.4314 Q2300.23 67.4314 2303.39 66.5807 Q2306.59 65.6895 2309.75 63.9476 L2309.75 70.8341 Q2306.63 72.2924 2303.27 73.0216 Q2299.95 73.7508 2296.18 73.7508 Q2285.93 73.7508 2279.89 67.3098 Q2273.86 60.8689 2273.86 49.9314 Q2273.86 38.832 2279.93 32.472 Q2286.05 26.1121 2296.66 26.1121 Q2300.11 26.1121 2303.39 26.8413 Q2306.67 27.5299 2309.75 28.9478 Z" fill="#000000" fill-rule="nonzero" fill-opacity="1" /><path clip-path="url(#clip170)" d="M2330.08 14.324 L2330.08 27.2059 L2345.44 27.2059 L2345.44 32.9987 L2330.08 32.9987 L2330.08 57.6282 Q2330.08 63.1779 2331.58 64.7578 Q2333.12 66.3376 2337.78 66.3376 L2345.44 66.3376 L2345.44 72.576 L2337.78 72.576 Q2329.15 72.576 2325.87 69.3758 Q2322.59 66.1351 2322.59 57.6282 L2322.59 32.9987 L2317.12 32.9987 L2317.12 27.2059 L2322.59 27.2059 L2322.59 14.324 L2330.08 14.324 Z" fill="#000000" fill-rule="nonzero" fill-opacity="1" /><path clip-path="url(#clip170)" d="M2382.75 12.096 L2414.87 12.096 L2414.87 18.9825 L2390.24 18.9825 L2390.24 33.8088 Q2392.02 33.2012 2393.81 32.9176 Q2395.59 32.5936 2397.37 32.5936 Q2407.5 32.5936 2413.41 38.1433 Q2419.33 43.6931 2419.33 53.1722 Q2419.33 62.9348 2413.25 68.3631 Q2407.17 73.7508 2396.11 73.7508 Q2392.31 73.7508 2388.34 73.1026 Q2384.41 72.4545 2380.19 71.1582 L2380.19 62.9348 Q2383.84 64.9198 2387.73 65.892 Q2391.62 66.8642 2395.95 66.8642 Q2402.96 66.8642 2407.05 63.1779 Q2411.14 59.4916 2411.14 53.1722 Q2411.14 46.8528 2407.05 43.1664 Q2402.96 39.4801 2395.95 39.4801 Q2392.67 39.4801 2389.39 40.2093 Q2386.15 40.9384 2382.75 42.4778 L2382.75 12.096 Z" fill="#000000" fill-rule="nonzero" fill-opacity="1" /><path clip-path="url(#clip170)" d="M2481.39 49.7694 Q2472.35 49.7694 2468.87 51.8354 Q2465.39 53.9013 2465.39 58.8839 Q2465.39 62.8538 2467.98 65.2034 Q2470.61 67.5124 2475.11 67.5124 Q2481.31 67.5124 2485.03 63.1374 Q2488.8 58.7219 2488.8 51.4303 L2488.8 49.7694 L2481.39 49.7694 M2496.25 46.6907 L2496.25 72.576 L2488.8 72.576 L2488.8 65.6895 Q2486.25 69.8214 2482.44 71.8063 Q2478.63 73.7508 2473.12 73.7508 Q2466.15 73.7508 2462.02 69.8619 Q2457.93 65.9325 2457.93 59.3701 Q2457.93 51.7138 2463.04 47.825 Q2468.18 43.9361 2478.35 43.9361 L2488.8 43.9361 L2488.8 43.2069 Q2488.8 38.0623 2485.4 35.2672 Q2482.03 32.4315 2475.92 32.4315 Q2472.03 32.4315 2468.34 33.3632 Q2464.66 34.295 2461.25 36.1584 L2461.25 29.2718 Q2465.34 27.692 2469.19 26.9223 Q2473.04 26.1121 2476.69 26.1121 Q2486.53 26.1121 2491.39 31.2163 Q2496.25 36.3204 2496.25 46.6907 Z" fill="#000000" fill-rule="nonzero" fill-opacity="1" /><path clip-path="url(#clip170)" d="M2546.93 35.9153 Q2549.72 30.8922 2553.61 28.5022 Q2557.5 26.1121 2562.77 26.1121 Q2569.86 26.1121 2573.71 31.0947 Q2577.55 36.0368 2577.55 45.1919 L2577.55 72.576 L2570.06 72.576 L2570.06 45.4349 Q2570.06 38.913 2567.75 35.7533 Q2565.44 32.5936 2560.7 32.5936 Q2554.91 32.5936 2551.55 36.4419 Q2548.19 40.2903 2548.19 46.9338 L2548.19 72.576 L2540.69 72.576 L2540.69 45.4349 Q2540.69 38.8725 2538.38 35.7533 Q2536.07 32.5936 2531.25 32.5936 Q2525.54 32.5936 2522.18 36.4824 Q2518.82 40.3308 2518.82 46.9338 L2518.82 72.576 L2511.32 72.576 L2511.32 27.2059 L2518.82 27.2059 L2518.82 34.2544 Q2521.37 30.082 2524.93 28.0971 Q2528.5 26.1121 2533.4 26.1121 Q2538.34 26.1121 2541.79 28.6237 Q2545.27 31.1352 2546.93 35.9153 Z" fill="#000000" fill-rule="nonzero" fill-opacity="1" /><path clip-path="url(#clip170)" d="M2631.23 48.0275 L2631.23 51.6733 L2596.96 51.6733 Q2597.44 59.3701 2601.58 63.421 Q2605.75 67.4314 2613.16 67.4314 Q2617.46 67.4314 2621.47 66.3781 Q2625.52 65.3249 2629.49 63.2184 L2629.49 70.267 Q2625.48 71.9684 2621.26 72.8596 Q2617.05 73.7508 2612.72 73.7508 Q2601.86 73.7508 2595.5 67.4314 Q2589.18 61.1119 2589.18 50.3365 Q2589.18 39.1965 2595.18 32.6746 Q2601.21 26.1121 2611.42 26.1121 Q2620.58 26.1121 2625.88 32.0264 Q2631.23 37.9003 2631.23 48.0275 M2623.78 45.84 Q2623.69 39.7232 2620.33 36.0774 Q2617.01 32.4315 2611.5 32.4315 Q2605.26 32.4315 2601.5 35.9558 Q2597.77 39.4801 2597.2 45.8805 L2623.78 45.84 Z" fill="#000000" fill-rule="nonzero" fill-opacity="1" /><path clip-path="url(#clip170)" d="M2681.18 45.1919 L2681.18 72.576 L2673.72 72.576 L2673.72 45.4349 Q2673.72 38.994 2671.21 35.7938 Q2668.7 32.5936 2663.68 32.5936 Q2657.64 32.5936 2654.16 36.4419 Q2650.67 40.2903 2650.67 46.9338 L2650.67 72.576 L2643.18 72.576 L2643.18 27.2059 L2650.67 27.2059 L2650.67 34.2544 Q2653.35 30.163 2656.95 28.1376 Q2660.6 26.1121 2665.34 26.1121 Q2673.16 26.1121 2677.17 30.9732 Q2681.18 35.7938 2681.18 45.1919 Z" fill="#000000" fill-rule="nonzero" fill-opacity="1" /><path clip-path="url(#clip170)" d="M2696.04 27.2059 L2703.5 27.2059 L2703.5 72.576 L2696.04 72.576 L2696.04 27.2059 M2696.04 9.54393 L2703.5 9.54393 L2703.5 18.9825 L2696.04 18.9825 L2696.04 9.54393 Z" fill="#000000" fill-rule="nonzero" fill-opacity="1" /><path clip-path="url(#clip170)" d="M2726.47 14.324 L2726.47 27.2059 L2741.82 27.2059 L2741.82 32.9987 L2726.47 32.9987 L2726.47 57.6282 Q2726.47 63.1779 2727.96 64.7578 Q2729.5 66.3376 2734.16 66.3376 L2741.82 66.3376 L2741.82 72.576 L2734.16 72.576 Q2725.53 72.576 2722.25 69.3758 Q2718.97 66.1351 2718.97 57.6282 L2718.97 32.9987 L2713.5 32.9987 L2713.5 27.2059 L2718.97 27.2059 L2718.97 14.324 L2726.47 14.324 Z" fill="#000000" fill-rule="nonzero" fill-opacity="1" /><path clip-path="url(#clip170)" d="M2770.5 76.7889 Q2767.34 84.8907 2764.34 87.3618 Q2761.34 89.8329 2756.32 89.8329 L2750.37 89.8329 L2750.37 83.5945 L2754.74 83.5945 Q2757.82 83.5945 2759.52 82.1361 Q2761.22 80.6778 2763.29 75.2496 L2764.63 71.8468 L2746.27 27.2059 L2754.17 27.2059 L2768.35 62.6918 L2782.53 27.2059 L2790.43 27.2059 L2770.5 76.7889 Z" fill="#000000" fill-rule="nonzero" fill-opacity="1" /><polyline clip-path="url(#clip171)" style="stroke:#009af9; stroke-linecap:round; stroke-linejoin:round; stroke-width:4; stroke-opacity:1; fill:none" points="376.302,210.402 538.614,206.82 700.927,191.752 863.239,248.882 1025.55,162.056 1187.86,167.51 1350.18,209.577 1512.49,224.652 1674.8,177.645 1837.11,179.615 1999.43,183.784 2161.74,202.44 2324.05,194.672 2486.36,245.658 2648.68,319.907 2810.99,368.377 2973.3,506.101 3135.61,676.34 3297.93,1009.02 3460.24,1784.2 "/>
</svg>
