<?xml version="1.0" encoding="utf-8"?>
<svg xmlns="http://www.w3.org/2000/svg" xmlns:xlink="http://www.w3.org/1999/xlink" width="900" height="500" viewBox="0 0 3600 2000">
<defs>
  <clipPath id="clip470">
    <rect x="0" y="0" width="3600" height="2000"/>
  </clipPath>
</defs>
<path clip-path="url(#clip470)" d="M0 2000 L3600 2000 L3600 0 L0 0  Z" fill="#ffffff" fill-rule="evenodd" fill-opacity="1"/>
<defs>
  <clipPath id="clip471">
    <rect x="254" y="113" width="3300" height="1720"/>
  </clipPath>
</defs>
<path clip-path="url(#clip470)" d="M254.108 1832.86 L3552.76 1832.86 L3552.76 113.392 L254.108 113.392  Z" fill="#ffffff" fill-rule="evenodd" fill-opacity="1"/>
<polyline clip-path="url(#clip471)" style="stroke:#000000; stroke-linecap:round; stroke-linejoin:round; stroke-width:2; stroke-opacity:0.1; fill:none" points="333.981,1832.86 333.981,113.392 "/>
<polyline clip-path="url(#clip471)" style="stroke:#000000; stroke-linecap:round; stroke-linejoin:round; stroke-width:2; stroke-opacity:0.1; fill:none" points="852.636,1832.86 852.636,113.392 "/>
<polyline clip-path="url(#clip471)" style="stroke:#000000; stroke-linecap:round; stroke-linejoin:round; stroke-width:2; stroke-opacity:0.1; fill:none" points="1371.29,1832.86 1371.29,113.392 "/>
<polyline clip-path="url(#clip471)" style="stroke:#000000; stroke-linecap:round; stroke-linejoin:round; stroke-width:2; stroke-opacity:0.1; fill:none" points="1889.95,1832.86 1889.95,113.392 "/>
<polyline clip-path="url(#clip471)" style="stroke:#000000; stroke-linecap:round; stroke-linejoin:round; stroke-width:2; stroke-opacity:0.1; fill:none" points="2408.6,1832.86 2408.6,113.392 "/>
<polyline clip-path="url(#clip471)" style="stroke:#000000; stroke-linecap:round; stroke-linejoin:round; stroke-width:2; stroke-opacity:0.1; fill:none" points="2927.26,1832.86 2927.26,113.392 "/>
<polyline clip-path="url(#clip471)" style="stroke:#000000; stroke-linecap:round; stroke-linejoin:round; stroke-width:2; stroke-opacity:0.1; fill:none" points="3445.91,1832.86 3445.91,113.392 "/>
<polyline clip-path="url(#clip471)" style="stroke:#000000; stroke-linecap:round; stroke-linejoin:round; stroke-width:2; stroke-opacity:0.1; fill:none" points="254.108,1644.73 3552.76,1644.73 "/>
<polyline clip-path="url(#clip471)" style="stroke:#000000; stroke-linecap:round; stroke-linejoin:round; stroke-width:2; stroke-opacity:0.1; fill:none" points="254.108,1243.41 3552.76,1243.41 "/>
<polyline clip-path="url(#clip471)" style="stroke:#000000; stroke-linecap:round; stroke-linejoin:round; stroke-width:2; stroke-opacity:0.1; fill:none" points="254.108,842.097 3552.76,842.097 "/>
<polyline clip-path="url(#clip471)" style="stroke:#000000; stroke-linecap:round; stroke-linejoin:round; stroke-width:2; stroke-opacity:0.1; fill:none" points="254.108,440.78 3552.76,440.78 "/>
<polyline clip-path="url(#clip470)" style="stroke:#000000; stroke-linecap:round; stroke-linejoin:round; stroke-width:4; stroke-opacity:1; fill:none" points="254.108,1832.86 3552.76,1832.86 "/>
<polyline clip-path="url(#clip470)" style="stroke:#000000; stroke-linecap:round; stroke-linejoin:round; stroke-width:4; stroke-opacity:1; fill:none" points="333.981,1832.86 333.981,1813.96 "/>
<polyline clip-path="url(#clip470)" style="stroke:#000000; stroke-linecap:round; stroke-linejoin:round; stroke-width:4; stroke-opacity:1; fill:none" points="852.636,1832.86 852.636,1813.96 "/>
<polyline clip-path="url(#clip470)" style="stroke:#000000; stroke-linecap:round; stroke-linejoin:round; stroke-width:4; stroke-opacity:1; fill:none" points="1371.29,1832.86 1371.29,1813.96 "/>
<polyline clip-path="url(#clip470)" style="stroke:#000000; stroke-linecap:round; stroke-linejoin:round; stroke-width:4; stroke-opacity:1; fill:none" points="1889.95,1832.86 1889.95,1813.96 "/>
<polyline clip-path="url(#clip470)" style="stroke:#000000; stroke-linecap:round; stroke-linejoin:round; stroke-width:4; stroke-opacity:1; fill:none" points="2408.6,1832.86 2408.6,1813.96 "/>
<polyline clip-path="url(#clip470)" style="stroke:#000000; stroke-linecap:round; stroke-linejoin:round; stroke-width:4; stroke-opacity:1; fill:none" points="2927.26,1832.86 2927.26,1813.96 "/>
<polyline clip-path="url(#clip470)" style="stroke:#000000; stroke-linecap:round; stroke-linejoin:round; stroke-width:4; stroke-opacity:1; fill:none" points="3445.91,1832.86 3445.91,1813.96 "/>
<path clip-path="url(#clip470)" d="M311.979 1873.38 Q308.368 1873.38 306.539 1876.94 Q304.734 1880.48 304.734 1887.61 Q304.734 1894.72 306.539 1898.29 Q308.368 1901.83 311.979 1901.83 Q315.613 1901.83 317.419 1898.29 Q319.247 1894.72 319.247 1887.61 Q319.247 1880.48 317.419 1876.94 Q315.613 1873.38 311.979 1873.38 M311.979 1869.67 Q317.789 1869.67 320.845 1874.28 Q323.923 1878.86 323.923 1887.61 Q323.923 1896.34 320.845 1900.95 Q317.789 1905.53 311.979 1905.53 Q306.169 1905.53 303.09 1900.95 Q300.034 1896.34 300.034 1887.61 Q300.034 1878.86 303.09 1874.28 Q306.169 1869.67 311.979 1869.67 Z" fill="#000000" fill-rule="nonzero" fill-opacity="1" /><path clip-path="url(#clip470)" d="M332.141 1898.98 L337.025 1898.98 L337.025 1904.86 L332.141 1904.86 L332.141 1898.98 Z" fill="#000000" fill-rule="nonzero" fill-opacity="1" /><path clip-path="url(#clip470)" d="M348.02 1900.92 L355.659 1900.92 L355.659 1874.56 L347.349 1876.23 L347.349 1871.97 L355.613 1870.3 L360.289 1870.3 L360.289 1900.92 L367.928 1900.92 L367.928 1904.86 L348.02 1904.86 L348.02 1900.92 Z" fill="#000000" fill-rule="nonzero" fill-opacity="1" /><path clip-path="url(#clip470)" d="M830.819 1873.38 Q827.208 1873.38 825.38 1876.94 Q823.574 1880.48 823.574 1887.61 Q823.574 1894.72 825.38 1898.29 Q827.208 1901.83 830.819 1901.83 Q834.454 1901.83 836.259 1898.29 Q838.088 1894.72 838.088 1887.61 Q838.088 1880.48 836.259 1876.94 Q834.454 1873.38 830.819 1873.38 M830.819 1869.67 Q836.63 1869.67 839.685 1874.28 Q842.764 1878.86 842.764 1887.61 Q842.764 1896.34 839.685 1900.95 Q836.63 1905.53 830.819 1905.53 Q825.009 1905.53 821.931 1900.95 Q818.875 1896.34 818.875 1887.61 Q818.875 1878.86 821.931 1874.28 Q825.009 1869.67 830.819 1869.67 Z" fill="#000000" fill-rule="nonzero" fill-opacity="1" /><path clip-path="url(#clip470)" d="M850.981 1898.98 L855.866 1898.98 L855.866 1904.86 L850.981 1904.86 L850.981 1898.98 Z" fill="#000000" fill-rule="nonzero" fill-opacity="1" /><path clip-path="url(#clip470)" d="M870.078 1900.92 L886.398 1900.92 L886.398 1904.86 L864.453 1904.86 L864.453 1900.92 Q867.115 1898.17 871.699 1893.54 Q876.305 1888.89 877.486 1887.55 Q879.731 1885.02 880.611 1883.29 Q881.514 1881.53 881.514 1879.84 Q881.514 1877.08 879.569 1875.35 Q877.648 1873.61 874.546 1873.61 Q872.347 1873.61 869.893 1874.37 Q867.463 1875.14 864.685 1876.69 L864.685 1871.97 Q867.509 1870.83 869.963 1870.25 Q872.416 1869.67 874.453 1869.67 Q879.824 1869.67 883.018 1872.36 Q886.213 1875.05 886.213 1879.54 Q886.213 1881.67 885.402 1883.59 Q884.615 1885.48 882.509 1888.08 Q881.93 1888.75 878.828 1891.97 Q875.727 1895.16 870.078 1900.92 Z" fill="#000000" fill-rule="nonzero" fill-opacity="1" /><path clip-path="url(#clip470)" d="M1349 1873.38 Q1345.39 1873.38 1343.56 1876.94 Q1341.75 1880.48 1341.75 1887.61 Q1341.75 1894.72 1343.56 1898.29 Q1345.39 1901.83 1349 1901.83 Q1352.63 1901.83 1354.44 1898.29 Q1356.27 1894.72 1356.27 1887.61 Q1356.27 1880.48 1354.44 1876.94 Q1352.63 1873.38 1349 1873.38 M1349 1869.67 Q1354.81 1869.67 1357.87 1874.28 Q1360.94 1878.86 1360.94 1887.61 Q1360.94 1896.34 1357.87 1900.95 Q1354.81 1905.53 1349 1905.53 Q1343.19 1905.53 1340.11 1900.95 Q1337.06 1896.34 1337.06 1887.61 Q1337.06 1878.86 1340.11 1874.28 Q1343.19 1869.67 1349 1869.67 Z" fill="#000000" fill-rule="nonzero" fill-opacity="1" /><path clip-path="url(#clip470)" d="M1369.16 1898.98 L1374.05 1898.98 L1374.05 1904.86 L1369.16 1904.86 L1369.16 1898.98 Z" fill="#000000" fill-rule="nonzero" fill-opacity="1" /><path clip-path="url(#clip470)" d="M1398.4 1886.23 Q1401.75 1886.94 1403.63 1889.21 Q1405.53 1891.48 1405.53 1894.81 Q1405.53 1899.93 1402.01 1902.73 Q1398.49 1905.53 1392.01 1905.53 Q1389.83 1905.53 1387.52 1905.09 Q1385.23 1904.67 1382.77 1903.82 L1382.77 1899.3 Q1384.72 1900.44 1387.03 1901.02 Q1389.35 1901.6 1391.87 1901.6 Q1396.27 1901.6 1398.56 1899.86 Q1400.87 1898.12 1400.87 1894.81 Q1400.87 1891.76 1398.72 1890.05 Q1396.59 1888.31 1392.77 1888.31 L1388.75 1888.31 L1388.75 1884.47 L1392.96 1884.47 Q1396.41 1884.47 1398.24 1883.1 Q1400.06 1881.71 1400.06 1879.12 Q1400.06 1876.46 1398.17 1875.05 Q1396.29 1873.61 1392.77 1873.61 Q1390.85 1873.61 1388.65 1874.03 Q1386.45 1874.44 1383.81 1875.32 L1383.81 1871.16 Q1386.48 1870.42 1388.79 1870.05 Q1391.13 1869.67 1393.19 1869.67 Q1398.51 1869.67 1401.62 1872.11 Q1404.72 1874.51 1404.72 1878.63 Q1404.72 1881.5 1403.07 1883.49 Q1401.43 1885.46 1398.4 1886.23 Z" fill="#000000" fill-rule="nonzero" fill-opacity="1" /><path clip-path="url(#clip470)" d="M1867.09 1873.38 Q1863.48 1873.38 1861.65 1876.94 Q1859.84 1880.48 1859.84 1887.61 Q1859.84 1894.72 1861.65 1898.29 Q1863.48 1901.83 1867.09 1901.83 Q1870.72 1901.83 1872.53 1898.29 Q1874.36 1894.72 1874.36 1887.61 Q1874.36 1880.48 1872.53 1876.94 Q1870.72 1873.38 1867.09 1873.38 M1867.09 1869.67 Q1872.9 1869.67 1875.95 1874.28 Q1879.03 1878.86 1879.03 1887.61 Q1879.03 1896.34 1875.95 1900.95 Q1872.9 1905.53 1867.09 1905.53 Q1861.28 1905.53 1858.2 1900.95 Q1855.14 1896.34 1855.14 1887.61 Q1855.14 1878.86 1858.2 1874.28 Q1861.28 1869.67 1867.09 1869.67 Z" fill="#000000" fill-rule="nonzero" fill-opacity="1" /><path clip-path="url(#clip470)" d="M1887.25 1898.98 L1892.13 1898.98 L1892.13 1904.86 L1887.25 1904.86 L1887.25 1898.98 Z" fill="#000000" fill-rule="nonzero" fill-opacity="1" /><path clip-path="url(#clip470)" d="M1915.17 1874.37 L1903.36 1892.82 L1915.17 1892.82 L1915.17 1874.37 M1913.94 1870.3 L1919.82 1870.3 L1919.82 1892.82 L1924.75 1892.82 L1924.75 1896.71 L1919.82 1896.71 L1919.82 1904.86 L1915.17 1904.86 L1915.17 1896.71 L1899.56 1896.71 L1899.56 1892.2 L1913.94 1870.3 Z" fill="#000000" fill-rule="nonzero" fill-opacity="1" /><path clip-path="url(#clip470)" d="M2386.48 1873.38 Q2382.87 1873.38 2381.04 1876.94 Q2379.24 1880.48 2379.24 1887.61 Q2379.24 1894.72 2381.04 1898.29 Q2382.87 1901.83 2386.48 1901.83 Q2390.12 1901.83 2391.92 1898.29 Q2393.75 1894.72 2393.75 1887.61 Q2393.75 1880.48 2391.92 1876.94 Q2390.12 1873.38 2386.48 1873.38 M2386.48 1869.67 Q2392.29 1869.67 2395.35 1874.28 Q2398.43 1878.86 2398.43 1887.61 Q2398.43 1896.34 2395.35 1900.95 Q2392.29 1905.53 2386.48 1905.53 Q2380.67 1905.53 2377.6 1900.95 Q2374.54 1896.34 2374.54 1887.61 Q2374.54 1878.86 2377.6 1874.28 Q2380.67 1869.67 2386.48 1869.67 Z" fill="#000000" fill-rule="nonzero" fill-opacity="1" /><path clip-path="url(#clip470)" d="M2406.65 1898.98 L2411.53 1898.98 L2411.53 1904.86 L2406.65 1904.86 L2406.65 1898.98 Z" fill="#000000" fill-rule="nonzero" fill-opacity="1" /><path clip-path="url(#clip470)" d="M2421.76 1870.3 L2440.12 1870.3 L2440.12 1874.24 L2426.04 1874.24 L2426.04 1882.71 Q2427.06 1882.36 2428.08 1882.2 Q2429.1 1882.01 2430.12 1882.01 Q2435.91 1882.01 2439.29 1885.18 Q2442.66 1888.36 2442.66 1893.77 Q2442.66 1899.35 2439.19 1902.45 Q2435.72 1905.53 2429.4 1905.53 Q2427.22 1905.53 2424.96 1905.16 Q2422.71 1904.79 2420.3 1904.05 L2420.3 1899.35 Q2422.39 1900.48 2424.61 1901.04 Q2426.83 1901.6 2429.31 1901.6 Q2433.31 1901.6 2435.65 1899.49 Q2437.99 1897.38 2437.99 1893.77 Q2437.99 1890.16 2435.65 1888.05 Q2433.31 1885.95 2429.31 1885.95 Q2427.43 1885.95 2425.56 1886.36 Q2423.71 1886.78 2421.76 1887.66 L2421.76 1870.3 Z" fill="#000000" fill-rule="nonzero" fill-opacity="1" /><path clip-path="url(#clip470)" d="M2904.56 1873.38 Q2900.95 1873.38 2899.12 1876.94 Q2897.32 1880.48 2897.32 1887.61 Q2897.32 1894.72 2899.12 1898.29 Q2900.95 1901.83 2904.56 1901.83 Q2908.2 1901.83 2910 1898.29 Q2911.83 1894.72 2911.83 1887.61 Q2911.83 1880.48 2910 1876.94 Q2908.2 1873.38 2904.56 1873.38 M2904.56 1869.67 Q2910.37 1869.67 2913.43 1874.28 Q2916.51 1878.86 2916.51 1887.61 Q2916.51 1896.34 2913.43 1900.95 Q2910.37 1905.53 2904.56 1905.53 Q2898.75 1905.53 2895.67 1900.95 Q2892.62 1896.34 2892.62 1887.61 Q2892.62 1878.86 2895.67 1874.28 Q2898.75 1869.67 2904.56 1869.67 Z" fill="#000000" fill-rule="nonzero" fill-opacity="1" /><path clip-path="url(#clip470)" d="M2924.72 1898.98 L2929.61 1898.98 L2929.61 1904.86 L2924.72 1904.86 L2924.72 1898.98 Z" fill="#000000" fill-rule="nonzero" fill-opacity="1" /><path clip-path="url(#clip470)" d="M2950.37 1885.72 Q2947.22 1885.72 2945.37 1887.87 Q2943.54 1890.02 2943.54 1893.77 Q2943.54 1897.5 2945.37 1899.67 Q2947.22 1901.83 2950.37 1901.83 Q2953.52 1901.83 2955.35 1899.67 Q2957.2 1897.5 2957.2 1893.77 Q2957.2 1890.02 2955.35 1887.87 Q2953.52 1885.72 2950.37 1885.72 M2959.65 1871.06 L2959.65 1875.32 Q2957.89 1874.49 2956.09 1874.05 Q2954.31 1873.61 2952.55 1873.61 Q2947.92 1873.61 2945.46 1876.73 Q2943.03 1879.86 2942.69 1886.18 Q2944.05 1884.17 2946.11 1883.1 Q2948.17 1882.01 2950.65 1882.01 Q2955.86 1882.01 2958.87 1885.18 Q2961.9 1888.33 2961.9 1893.77 Q2961.9 1899.1 2958.75 1902.31 Q2955.6 1905.53 2950.37 1905.53 Q2944.38 1905.53 2941.2 1900.95 Q2938.03 1896.34 2938.03 1887.61 Q2938.03 1879.42 2941.92 1874.56 Q2945.81 1869.67 2952.36 1869.67 Q2954.12 1869.67 2955.9 1870.02 Q2957.71 1870.37 2959.65 1871.06 Z" fill="#000000" fill-rule="nonzero" fill-opacity="1" /><path clip-path="url(#clip470)" d="M3423.75 1873.38 Q3420.14 1873.38 3418.31 1876.94 Q3416.5 1880.48 3416.5 1887.61 Q3416.5 1894.72 3418.31 1898.29 Q3420.14 1901.83 3423.75 1901.83 Q3427.38 1901.83 3429.19 1898.29 Q3431.02 1894.72 3431.02 1887.61 Q3431.02 1880.48 3429.19 1876.94 Q3427.38 1873.38 3423.75 1873.38 M3423.75 1869.67 Q3429.56 1869.67 3432.61 1874.28 Q3435.69 1878.86 3435.69 1887.61 Q3435.69 1896.34 3432.61 1900.95 Q3429.56 1905.53 3423.75 1905.53 Q3417.94 1905.53 3414.86 1900.95 Q3411.8 1896.34 3411.8 1887.61 Q3411.8 1878.86 3414.86 1874.28 Q3417.94 1869.67 3423.75 1869.67 Z" fill="#000000" fill-rule="nonzero" fill-opacity="1" /><path clip-path="url(#clip470)" d="M3443.91 1898.98 L3448.79 1898.98 L3448.79 1904.86 L3443.91 1904.86 L3443.91 1898.98 Z" fill="#000000" fill-rule="nonzero" fill-opacity="1" /><path clip-path="url(#clip470)" d="M3457.8 1870.3 L3480.02 1870.3 L3480.02 1872.29 L3467.48 1904.86 L3462.59 1904.86 L3474.4 1874.24 L3457.8 1874.24 L3457.8 1870.3 Z" fill="#000000" fill-rule="nonzero" fill-opacity="1" /><path clip-path="url(#clip470)" d="M1709.85 1981.66 L1709.85 1960.08 L1715.71 1960.08 L1715.71 1981.43 Q1715.71 1986.49 1717.68 1989.04 Q1719.65 1991.55 1723.6 1991.55 Q1728.34 1991.55 1731.08 1988.53 Q1733.85 1985.51 1733.85 1980.29 L1733.85 1960.08 L1739.71 1960.08 L1739.71 1995.72 L1733.85 1995.72 L1733.85 1990.25 Q1731.72 1993.5 1728.88 1995.09 Q1726.08 1996.65 1722.36 1996.65 Q1716.22 1996.65 1713.03 1992.83 Q1709.85 1989.01 1709.85 1981.66 M1724.59 1959.22 L1724.59 1959.22 Z" fill="#000000" fill-rule="nonzero" fill-opacity="1" /><path clip-path="url(#clip470)" d="M1757.56 1949.95 L1757.56 1960.08 L1769.62 1960.08 L1769.62 1964.63 L1757.56 1964.63 L1757.56 1983.98 Q1757.56 1988.34 1758.74 1989.58 Q1759.95 1990.82 1763.61 1990.82 L1769.62 1990.82 L1769.62 1995.72 L1763.61 1995.72 Q1756.83 1995.72 1754.25 1993.21 Q1751.67 1990.66 1751.67 1983.98 L1751.67 1964.63 L1747.38 1964.63 L1747.38 1960.08 L1751.67 1960.08 L1751.67 1949.95 L1757.56 1949.95 Z" fill="#000000" fill-rule="nonzero" fill-opacity="1" /><path clip-path="url(#clip470)" d="M1777.33 1960.08 L1783.18 1960.08 L1783.18 1995.72 L1777.33 1995.72 L1777.33 1960.08 M1777.33 1946.2 L1783.18 1946.2 L1783.18 1953.61 L1777.33 1953.61 L1777.33 1946.2 Z" fill="#000000" fill-rule="nonzero" fill-opacity="1" /><path clip-path="url(#clip470)" d="M1795.44 1946.2 L1801.29 1946.2 L1801.29 1995.72 L1795.44 1995.72 L1795.44 1946.2 Z" fill="#000000" fill-rule="nonzero" fill-opacity="1" /><path clip-path="url(#clip470)" d="M1813.55 1960.08 L1819.4 1960.08 L1819.4 1995.72 L1813.55 1995.72 L1813.55 1960.08 M1813.55 1946.2 L1819.4 1946.2 L1819.4 1953.61 L1813.55 1953.61 L1813.55 1946.2 Z" fill="#000000" fill-rule="nonzero" fill-opacity="1" /><path clip-path="url(#clip470)" d="M1837.45 1949.95 L1837.45 1960.08 L1849.51 1960.08 L1849.51 1964.63 L1837.45 1964.63 L1837.45 1983.98 Q1837.45 1988.34 1838.63 1989.58 Q1839.84 1990.82 1843.5 1990.82 L1849.51 1990.82 L1849.51 1995.72 L1843.5 1995.72 Q1836.72 1995.72 1834.14 1993.21 Q1831.56 1990.66 1831.56 1983.98 L1831.56 1964.63 L1827.27 1964.63 L1827.27 1960.08 L1831.56 1960.08 L1831.56 1949.95 L1837.45 1949.95 Z" fill="#000000" fill-rule="nonzero" fill-opacity="1" /><path clip-path="url(#clip470)" d="M1872.05 1999.03 Q1869.57 2005.4 1867.21 2007.34 Q1864.86 2009.28 1860.91 2009.28 L1856.23 2009.28 L1856.23 2004.38 L1859.67 2004.38 Q1862.09 2004.38 1863.42 2003.24 Q1864.76 2002.09 1866.38 1997.82 L1867.43 1995.15 L1853.02 1960.08 L1859.22 1960.08 L1870.36 1987.96 L1881.5 1960.08 L1887.71 1960.08 L1872.05 1999.03 Z" fill="#000000" fill-rule="nonzero" fill-opacity="1" /><path clip-path="url(#clip470)" d="M1922.88 2006.55 L1922.88 2011.1 L1889.01 2011.1 L1889.01 2006.55 L1922.88 2006.55 Z" fill="#000000" fill-rule="nonzero" fill-opacity="1" /><path clip-path="url(#clip470)" d="M1944.59 1977.8 Q1937.49 1977.8 1934.75 1979.43 Q1932.01 1981.05 1932.01 1984.97 Q1932.01 1988.08 1934.05 1989.93 Q1936.12 1991.75 1939.65 1991.75 Q1944.52 1991.75 1947.45 1988.31 Q1950.41 1984.84 1950.41 1979.11 L1950.41 1977.8 L1944.59 1977.8 M1956.27 1975.39 L1956.27 1995.72 L1950.41 1995.72 L1950.41 1990.31 Q1948.41 1993.56 1945.41 1995.12 Q1942.42 1996.65 1938.09 1996.65 Q1932.62 1996.65 1929.37 1993.59 Q1926.16 1990.5 1926.16 1985.35 Q1926.16 1979.33 1930.17 1976.28 Q1934.21 1973.22 1942.2 1973.22 L1950.41 1973.22 L1950.41 1972.65 Q1950.41 1968.61 1947.74 1966.41 Q1945.1 1964.18 1940.29 1964.18 Q1937.23 1964.18 1934.34 1964.91 Q1931.44 1965.65 1928.77 1967.11 L1928.77 1961.7 Q1931.98 1960.46 1935.01 1959.85 Q1938.03 1959.22 1940.89 1959.22 Q1948.63 1959.22 1952.45 1963.23 Q1956.27 1967.24 1956.27 1975.39 Z" fill="#000000" fill-rule="nonzero" fill-opacity="1" /><path clip-path="url(#clip470)" d="M1968.33 1946.2 L1974.19 1946.2 L1974.19 1995.72 L1968.33 1995.72 L1968.33 1946.2 Z" fill="#000000" fill-rule="nonzero" fill-opacity="1" /><path clip-path="url(#clip470)" d="M1992.11 1990.38 L1992.11 2009.28 L1986.22 2009.28 L1986.22 1960.08 L1992.11 1960.08 L1992.11 1965.49 Q1993.95 1962.3 1996.75 1960.78 Q1999.59 1959.22 2003.5 1959.22 Q2009.99 1959.22 2014.04 1964.37 Q2018.11 1969.53 2018.11 1977.93 Q2018.11 1986.33 2014.04 1991.49 Q2009.99 1996.65 2003.5 1996.65 Q1999.59 1996.65 1996.75 1995.12 Q1993.95 1993.56 1992.11 1990.38 M2012.03 1977.93 Q2012.03 1971.47 2009.36 1967.81 Q2006.72 1964.12 2002.07 1964.12 Q1997.42 1964.12 1994.75 1967.81 Q1992.11 1971.47 1992.11 1977.93 Q1992.11 1984.39 1994.75 1988.08 Q1997.42 1991.75 2002.07 1991.75 Q2006.72 1991.75 2009.36 1988.08 Q2012.03 1984.39 2012.03 1977.93 Z" fill="#000000" fill-rule="nonzero" fill-opacity="1" /><path clip-path="url(#clip470)" d="M2057.45 1974.21 L2057.45 1995.72 L2051.59 1995.72 L2051.59 1974.4 Q2051.59 1969.34 2049.62 1966.82 Q2047.65 1964.31 2043.7 1964.31 Q2038.96 1964.31 2036.22 1967.33 Q2033.48 1970.36 2033.48 1975.58 L2033.48 1995.72 L2027.6 1995.72 L2027.6 1946.2 L2033.48 1946.2 L2033.48 1965.61 Q2035.58 1962.4 2038.42 1960.81 Q2041.28 1959.22 2045.01 1959.22 Q2051.15 1959.22 2054.3 1963.04 Q2057.45 1966.82 2057.45 1974.21 Z" fill="#000000" fill-rule="nonzero" fill-opacity="1" /><path clip-path="url(#clip470)" d="M2085.33 1977.8 Q2078.23 1977.8 2075.5 1979.43 Q2072.76 1981.05 2072.76 1984.97 Q2072.76 1988.08 2074.8 1989.93 Q2076.87 1991.75 2080.4 1991.75 Q2085.27 1991.75 2088.2 1988.31 Q2091.16 1984.84 2091.16 1979.11 L2091.16 1977.8 L2085.33 1977.8 M2097.01 1975.39 L2097.01 1995.72 L2091.16 1995.72 L2091.16 1990.31 Q2089.15 1993.56 2086.16 1995.12 Q2083.17 1996.65 2078.84 1996.65 Q2073.36 1996.65 2070.12 1993.59 Q2066.9 1990.5 2066.9 1985.35 Q2066.9 1979.33 2070.91 1976.28 Q2074.96 1973.22 2082.94 1973.22 L2091.16 1973.22 L2091.16 1972.65 Q2091.16 1968.61 2088.48 1966.41 Q2085.84 1964.18 2081.04 1964.18 Q2077.98 1964.18 2075.08 1964.91 Q2072.19 1965.65 2069.51 1967.11 L2069.51 1961.7 Q2072.73 1960.46 2075.75 1959.85 Q2078.78 1959.22 2081.64 1959.22 Q2089.37 1959.22 2093.19 1963.23 Q2097.01 1967.24 2097.01 1975.39 Z" fill="#000000" fill-rule="nonzero" fill-opacity="1" /><polyline clip-path="url(#clip470)" style="stroke:#000000; stroke-linecap:round; stroke-linejoin:round; stroke-width:4; stroke-opacity:1; fill:none" points="254.108,1832.86 254.108,113.392 "/>
<polyline clip-path="url(#clip470)" style="stroke:#000000; stroke-linecap:round; stroke-linejoin:round; stroke-width:4; stroke-opacity:1; fill:none" points="254.108,1644.73 273.006,1644.73 "/>
<polyline clip-path="url(#clip470)" style="stroke:#000000; stroke-linecap:round; stroke-linejoin:round; stroke-width:4; stroke-opacity:1; fill:none" points="254.108,1243.41 273.006,1243.41 "/>
<polyline clip-path="url(#clip470)" style="stroke:#000000; stroke-linecap:round; stroke-linejoin:round; stroke-width:4; stroke-opacity:1; fill:none" points="254.108,842.097 273.006,842.097 "/>
<polyline clip-path="url(#clip470)" style="stroke:#000000; stroke-linecap:round; stroke-linejoin:round; stroke-width:4; stroke-opacity:1; fill:none" points="254.108,440.78 273.006,440.78 "/>
<path clip-path="url(#clip470)" d="M112.285 1630.53 Q108.673 1630.53 106.845 1634.09 Q105.039 1637.63 105.039 1644.76 Q105.039 1651.87 106.845 1655.44 Q108.673 1658.98 112.285 1658.98 Q115.919 1658.98 117.724 1655.44 Q119.553 1651.87 119.553 1644.76 Q119.553 1637.63 117.724 1634.09 Q115.919 1630.53 112.285 1630.53 M112.285 1626.82 Q118.095 1626.82 121.15 1631.43 Q124.229 1636.01 124.229 1644.76 Q124.229 1653.49 121.15 1658.1 Q118.095 1662.68 112.285 1662.68 Q106.474 1662.68 103.396 1658.1 Q100.34 1653.49 100.34 1644.76 Q100.34 1636.01 103.396 1631.43 Q106.474 1626.82 112.285 1626.82 Z" fill="#000000" fill-rule="nonzero" fill-opacity="1" /><path clip-path="url(#clip470)" d="M132.446 1656.13 L137.331 1656.13 L137.331 1662.01 L132.446 1662.01 L132.446 1656.13 Z" fill="#000000" fill-rule="nonzero" fill-opacity="1" /><path clip-path="url(#clip470)" d="M160.363 1631.52 L148.557 1649.97 L160.363 1649.97 L160.363 1631.52 M159.136 1627.45 L165.016 1627.45 L165.016 1649.97 L169.946 1649.97 L169.946 1653.86 L165.016 1653.86 L165.016 1662.01 L160.363 1662.01 L160.363 1653.86 L144.761 1653.86 L144.761 1649.35 L159.136 1627.45 Z" fill="#000000" fill-rule="nonzero" fill-opacity="1" /><path clip-path="url(#clip470)" d="M190.525 1631.52 L178.719 1649.97 L190.525 1649.97 L190.525 1631.52 M189.298 1627.45 L195.178 1627.45 L195.178 1649.97 L200.108 1649.97 L200.108 1653.86 L195.178 1653.86 L195.178 1662.01 L190.525 1662.01 L190.525 1653.86 L174.923 1653.86 L174.923 1649.35 L189.298 1627.45 Z" fill="#000000" fill-rule="nonzero" fill-opacity="1" /><path clip-path="url(#clip470)" d="M112.609 1229.21 Q108.998 1229.21 107.169 1232.78 Q105.363 1236.32 105.363 1243.45 Q105.363 1250.55 107.169 1254.12 Q108.998 1257.66 112.609 1257.66 Q116.243 1257.66 118.048 1254.12 Q119.877 1250.55 119.877 1243.45 Q119.877 1236.32 118.048 1232.78 Q116.243 1229.21 112.609 1229.21 M112.609 1225.51 Q118.419 1225.51 121.474 1230.11 Q124.553 1234.7 124.553 1243.45 Q124.553 1252.17 121.474 1256.78 Q118.419 1261.36 112.609 1261.36 Q106.798 1261.36 103.72 1256.78 Q100.664 1252.17 100.664 1243.45 Q100.664 1234.7 103.72 1230.11 Q106.798 1225.51 112.609 1225.51 Z" fill="#000000" fill-rule="nonzero" fill-opacity="1" /><path clip-path="url(#clip470)" d="M132.771 1254.81 L137.655 1254.81 L137.655 1260.69 L132.771 1260.69 L132.771 1254.81 Z" fill="#000000" fill-rule="nonzero" fill-opacity="1" /><path clip-path="url(#clip470)" d="M160.687 1230.21 L148.882 1248.66 L160.687 1248.66 L160.687 1230.21 M159.46 1226.13 L165.34 1226.13 L165.34 1248.66 L170.27 1248.66 L170.27 1252.54 L165.34 1252.54 L165.34 1260.69 L160.687 1260.69 L160.687 1252.54 L145.085 1252.54 L145.085 1248.03 L159.46 1226.13 Z" fill="#000000" fill-rule="nonzero" fill-opacity="1" /><path clip-path="url(#clip470)" d="M188.58 1241.55 Q185.432 1241.55 183.58 1243.7 Q181.752 1245.86 181.752 1249.61 Q181.752 1253.33 183.58 1255.51 Q185.432 1257.66 188.58 1257.66 Q191.729 1257.66 193.557 1255.51 Q195.409 1253.33 195.409 1249.61 Q195.409 1245.86 193.557 1243.7 Q191.729 1241.55 188.58 1241.55 M197.863 1226.9 L197.863 1231.16 Q196.104 1230.32 194.298 1229.88 Q192.516 1229.44 190.756 1229.44 Q186.127 1229.44 183.673 1232.57 Q181.243 1235.69 180.895 1242.01 Q182.261 1240 184.321 1238.93 Q186.381 1237.85 188.858 1237.85 Q194.067 1237.85 197.076 1241.02 Q200.108 1244.17 200.108 1249.61 Q200.108 1254.93 196.96 1258.15 Q193.812 1261.36 188.58 1261.36 Q182.585 1261.36 179.414 1256.78 Q176.243 1252.17 176.243 1243.45 Q176.243 1235.25 180.131 1230.39 Q184.02 1225.51 190.571 1225.51 Q192.33 1225.51 194.113 1225.86 Q195.918 1226.2 197.863 1226.9 Z" fill="#000000" fill-rule="nonzero" fill-opacity="1" /><path clip-path="url(#clip470)" d="M112.863 827.895 Q109.252 827.895 107.423 831.46 Q105.618 835.002 105.618 842.131 Q105.618 849.238 107.423 852.802 Q109.252 856.344 112.863 856.344 Q116.497 856.344 118.303 852.802 Q120.132 849.238 120.132 842.131 Q120.132 835.002 118.303 831.46 Q116.497 827.895 112.863 827.895 M112.863 824.192 Q118.673 824.192 121.729 828.798 Q124.808 833.381 124.808 842.131 Q124.808 850.858 121.729 855.465 Q118.673 860.048 112.863 860.048 Q107.053 860.048 103.974 855.465 Q100.919 850.858 100.919 842.131 Q100.919 833.381 103.974 828.798 Q107.053 824.192 112.863 824.192 Z" fill="#000000" fill-rule="nonzero" fill-opacity="1" /><path clip-path="url(#clip470)" d="M133.025 853.497 L137.909 853.497 L137.909 859.377 L133.025 859.377 L133.025 853.497 Z" fill="#000000" fill-rule="nonzero" fill-opacity="1" /><path clip-path="url(#clip470)" d="M160.942 828.891 L149.136 847.34 L160.942 847.34 L160.942 828.891 M159.715 824.817 L165.594 824.817 L165.594 847.34 L170.525 847.34 L170.525 851.228 L165.594 851.228 L165.594 859.377 L160.942 859.377 L160.942 851.228 L145.34 851.228 L145.34 846.715 L159.715 824.817 Z" fill="#000000" fill-rule="nonzero" fill-opacity="1" /><path clip-path="url(#clip470)" d="M188.256 842.965 Q184.923 842.965 183.002 844.747 Q181.104 846.529 181.104 849.654 Q181.104 852.779 183.002 854.562 Q184.923 856.344 188.256 856.344 Q191.59 856.344 193.511 854.562 Q195.432 852.756 195.432 849.654 Q195.432 846.529 193.511 844.747 Q191.613 842.965 188.256 842.965 M183.58 840.974 Q180.571 840.233 178.881 838.173 Q177.215 836.113 177.215 833.15 Q177.215 829.006 180.155 826.599 Q183.117 824.192 188.256 824.192 Q193.418 824.192 196.358 826.599 Q199.298 829.006 199.298 833.15 Q199.298 836.113 197.608 838.173 Q195.941 840.233 192.955 840.974 Q196.335 841.761 198.21 844.053 Q200.108 846.344 200.108 849.654 Q200.108 854.677 197.029 857.363 Q193.974 860.048 188.256 860.048 Q182.539 860.048 179.46 857.363 Q176.405 854.677 176.405 849.654 Q176.405 846.344 178.303 844.053 Q180.201 841.761 183.58 840.974 M181.867 833.59 Q181.867 836.275 183.534 837.779 Q185.224 839.284 188.256 839.284 Q191.266 839.284 192.955 837.779 Q194.668 836.275 194.668 833.59 Q194.668 830.904 192.955 829.4 Q191.266 827.895 188.256 827.895 Q185.224 827.895 183.534 829.4 Q181.867 830.904 181.867 833.59 Z" fill="#000000" fill-rule="nonzero" fill-opacity="1" /><path clip-path="url(#clip470)" d="M112.771 426.579 Q109.16 426.579 107.331 430.143 Q105.525 433.685 105.525 440.815 Q105.525 447.921 107.331 451.486 Q109.16 455.028 112.771 455.028 Q116.405 455.028 118.21 451.486 Q120.039 447.921 120.039 440.815 Q120.039 433.685 118.21 430.143 Q116.405 426.579 112.771 426.579 M112.771 422.875 Q118.581 422.875 121.636 427.481 Q124.715 432.065 124.715 440.815 Q124.715 449.541 121.636 454.148 Q118.581 458.731 112.771 458.731 Q106.96 458.731 103.882 454.148 Q100.826 449.541 100.826 440.815 Q100.826 432.065 103.882 427.481 Q106.96 422.875 112.771 422.875 Z" fill="#000000" fill-rule="nonzero" fill-opacity="1" /><path clip-path="url(#clip470)" d="M132.933 452.18 L137.817 452.18 L137.817 458.06 L132.933 458.06 L132.933 452.18 Z" fill="#000000" fill-rule="nonzero" fill-opacity="1" /><path clip-path="url(#clip470)" d="M148.048 423.5 L166.405 423.5 L166.405 427.435 L152.331 427.435 L152.331 435.907 Q153.349 435.56 154.368 435.398 Q155.386 435.213 156.405 435.213 Q162.192 435.213 165.571 438.384 Q168.951 441.555 168.951 446.972 Q168.951 452.551 165.479 455.653 Q162.006 458.731 155.687 458.731 Q153.511 458.731 151.243 458.361 Q148.997 457.991 146.59 457.25 L146.59 452.551 Q148.673 453.685 150.895 454.241 Q153.118 454.796 155.594 454.796 Q159.599 454.796 161.937 452.69 Q164.275 450.583 164.275 446.972 Q164.275 443.361 161.937 441.254 Q159.599 439.148 155.594 439.148 Q153.72 439.148 151.845 439.565 Q149.993 439.981 148.048 440.861 L148.048 423.5 Z" fill="#000000" fill-rule="nonzero" fill-opacity="1" /><path clip-path="url(#clip470)" d="M188.164 426.579 Q184.553 426.579 182.724 430.143 Q180.918 433.685 180.918 440.815 Q180.918 447.921 182.724 451.486 Q184.553 455.028 188.164 455.028 Q191.798 455.028 193.604 451.486 Q195.432 447.921 195.432 440.815 Q195.432 433.685 193.604 430.143 Q191.798 426.579 188.164 426.579 M188.164 422.875 Q193.974 422.875 197.029 427.481 Q200.108 432.065 200.108 440.815 Q200.108 449.541 197.029 454.148 Q193.974 458.731 188.164 458.731 Q182.354 458.731 179.275 454.148 Q176.219 449.541 176.219 440.815 Q176.219 432.065 179.275 427.481 Q182.354 422.875 188.164 422.875 Z" fill="#000000" fill-rule="nonzero" fill-opacity="1" /><path clip-path="url(#clip470)" d="M-15.4358 1555.92 L-15.4358 1525.88 L-10.025 1525.88 L-10.025 1549.49 L4.04322 1549.49 L4.04322 1526.86 L9.45407 1526.86 L9.45407 1549.49 L26.6733 1549.49 L26.6733 1525.3 L32.0842 1525.3 L32.0842 1555.92 L-15.4358 1555.92 Z" fill="#000000" fill-rule="nonzero" fill-opacity="1" /><path clip-path="url(#clip470)" d="M14.292 1511.49 Q20.7532 1511.49 24.4453 1508.85 Q28.1056 1506.17 28.1056 1501.53 Q28.1056 1496.88 24.4453 1494.21 Q20.7532 1491.53 14.292 1491.53 Q7.83082 1491.53 4.17053 1494.21 Q0.478424 1496.88 0.478424 1501.53 Q0.478424 1506.17 4.17053 1508.85 Q7.83082 1511.49 14.292 1511.49 M26.737 1491.53 Q29.9198 1493.38 31.4794 1496.21 Q33.0072 1499.01 33.0072 1502.96 Q33.0072 1509.42 27.851 1513.49 Q22.6947 1517.54 14.292 1517.54 Q5.88927 1517.54 0.733052 1513.49 Q-4.42317 1509.42 -4.42317 1502.96 Q-4.42317 1499.01 -2.86357 1496.21 Q-1.3358 1493.38 1.84705 1491.53 L-3.5638 1491.53 L-3.5638 1485.68 L45.6431 1485.68 L45.6431 1491.53 L26.737 1491.53 Z" fill="#000000" fill-rule="nonzero" fill-opacity="1" /><path clip-path="url(#clip470)" d="M18.0159 1474.22 L-3.5638 1474.22 L-3.5638 1468.36 L17.7931 1468.36 Q22.8539 1468.36 25.4002 1466.39 Q27.9146 1464.42 27.9146 1460.47 Q27.9146 1455.73 24.8909 1452.99 Q21.8672 1450.22 16.6473 1450.22 L-3.5638 1450.22 L-3.5638 1444.36 L32.0842 1444.36 L32.0842 1450.22 L26.6096 1450.22 Q29.8562 1452.35 31.4476 1455.19 Q33.0072 1457.99 33.0072 1461.71 Q33.0072 1467.85 29.1878 1471.04 Q25.3683 1474.22 18.0159 1474.22 M-4.42317 1459.48 L-4.42317 1459.48 Z" fill="#000000" fill-rule="nonzero" fill-opacity="1" /><path clip-path="url(#clip470)" d="M-3.5638 1432.3 L-3.5638 1426.44 L32.0842 1426.44 L32.0842 1432.3 L-3.5638 1432.3 M-17.441 1432.3 L-17.441 1426.44 L-10.025 1426.44 L-10.025 1432.3 L-17.441 1432.3 Z" fill="#000000" fill-rule="nonzero" fill-opacity="1" /><path clip-path="url(#clip470)" d="M-17.441 1414.19 L-17.441 1408.33 L32.0842 1408.33 L32.0842 1414.19 L-17.441 1414.19 Z" fill="#000000" fill-rule="nonzero" fill-opacity="1" /><path clip-path="url(#clip470)" d="M-3.5638 1396.08 L-3.5638 1390.22 L32.0842 1390.22 L32.0842 1396.08 L-3.5638 1396.08 M-17.441 1396.08 L-17.441 1390.22 L-10.025 1390.22 L-10.025 1396.08 L-17.441 1396.08 Z" fill="#000000" fill-rule="nonzero" fill-opacity="1" /><path clip-path="url(#clip470)" d="M14.292 1352.38 Q7.83082 1352.38 4.17053 1355.05 Q0.478424 1357.69 0.478424 1362.34 Q0.478424 1366.99 4.17053 1369.66 Q7.83082 1372.3 14.292 1372.3 Q20.7532 1372.3 24.4453 1369.66 Q28.1056 1366.99 28.1056 1362.34 Q28.1056 1357.69 24.4453 1355.05 Q20.7532 1352.38 14.292 1352.38 M1.84705 1372.3 Q-1.3358 1370.46 -2.86357 1367.66 Q-4.42317 1364.82 -4.42317 1360.91 Q-4.42317 1354.42 0.733052 1350.37 Q5.88927 1346.3 14.292 1346.3 Q22.6947 1346.3 27.851 1350.37 Q33.0072 1354.42 33.0072 1360.91 Q33.0072 1364.82 31.4794 1367.66 Q29.9198 1370.46 26.737 1372.3 L32.0842 1372.3 L32.0842 1378.19 L-17.441 1378.19 L-17.441 1372.3 L1.84705 1372.3 Z" fill="#000000" fill-rule="nonzero" fill-opacity="1" /><path clip-path="url(#clip470)" d="M1.91071 1315.94 Q1.33779 1316.92 1.08317 1318.1 Q0.796709 1319.25 0.796709 1320.65 Q0.796709 1325.61 4.04322 1328.28 Q7.2579 1330.93 13.3053 1330.93 L32.0842 1330.93 L32.0842 1336.81 L-3.5638 1336.81 L-3.5638 1330.93 L1.97437 1330.93 Q-1.27215 1329.08 -2.83174 1326.12 Q-4.42317 1323.16 -4.42317 1318.93 Q-4.42317 1318.32 -4.32768 1317.59 Q-4.26403 1316.86 -4.10488 1315.97 L1.91071 1315.94 Z" fill="#000000" fill-rule="nonzero" fill-opacity="1" /><path clip-path="url(#clip470)" d="M-3.5638 1309.79 L-3.5638 1303.94 L32.0842 1303.94 L32.0842 1309.79 L-3.5638 1309.79 M-17.441 1309.79 L-17.441 1303.94 L-10.025 1303.94 L-10.025 1309.79 L-17.441 1309.79 Z" fill="#000000" fill-rule="nonzero" fill-opacity="1" /><path clip-path="url(#clip470)" d="M18.0159 1292.29 L-3.5638 1292.29 L-3.5638 1286.43 L17.7931 1286.43 Q22.8539 1286.43 25.4002 1284.46 Q27.9146 1282.48 27.9146 1278.54 Q27.9146 1273.79 24.8909 1271.06 Q21.8672 1268.29 16.6473 1268.29 L-3.5638 1268.29 L-3.5638 1262.43 L32.0842 1262.43 L32.0842 1268.29 L26.6096 1268.29 Q29.8562 1270.42 31.4476 1273.25 Q33.0072 1276.05 33.0072 1279.78 Q33.0072 1285.92 29.1878 1289.1 Q25.3683 1292.29 18.0159 1292.29 M-4.42317 1277.55 L-4.42317 1277.55 Z" fill="#000000" fill-rule="nonzero" fill-opacity="1" /><path clip-path="url(#clip470)" d="M3.27933 1222.61 Q-0.667403 1220.42 -2.54529 1217.36 Q-4.42317 1214.31 -4.42317 1210.17 Q-4.42317 1204.6 -0.50826 1201.58 Q3.37482 1198.55 10.5681 1198.55 L32.0842 1198.55 L32.0842 1204.44 L10.759 1204.44 Q5.63465 1204.44 3.15202 1206.25 Q0.669395 1208.07 0.669395 1211.79 Q0.669395 1216.34 3.69311 1218.99 Q6.71682 1221.63 11.9367 1221.63 L32.0842 1221.63 L32.0842 1227.52 L10.759 1227.52 Q5.60282 1227.52 3.15202 1229.33 Q0.669395 1231.14 0.669395 1234.93 Q0.669395 1239.42 3.72493 1242.06 Q6.74865 1244.7 11.9367 1244.7 L32.0842 1244.7 L32.0842 1250.59 L-3.5638 1250.59 L-3.5638 1244.7 L1.97437 1244.7 Q-1.30397 1242.7 -2.86357 1239.9 Q-4.42317 1237.1 -4.42317 1233.24 Q-4.42317 1229.36 -2.4498 1226.66 Q-0.476432 1223.92 3.27933 1222.61 Z" fill="#000000" fill-rule="nonzero" fill-opacity="1" /><path clip-path="url(#clip470)" d="M12.7961 1135.66 L15.6606 1135.66 L15.6606 1162.59 Q21.7081 1162.2 24.8909 1158.96 Q28.0419 1155.68 28.0419 1149.85 Q28.0419 1146.48 27.2144 1143.33 Q26.3869 1140.15 24.7318 1137.03 L30.2699 1137.03 Q31.6067 1140.18 32.307 1143.49 Q33.0072 1146.8 33.0072 1150.2 Q33.0072 1158.73 28.0419 1163.73 Q23.0767 1168.7 14.6103 1168.7 Q5.85745 1168.7 0.733052 1163.99 Q-4.42317 1159.24 -4.42317 1151.22 Q-4.42317 1144.03 0.223796 1139.86 Q4.83893 1135.66 12.7961 1135.66 M11.0773 1141.51 Q6.27122 1141.58 3.40665 1144.22 Q0.542081 1146.83 0.542081 1151.16 Q0.542081 1156.06 3.31116 1159.02 Q6.08025 1161.95 11.1092 1162.39 L11.0773 1141.51 Z" fill="#000000" fill-rule="nonzero" fill-opacity="1" /><path clip-path="url(#clip470)" d="M-3.5638 1097.56 L13.7828 1110.45 L32.0842 1096.89 L32.0842 1103.8 L18.0796 1114.17 L32.0842 1124.55 L32.0842 1131.46 L13.4326 1117.61 L-3.5638 1130.28 L-3.5638 1123.37 L9.13579 1113.92 L-3.5638 1104.47 L-3.5638 1097.56 Z" fill="#000000" fill-rule="nonzero" fill-opacity="1" /><path clip-path="url(#clip470)" d="M26.737 1082.95 L45.6431 1082.95 L45.6431 1088.84 L-3.5638 1088.84 L-3.5638 1082.95 L1.84705 1082.95 Q-1.3358 1081.1 -2.86357 1078.3 Q-4.42317 1075.47 -4.42317 1071.56 Q-4.42317 1065.06 0.733052 1061.02 Q5.88927 1056.95 14.292 1056.95 Q22.6947 1056.95 27.851 1061.02 Q33.0072 1065.06 33.0072 1071.56 Q33.0072 1075.47 31.4794 1078.3 Q29.9198 1081.1 26.737 1082.95 M14.292 1063.03 Q7.83082 1063.03 4.17053 1065.7 Q0.478424 1068.34 0.478424 1072.99 Q0.478424 1077.63 4.17053 1080.31 Q7.83082 1082.95 14.292 1082.95 Q20.7532 1082.95 24.4453 1080.31 Q28.1056 1077.63 28.1056 1072.99 Q28.1056 1068.34 24.4453 1065.7 Q20.7532 1063.03 14.292 1063.03 Z" fill="#000000" fill-rule="nonzero" fill-opacity="1" /><path clip-path="url(#clip470)" d="M0.542081 1033.43 Q0.542081 1038.14 4.23419 1040.87 Q7.89447 1043.61 14.292 1043.61 Q20.6895 1043.61 24.3817 1040.9 Q28.0419 1038.17 28.0419 1033.43 Q28.0419 1028.75 24.3498 1026.01 Q20.6577 1023.27 14.292 1023.27 Q7.95813 1023.27 4.26602 1026.01 Q0.542081 1028.75 0.542081 1033.43 M-4.42317 1033.43 Q-4.42317 1025.79 0.542081 1021.43 Q5.50733 1017.07 14.292 1017.07 Q23.0449 1017.07 28.0419 1021.43 Q33.0072 1025.79 33.0072 1033.43 Q33.0072 1041.1 28.0419 1045.46 Q23.0449 1049.79 14.292 1049.79 Q5.50733 1049.79 0.542081 1045.46 Q-4.42317 1041.1 -4.42317 1033.43 Z" fill="#000000" fill-rule="nonzero" fill-opacity="1" /><path clip-path="url(#clip470)" d="M-2.51346 984.632 L3.02471 984.632 Q1.75157 987.115 1.11499 989.788 Q0.478424 992.462 0.478424 995.326 Q0.478424 999.687 1.81522 1001.88 Q3.15202 1004.05 5.82562 1004.05 Q7.86264 1004.05 9.0403 1002.49 Q10.1861 1000.93 11.2365 996.218 L11.6821 994.212 Q13.0189 987.974 15.4697 985.364 Q17.8886 982.722 22.2491 982.722 Q27.2144 982.722 30.1108 986.669 Q33.0072 990.584 33.0072 997.459 Q33.0072 1000.32 32.4343 1003.44 Q31.8932 1006.53 30.7792 1009.97 L24.7318 1009.97 Q26.4187 1006.72 27.278 1003.57 Q28.1056 1000.42 28.1056 997.332 Q28.1056 993.194 26.7051 990.966 Q25.2729 988.738 22.6947 988.738 Q20.3076 988.738 19.0345 990.361 Q17.7613 991.953 16.5837 997.395 L16.1062 999.432 Q14.9604 1004.87 12.6051 1007.29 Q10.218 1009.71 6.08025 1009.71 Q1.05134 1009.71 -1.68592 1006.15 Q-4.42317 1002.58 -4.42317 996.027 Q-4.42317 992.78 -3.94574 989.916 Q-3.46831 987.051 -2.51346 984.632 Z" fill="#000000" fill-rule="nonzero" fill-opacity="1" /><path clip-path="url(#clip470)" d="M18.0159 974.001 L-3.5638 974.001 L-3.5638 968.145 L17.7931 968.145 Q22.8539 968.145 25.4002 966.171 Q27.9146 964.198 27.9146 960.251 Q27.9146 955.509 24.8909 952.772 Q21.8672 950.003 16.6473 950.003 L-3.5638 950.003 L-3.5638 944.146 L32.0842 944.146 L32.0842 950.003 L26.6096 950.003 Q29.8562 952.135 31.4476 954.968 Q33.0072 957.769 33.0072 961.493 Q33.0072 967.636 29.1878 970.818 Q25.3683 974.001 18.0159 974.001 M-4.42317 959.265 L-4.42317 959.265 Z" fill="#000000" fill-rule="nonzero" fill-opacity="1" /><path clip-path="url(#clip470)" d="M1.91071 911.426 Q1.33779 912.413 1.08317 913.591 Q0.796709 914.737 0.796709 916.137 Q0.796709 921.102 4.04322 923.776 Q7.2579 926.418 13.3053 926.418 L32.0842 926.418 L32.0842 932.306 L-3.5638 932.306 L-3.5638 926.418 L1.97437 926.418 Q-1.27215 924.572 -2.83174 921.612 Q-4.42317 918.651 -4.42317 914.418 Q-4.42317 913.814 -4.32768 913.081 Q-4.26403 912.349 -4.10488 911.458 L1.91071 911.426 Z" fill="#000000" fill-rule="nonzero" fill-opacity="1" /><path clip-path="url(#clip470)" d="M12.7961 876.224 L15.6606 876.224 L15.6606 903.151 Q21.7081 902.769 24.8909 899.523 Q28.0419 896.244 28.0419 890.42 Q28.0419 887.046 27.2144 883.895 Q26.3869 880.712 24.7318 877.593 L30.2699 877.593 Q31.6067 880.744 32.307 884.054 Q33.0072 887.364 33.0072 890.77 Q33.0072 899.3 28.0419 904.297 Q23.0767 909.262 14.6103 909.262 Q5.85745 909.262 0.733052 904.551 Q-4.42317 899.809 -4.42317 891.788 Q-4.42317 884.595 0.223796 880.425 Q4.83893 876.224 12.7961 876.224 M11.0773 882.08 Q6.27122 882.144 3.40665 884.786 Q0.542081 887.396 0.542081 891.725 Q0.542081 896.626 3.31116 899.586 Q6.08025 902.514 11.1092 902.96 L11.0773 882.08 Z" fill="#000000" fill-rule="nonzero" fill-opacity="1" /><path clip-path="url(#clip470)" d="M-17.3774 831.823 Q-10.0568 836.088 -2.8954 838.157 Q4.26602 840.226 11.6184 840.226 Q18.9708 840.226 26.1959 838.157 Q33.3891 836.056 40.6779 831.823 L40.6779 836.916 Q33.1982 841.69 25.9731 844.077 Q18.748 846.433 11.6184 846.433 Q4.52065 846.433 -2.6726 844.077 Q-9.86585 841.722 -17.3774 836.916 L-17.3774 831.823 Z" fill="#000000" fill-rule="nonzero" fill-opacity="1" /><path clip-path="url(#clip470)" d="M-13.6853 814.668 L-3.5638 814.668 L-3.5638 802.605 L0.987681 802.605 L0.987681 814.668 L20.3394 814.668 Q24.6999 814.668 25.9413 813.49 Q27.1826 812.28 27.1826 808.62 L27.1826 802.605 L32.0842 802.605 L32.0842 808.62 Q32.0842 815.4 29.5697 817.978 Q27.0234 820.556 20.3394 820.556 L0.987681 820.556 L0.987681 824.853 L-3.5638 824.853 L-3.5638 820.556 L-13.6853 820.556 L-13.6853 814.668 Z" fill="#000000" fill-rule="nonzero" fill-opacity="1" /><path clip-path="url(#clip470)" d="M10.5681 765.27 L32.0842 765.27 L32.0842 771.126 L10.759 771.126 Q5.6983 771.126 3.18385 773.1 Q0.669395 775.073 0.669395 779.02 Q0.669395 783.762 3.69311 786.499 Q6.71682 789.237 11.9367 789.237 L32.0842 789.237 L32.0842 795.125 L-17.441 795.125 L-17.441 789.237 L1.97437 789.237 Q-1.24032 787.136 -2.83174 784.303 Q-4.42317 781.439 -4.42317 777.715 Q-4.42317 771.572 -0.603746 768.421 Q3.18385 765.27 10.5681 765.27 Z" fill="#000000" fill-rule="nonzero" fill-opacity="1" /><path clip-path="url(#clip470)" d="M1.91071 732.932 Q1.33779 733.919 1.08317 735.096 Q0.796709 736.242 0.796709 737.643 Q0.796709 742.608 4.04322 745.281 Q7.2579 747.923 13.3053 747.923 L32.0842 747.923 L32.0842 753.811 L-3.5638 753.811 L-3.5638 747.923 L1.97437 747.923 Q-1.27215 746.077 -2.83174 743.117 Q-4.42317 740.157 -4.42317 735.924 Q-4.42317 735.319 -4.32768 734.587 Q-4.26403 733.855 -4.10488 732.964 L1.91071 732.932 Z" fill="#000000" fill-rule="nonzero" fill-opacity="1" /><path clip-path="url(#clip470)" d="M12.7961 697.73 L15.6606 697.73 L15.6606 724.657 Q21.7081 724.275 24.8909 721.028 Q28.0419 717.75 28.0419 711.925 Q28.0419 708.551 27.2144 705.4 Q26.3869 702.217 24.7318 699.098 L30.2699 699.098 Q31.6067 702.249 32.307 705.559 Q33.0072 708.87 33.0072 712.275 Q33.0072 720.805 28.0419 725.802 Q23.0767 730.768 14.6103 730.768 Q5.85745 730.768 0.733052 726.057 Q-4.42317 721.315 -4.42317 713.294 Q-4.42317 706.101 0.223796 701.931 Q4.83893 697.73 12.7961 697.73 M11.0773 703.586 Q6.27122 703.65 3.40665 706.291 Q0.542081 708.901 0.542081 713.23 Q0.542081 718.132 3.31116 721.092 Q6.08025 724.02 11.1092 724.466 L11.0773 703.586 Z" fill="#000000" fill-rule="nonzero" fill-opacity="1" /><path clip-path="url(#clip470)" d="M12.7961 657.626 L15.6606 657.626 L15.6606 684.553 Q21.7081 684.171 24.8909 680.924 Q28.0419 677.646 28.0419 671.821 Q28.0419 668.447 27.2144 665.296 Q26.3869 662.113 24.7318 658.994 L30.2699 658.994 Q31.6067 662.145 32.307 665.455 Q33.0072 668.766 33.0072 672.171 Q33.0072 680.701 28.0419 685.698 Q23.0767 690.664 14.6103 690.664 Q5.85745 690.664 0.733052 685.953 Q-4.42317 681.211 -4.42317 673.19 Q-4.42317 665.997 0.223796 661.827 Q4.83893 657.626 12.7961 657.626 M11.0773 663.482 Q6.27122 663.546 3.40665 666.188 Q0.542081 668.797 0.542081 673.126 Q0.542081 678.028 3.31116 680.988 Q6.08025 683.916 11.1092 684.362 L11.0773 663.482 Z" fill="#000000" fill-rule="nonzero" fill-opacity="1" /><path clip-path="url(#clip470)" d="M13.8464 603.835 Q7.4807 603.835 3.97956 606.477 Q0.478424 609.087 0.478424 613.83 Q0.478424 618.54 3.97956 621.182 Q7.4807 623.792 13.8464 623.792 Q20.1803 623.792 23.6814 621.182 Q27.1826 618.54 27.1826 613.83 Q27.1826 609.087 23.6814 606.477 Q20.1803 603.835 13.8464 603.835 M27.66 597.979 Q36.763 597.979 41.1871 602.021 Q45.6431 606.063 45.6431 614.403 Q45.6431 617.49 45.1657 620.227 Q44.7201 622.964 43.7652 625.542 L38.0679 625.542 Q39.4684 622.964 40.1368 620.45 Q40.8052 617.935 40.8052 615.326 Q40.8052 609.565 37.7815 606.7 Q34.7896 603.835 28.7103 603.835 L25.8139 603.835 Q28.965 605.65 30.5246 608.482 Q32.0842 611.315 32.0842 615.262 Q32.0842 621.819 27.0871 625.829 Q22.09 629.839 13.8464 629.839 Q5.57099 629.839 0.57391 625.829 Q-4.42317 621.819 -4.42317 615.262 Q-4.42317 611.315 -2.86357 608.482 Q-1.30397 605.65 1.84705 603.835 L-3.5638 603.835 L-3.5638 597.979 L27.66 597.979 Z" fill="#000000" fill-rule="nonzero" fill-opacity="1" /><path clip-path="url(#clip470)" d="M1.91071 565.259 Q1.33779 566.246 1.08317 567.424 Q0.796709 568.569 0.796709 569.97 Q0.796709 574.935 4.04322 577.609 Q7.2579 580.25 13.3053 580.25 L32.0842 580.25 L32.0842 586.139 L-3.5638 586.139 L-3.5638 580.25 L1.97437 580.25 Q-1.27215 578.404 -2.83174 575.444 Q-4.42317 572.484 -4.42317 568.251 Q-4.42317 567.646 -4.32768 566.914 Q-4.26403 566.182 -4.10488 565.291 L1.91071 565.259 Z" fill="#000000" fill-rule="nonzero" fill-opacity="1" /><path clip-path="url(#clip470)" d="M0.542081 546.735 Q0.542081 551.446 4.23419 554.183 Q7.89447 556.92 14.292 556.92 Q20.6895 556.92 24.3817 554.215 Q28.0419 551.477 28.0419 546.735 Q28.0419 542.056 24.3498 539.319 Q20.6577 536.582 14.292 536.582 Q7.95813 536.582 4.26602 539.319 Q0.542081 542.056 0.542081 546.735 M-4.42317 546.735 Q-4.42317 539.096 0.542081 534.736 Q5.50733 530.375 14.292 530.375 Q23.0449 530.375 28.0419 534.736 Q33.0072 539.096 33.0072 546.735 Q33.0072 554.406 28.0419 558.766 Q23.0449 563.095 14.292 563.095 Q5.50733 563.095 0.542081 558.766 Q-4.42317 554.406 -4.42317 546.735 Z" fill="#000000" fill-rule="nonzero" fill-opacity="1" /><path clip-path="url(#clip470)" d="M18.0159 521.272 L-3.5638 521.272 L-3.5638 515.416 L17.7931 515.416 Q22.8539 515.416 25.4002 513.442 Q27.9146 511.469 27.9146 507.522 Q27.9146 502.78 24.8909 500.043 Q21.8672 497.273 16.6473 497.273 L-3.5638 497.273 L-3.5638 491.417 L32.0842 491.417 L32.0842 497.273 L26.6096 497.273 Q29.8562 499.406 31.4476 502.239 Q33.0072 505.04 33.0072 508.764 Q33.0072 514.907 29.1878 518.089 Q25.3683 521.272 18.0159 521.272 M-4.42317 506.536 L-4.42317 506.536 Z" fill="#000000" fill-rule="nonzero" fill-opacity="1" /><path clip-path="url(#clip470)" d="M26.737 473.689 L45.6431 473.689 L45.6431 479.577 L-3.5638 479.577 L-3.5638 473.689 L1.84705 473.689 Q-1.3358 471.843 -2.86357 469.042 Q-4.42317 466.209 -4.42317 462.294 Q-4.42317 455.801 0.733052 451.759 Q5.88927 447.685 14.292 447.685 Q22.6947 447.685 27.851 451.759 Q33.0072 455.801 33.0072 462.294 Q33.0072 466.209 31.4794 469.042 Q29.9198 471.843 26.737 473.689 M14.292 453.764 Q7.83082 453.764 4.17053 456.437 Q0.478424 459.079 0.478424 463.726 Q0.478424 468.373 4.17053 471.047 Q7.83082 473.689 14.292 473.689 Q20.7532 473.689 24.4453 471.047 Q28.1056 468.373 28.1056 463.726 Q28.1056 459.079 24.4453 456.437 Q20.7532 453.764 14.292 453.764 Z" fill="#000000" fill-rule="nonzero" fill-opacity="1" /><path clip-path="url(#clip470)" d="M-2.51346 415.251 L3.02471 415.251 Q1.75157 417.734 1.11499 420.408 Q0.478424 423.081 0.478424 425.946 Q0.478424 430.306 1.81522 432.502 Q3.15202 434.667 5.82562 434.667 Q7.86264 434.667 9.0403 433.107 Q10.1861 431.548 11.2365 426.837 L11.6821 424.832 Q13.0189 418.593 15.4697 415.983 Q17.8886 413.342 22.2491 413.342 Q27.2144 413.342 30.1108 417.288 Q33.0072 421.203 33.0072 428.078 Q33.0072 430.943 32.4343 434.062 Q31.8932 437.149 30.7792 440.587 L24.7318 440.587 Q26.4187 437.34 27.278 434.189 Q28.1056 431.038 28.1056 427.951 Q28.1056 423.813 26.7051 421.585 Q25.2729 419.357 22.6947 419.357 Q20.3076 419.357 19.0345 420.981 Q17.7613 422.572 16.5837 428.015 L16.1062 430.052 Q14.9604 435.494 12.6051 437.913 Q10.218 440.332 6.08025 440.332 Q1.05134 440.332 -1.68592 436.767 Q-4.42317 433.203 -4.42317 426.646 Q-4.42317 423.399 -3.94574 420.535 Q-3.46831 417.67 -2.51346 415.251 Z" fill="#000000" fill-rule="nonzero" fill-opacity="1" /><path clip-path="url(#clip470)" d="M-17.3774 404.939 L-17.3774 399.846 Q-9.86585 395.072 -2.6726 392.717 Q4.52065 390.33 11.6184 390.33 Q18.748 390.33 25.9731 392.717 Q33.1982 395.072 40.6779 399.846 L40.6779 404.939 Q33.3891 400.706 26.1959 398.637 Q18.9708 396.536 11.6184 396.536 Q4.26602 396.536 -2.8954 398.637 Q-10.0568 400.706 -17.3774 404.939 Z" fill="#000000" fill-rule="nonzero" fill-opacity="1" /><path clip-path="url(#clip470)" d="M1146.26 12.096 L1184.5 12.096 L1184.5 18.9825 L1154.44 18.9825 L1154.44 36.8875 L1183.24 36.8875 L1183.24 43.7741 L1154.44 43.7741 L1154.44 65.6895 L1185.23 65.6895 L1185.23 72.576 L1146.26 72.576 L1146.26 12.096 Z" fill="#000000" fill-rule="nonzero" fill-opacity="1" /><path clip-path="url(#clip470)" d="M1202.81 49.9314 Q1202.81 58.1548 1206.17 62.8538 Q1209.57 67.5124 1215.49 67.5124 Q1221.4 67.5124 1224.8 62.8538 Q1228.21 58.1548 1228.21 49.9314 Q1228.21 41.7081 1224.8 37.0496 Q1221.4 32.3505 1215.49 32.3505 Q1209.57 32.3505 1206.17 37.0496 Q1202.81 41.7081 1202.81 49.9314 M1228.21 65.7705 Q1225.86 69.8214 1222.25 71.8063 Q1218.69 73.7508 1213.66 73.7508 Q1205.44 73.7508 1200.26 67.1883 Q1195.11 60.6258 1195.11 49.9314 Q1195.11 39.2371 1200.26 32.6746 Q1205.44 26.1121 1213.66 26.1121 Q1218.69 26.1121 1222.25 28.0971 Q1225.86 30.0415 1228.21 34.0924 L1228.21 27.2059 L1235.66 27.2059 L1235.66 89.8329 L1228.21 89.8329 L1228.21 65.7705 Z" fill="#000000" fill-rule="nonzero" fill-opacity="1" /><path clip-path="url(#clip470)" d="M1250.24 54.671 L1250.24 27.2059 L1257.7 27.2059 L1257.7 54.3874 Q1257.7 60.8284 1260.21 64.0691 Q1262.72 67.2693 1267.74 67.2693 Q1273.78 67.2693 1277.26 63.421 Q1280.79 59.5726 1280.79 52.9291 L1280.79 27.2059 L1288.24 27.2059 L1288.24 72.576 L1280.79 72.576 L1280.79 65.6084 Q1278.07 69.7404 1274.47 71.7658 Q1270.9 73.7508 1266.16 73.7508 Q1258.35 73.7508 1254.29 68.8897 Q1250.24 64.0286 1250.24 54.671 M1269 26.1121 L1269 26.1121 Z" fill="#000000" fill-rule="nonzero" fill-opacity="1" /><path clip-path="url(#clip470)" d="M1303.59 27.2059 L1311.05 27.2059 L1311.05 72.576 L1303.59 72.576 L1303.59 27.2059 M1303.59 9.54393 L1311.05 9.54393 L1311.05 18.9825 L1303.59 18.9825 L1303.59 9.54393 Z" fill="#000000" fill-rule="nonzero" fill-opacity="1" /><path clip-path="url(#clip470)" d="M1326.64 9.54393 L1334.1 9.54393 L1334.1 72.576 L1326.64 72.576 L1326.64 9.54393 Z" fill="#000000" fill-rule="nonzero" fill-opacity="1" /><path clip-path="url(#clip470)" d="M1349.69 27.2059 L1357.15 27.2059 L1357.15 72.576 L1349.69 72.576 L1349.69 27.2059 M1349.69 9.54393 L1357.15 9.54393 L1357.15 18.9825 L1349.69 18.9825 L1349.69 9.54393 Z" fill="#000000" fill-rule="nonzero" fill-opacity="1" /><path clip-path="url(#clip470)" d="M1405.31 49.9314 Q1405.31 41.7081 1401.91 37.0496 Q1398.55 32.3505 1392.63 32.3505 Q1386.72 32.3505 1383.32 37.0496 Q1379.95 41.7081 1379.95 49.9314 Q1379.95 58.1548 1383.32 62.8538 Q1386.72 67.5124 1392.63 67.5124 Q1398.55 67.5124 1401.91 62.8538 Q1405.31 58.1548 1405.31 49.9314 M1379.95 34.0924 Q1382.3 30.0415 1385.87 28.0971 Q1389.47 26.1121 1394.46 26.1121 Q1402.72 26.1121 1407.86 32.6746 Q1413.05 39.2371 1413.05 49.9314 Q1413.05 60.6258 1407.86 67.1883 Q1402.72 73.7508 1394.46 73.7508 Q1389.47 73.7508 1385.87 71.8063 Q1382.3 69.8214 1379.95 65.7705 L1379.95 72.576 L1372.46 72.576 L1372.46 9.54393 L1379.95 9.54393 L1379.95 34.0924 Z" fill="#000000" fill-rule="nonzero" fill-opacity="1" /><path clip-path="url(#clip470)" d="M1451.7 34.1734 Q1450.44 33.4443 1448.94 33.1202 Q1447.48 32.7556 1445.7 32.7556 Q1439.38 32.7556 1435.98 36.8875 Q1432.62 40.9789 1432.62 48.6757 L1432.62 72.576 L1425.12 72.576 L1425.12 27.2059 L1432.62 27.2059 L1432.62 34.2544 Q1434.97 30.1225 1438.73 28.1376 Q1442.5 26.1121 1447.89 26.1121 Q1448.66 26.1121 1449.59 26.2337 Q1450.52 26.3147 1451.65 26.5172 L1451.7 34.1734 Z" fill="#000000" fill-rule="nonzero" fill-opacity="1" /><path clip-path="url(#clip470)" d="M1459.51 27.2059 L1466.97 27.2059 L1466.97 72.576 L1459.51 72.576 L1459.51 27.2059 M1459.51 9.54393 L1466.97 9.54393 L1466.97 18.9825 L1459.51 18.9825 L1459.51 9.54393 Z" fill="#000000" fill-rule="nonzero" fill-opacity="1" /><path clip-path="url(#clip470)" d="M1481.79 54.671 L1481.79 27.2059 L1489.25 27.2059 L1489.25 54.3874 Q1489.25 60.8284 1491.76 64.0691 Q1494.27 67.2693 1499.29 67.2693 Q1505.33 67.2693 1508.81 63.421 Q1512.34 59.5726 1512.34 52.9291 L1512.34 27.2059 L1519.79 27.2059 L1519.79 72.576 L1512.34 72.576 L1512.34 65.6084 Q1509.62 69.7404 1506.02 71.7658 Q1502.45 73.7508 1497.71 73.7508 Q1489.9 73.7508 1485.84 68.8897 Q1481.79 64.0286 1481.79 54.671 M1500.55 26.1121 L1500.55 26.1121 Z" fill="#000000" fill-rule="nonzero" fill-opacity="1" /><path clip-path="url(#clip470)" d="M1570.47 35.9153 Q1573.26 30.8922 1577.15 28.5022 Q1581.04 26.1121 1586.31 26.1121 Q1593.4 26.1121 1597.24 31.0947 Q1601.09 36.0368 1601.09 45.1919 L1601.09 72.576 L1593.6 72.576 L1593.6 45.4349 Q1593.6 38.913 1591.29 35.7533 Q1588.98 32.5936 1584.24 32.5936 Q1578.45 32.5936 1575.09 36.4419 Q1571.72 40.2903 1571.72 46.9338 L1571.72 72.576 L1564.23 72.576 L1564.23 45.4349 Q1564.23 38.8725 1561.92 35.7533 Q1559.61 32.5936 1554.79 32.5936 Q1549.08 32.5936 1545.72 36.4824 Q1542.35 40.3308 1542.35 46.9338 L1542.35 72.576 L1534.86 72.576 L1534.86 27.2059 L1542.35 27.2059 L1542.35 34.2544 Q1544.91 30.082 1548.47 28.0971 Q1552.04 26.1121 1556.94 26.1121 Q1561.88 26.1121 1565.32 28.6237 Q1568.81 31.1352 1570.47 35.9153 Z" fill="#000000" fill-rule="nonzero" fill-opacity="1" /><path clip-path="url(#clip470)" d="M1681.14 48.0275 L1681.14 51.6733 L1646.87 51.6733 Q1647.35 59.3701 1651.49 63.421 Q1655.66 67.4314 1663.07 67.4314 Q1667.37 67.4314 1671.38 66.3781 Q1675.43 65.3249 1679.4 63.2184 L1679.4 70.267 Q1675.39 71.9684 1671.17 72.8596 Q1666.96 73.7508 1662.63 73.7508 Q1651.77 73.7508 1645.41 67.4314 Q1639.09 61.1119 1639.09 50.3365 Q1639.09 39.1965 1645.09 32.6746 Q1651.12 26.1121 1661.33 26.1121 Q1670.48 26.1121 1675.79 32.0264 Q1681.14 37.9003 1681.14 48.0275 M1673.68 45.84 Q1673.6 39.7232 1670.24 36.0774 Q1666.92 32.4315 1661.41 32.4315 Q1655.17 32.4315 1651.41 35.9558 Q1647.68 39.4801 1647.11 45.8805 L1673.68 45.84 Z" fill="#000000" fill-rule="nonzero" fill-opacity="1" /><path clip-path="url(#clip470)" d="M1729.63 27.2059 L1713.22 49.2833 L1730.48 72.576 L1721.69 72.576 L1708.48 54.752 L1695.28 72.576 L1686.49 72.576 L1704.11 48.8377 L1687.98 27.2059 L1696.78 27.2059 L1708.81 43.369 L1720.84 27.2059 L1729.63 27.2059 Z" fill="#000000" fill-rule="nonzero" fill-opacity="1" /><path clip-path="url(#clip470)" d="M1748.22 65.7705 L1748.22 89.8329 L1740.73 89.8329 L1740.73 27.2059 L1748.22 27.2059 L1748.22 34.0924 Q1750.57 30.0415 1754.14 28.0971 Q1757.74 26.1121 1762.72 26.1121 Q1770.99 26.1121 1776.13 32.6746 Q1781.32 39.2371 1781.32 49.9314 Q1781.32 60.6258 1776.13 67.1883 Q1770.99 73.7508 1762.72 73.7508 Q1757.74 73.7508 1754.14 71.8063 Q1750.57 69.8214 1748.22 65.7705 M1773.58 49.9314 Q1773.58 41.7081 1770.18 37.0496 Q1766.82 32.3505 1760.9 32.3505 Q1754.99 32.3505 1751.58 37.0496 Q1748.22 41.7081 1748.22 49.9314 Q1748.22 58.1548 1751.58 62.8538 Q1754.99 67.5124 1760.9 67.5124 Q1766.82 67.5124 1770.18 62.8538 Q1773.58 58.1548 1773.58 49.9314 Z" fill="#000000" fill-rule="nonzero" fill-opacity="1" /><path clip-path="url(#clip470)" d="M1811.25 32.4315 Q1805.26 32.4315 1801.77 37.1306 Q1798.29 41.7891 1798.29 49.9314 Q1798.29 58.0738 1801.73 62.7728 Q1805.22 67.4314 1811.25 67.4314 Q1817.21 67.4314 1820.69 62.7323 Q1824.18 58.0333 1824.18 49.9314 Q1824.18 41.8701 1820.69 37.1711 Q1817.21 32.4315 1811.25 32.4315 M1811.25 26.1121 Q1820.98 26.1121 1826.53 32.4315 Q1832.08 38.7509 1832.08 49.9314 Q1832.08 61.0714 1826.53 67.4314 Q1820.98 73.7508 1811.25 73.7508 Q1801.49 73.7508 1795.94 67.4314 Q1790.43 61.0714 1790.43 49.9314 Q1790.43 38.7509 1795.94 32.4315 Q1801.49 26.1121 1811.25 26.1121 Z" fill="#000000" fill-rule="nonzero" fill-opacity="1" /><path clip-path="url(#clip470)" d="M1873.35 28.5427 L1873.35 35.5912 Q1870.19 33.9709 1866.79 33.1607 Q1863.39 32.3505 1859.74 32.3505 Q1854.19 32.3505 1851.4 34.0519 Q1848.64 35.7533 1848.64 39.156 Q1848.64 41.7486 1850.63 43.2475 Q1852.61 44.7058 1858.61 46.0426 L1861.16 46.6097 Q1869.1 48.3111 1872.42 51.4303 Q1875.78 54.509 1875.78 60.0587 Q1875.78 66.3781 1870.76 70.0644 Q1865.78 73.7508 1857.03 73.7508 Q1853.38 73.7508 1849.41 73.0216 Q1845.48 72.3329 1841.11 70.9151 L1841.11 63.2184 Q1845.24 65.3654 1849.25 66.4591 Q1853.26 67.5124 1857.19 67.5124 Q1862.46 67.5124 1865.29 65.73 Q1868.13 63.9071 1868.13 60.6258 Q1868.13 57.5877 1866.06 55.9673 Q1864.04 54.3469 1857.11 52.8481 L1854.52 52.2405 Q1847.59 50.7821 1844.51 47.7845 Q1841.43 44.7463 1841.43 39.4801 Q1841.43 33.0797 1845.97 29.5959 Q1850.51 26.1121 1858.85 26.1121 Q1862.98 26.1121 1866.63 26.7198 Q1870.28 27.3274 1873.35 28.5427 Z" fill="#000000" fill-rule="nonzero" fill-opacity="1" /><path clip-path="url(#clip470)" d="M1886.88 54.671 L1886.88 27.2059 L1894.34 27.2059 L1894.34 54.3874 Q1894.34 60.8284 1896.85 64.0691 Q1899.36 67.2693 1904.38 67.2693 Q1910.42 67.2693 1913.9 63.421 Q1917.43 59.5726 1917.43 52.9291 L1917.43 27.2059 L1924.88 27.2059 L1924.88 72.576 L1917.43 72.576 L1917.43 65.6084 Q1914.71 69.7404 1911.11 71.7658 Q1907.54 73.7508 1902.8 73.7508 Q1894.99 73.7508 1890.93 68.8897 Q1886.88 64.0286 1886.88 54.671 M1905.64 26.1121 L1905.64 26.1121 Z" fill="#000000" fill-rule="nonzero" fill-opacity="1" /><path clip-path="url(#clip470)" d="M1966.52 34.1734 Q1965.27 33.4443 1963.77 33.1202 Q1962.31 32.7556 1960.53 32.7556 Q1954.21 32.7556 1950.81 36.8875 Q1947.45 40.9789 1947.45 48.6757 L1947.45 72.576 L1939.95 72.576 L1939.95 27.2059 L1947.45 27.2059 L1947.45 34.2544 Q1949.79 30.1225 1953.56 28.1376 Q1957.33 26.1121 1962.72 26.1121 Q1963.49 26.1121 1964.42 26.2337 Q1965.35 26.3147 1966.48 26.5172 L1966.52 34.1734 Z" fill="#000000" fill-rule="nonzero" fill-opacity="1" /><path clip-path="url(#clip470)" d="M2011.33 48.0275 L2011.33 51.6733 L1977.06 51.6733 Q1977.54 59.3701 1981.68 63.421 Q1985.85 67.4314 1993.26 67.4314 Q1997.55 67.4314 2001.57 66.3781 Q2005.62 65.3249 2009.59 63.2184 L2009.59 70.267 Q2005.58 71.9684 2001.36 72.8596 Q1997.15 73.7508 1992.82 73.7508 Q1981.96 73.7508 1975.6 67.4314 Q1969.28 61.1119 1969.28 50.3365 Q1969.28 39.1965 1975.27 32.6746 Q1981.31 26.1121 1991.52 26.1121 Q2000.67 26.1121 2005.98 32.0264 Q2011.33 37.9003 2011.33 48.0275 M2003.87 45.84 Q2003.79 39.7232 2000.43 36.0774 Q1997.11 32.4315 1991.6 32.4315 Q1985.36 32.4315 1981.59 35.9558 Q1977.87 39.4801 1977.3 45.8805 L2003.87 45.84 Z" fill="#000000" fill-rule="nonzero" fill-opacity="1" /><path clip-path="url(#clip470)" d="M2044.59 27.2059 L2052.49 27.2059 L2066.66 65.2844 L2080.84 27.2059 L2088.74 27.2059 L2071.73 72.576 L2061.6 72.576 L2044.59 27.2059 Z" fill="#000000" fill-rule="nonzero" fill-opacity="1" /><path clip-path="url(#clip470)" d="M2127.95 28.5427 L2127.95 35.5912 Q2124.79 33.9709 2121.39 33.1607 Q2117.99 32.3505 2114.34 32.3505 Q2108.79 32.3505 2106 34.0519 Q2103.24 35.7533 2103.24 39.156 Q2103.24 41.7486 2105.23 43.2475 Q2107.21 44.7058 2113.21 46.0426 L2115.76 46.6097 Q2123.7 48.3111 2127.02 51.4303 Q2130.38 54.509 2130.38 60.0587 Q2130.38 66.3781 2125.36 70.0644 Q2120.38 73.7508 2111.63 73.7508 Q2107.98 73.7508 2104.01 73.0216 Q2100.08 72.3329 2095.71 70.9151 L2095.71 63.2184 Q2099.84 65.3654 2103.85 66.4591 Q2107.86 67.5124 2111.79 67.5124 Q2117.06 67.5124 2119.89 65.73 Q2122.73 63.9071 2122.73 60.6258 Q2122.73 57.5877 2120.66 55.9673 Q2118.64 54.3469 2111.71 52.8481 L2109.12 52.2405 Q2102.19 50.7821 2099.11 47.7845 Q2096.03 44.7463 2096.03 39.4801 Q2096.03 33.0797 2100.57 29.5959 Q2105.11 26.1121 2113.45 26.1121 Q2117.58 26.1121 2121.23 26.7198 Q2124.87 27.3274 2127.95 28.5427 Z" fill="#000000" fill-rule="nonzero" fill-opacity="1" /><path clip-path="url(#clip470)" d="M2167.85 54.671 L2167.85 27.2059 L2175.31 27.2059 L2175.31 54.3874 Q2175.31 60.8284 2177.82 64.0691 Q2180.33 67.2693 2185.35 67.2693 Q2191.39 67.2693 2194.87 63.421 Q2198.4 59.5726 2198.4 52.9291 L2198.4 27.2059 L2205.85 27.2059 L2205.85 72.576 L2198.4 72.576 L2198.4 65.6084 Q2195.68 69.7404 2192.08 71.7658 Q2188.51 73.7508 2183.77 73.7508 Q2175.96 73.7508 2171.91 68.8897 Q2167.85 64.0286 2167.85 54.671 M2186.61 26.1121 L2186.61 26.1121 Z" fill="#000000" fill-rule="nonzero" fill-opacity="1" /><path clip-path="url(#clip470)" d="M2228.58 14.324 L2228.58 27.2059 L2243.93 27.2059 L2243.93 32.9987 L2228.58 32.9987 L2228.58 57.6282 Q2228.58 63.1779 2230.08 64.7578 Q2231.62 66.3376 2236.27 66.3376 L2243.93 66.3376 L2243.93 72.576 L2236.27 72.576 Q2227.65 72.576 2224.36 69.3758 Q2221.08 66.1351 2221.08 57.6282 L2221.08 32.9987 L2215.61 32.9987 L2215.61 27.2059 L2221.08 27.2059 L2221.08 14.324 L2228.58 14.324 Z" fill="#000000" fill-rule="nonzero" fill-opacity="1" /><path clip-path="url(#clip470)" d="M2253.73 27.2059 L2261.19 27.2059 L2261.19 72.576 L2253.73 72.576 L2253.73 27.2059 M2253.73 9.54393 L2261.19 9.54393 L2261.19 18.9825 L2253.73 18.9825 L2253.73 9.54393 Z" fill="#000000" fill-rule="nonzero" fill-opacity="1" /><path clip-path="url(#clip470)" d="M2276.78 9.54393 L2284.24 9.54393 L2284.24 72.576 L2276.78 72.576 L2276.78 9.54393 Z" fill="#000000" fill-rule="nonzero" fill-opacity="1" /><path clip-path="url(#clip470)" d="M2299.83 27.2059 L2307.29 27.2059 L2307.29 72.576 L2299.83 72.576 L2299.83 27.2059 M2299.83 9.54393 L2307.29 9.54393 L2307.29 18.9825 L2299.83 18.9825 L2299.83 9.54393 Z" fill="#000000" fill-rule="nonzero" fill-opacity="1" /><path clip-path="url(#clip470)" d="M2330.26 14.324 L2330.26 27.2059 L2345.61 27.2059 L2345.61 32.9987 L2330.26 32.9987 L2330.26 57.6282 Q2330.26 63.1779 2331.75 64.7578 Q2333.29 66.3376 2337.95 66.3376 L2345.61 66.3376 L2345.61 72.576 L2337.95 72.576 Q2329.32 72.576 2326.04 69.3758 Q2322.76 66.1351 2322.76 57.6282 L2322.76 32.9987 L2317.29 32.9987 L2317.29 27.2059 L2322.76 27.2059 L2322.76 14.324 L2330.26 14.324 Z" fill="#000000" fill-rule="nonzero" fill-opacity="1" /><path clip-path="url(#clip470)" d="M2374.29 76.7889 Q2371.13 84.8907 2368.13 87.3618 Q2365.13 89.8329 2360.11 89.8329 L2354.16 89.8329 L2354.16 83.5945 L2358.53 83.5945 Q2361.61 83.5945 2363.31 82.1361 Q2365.01 80.6778 2367.08 75.2496 L2368.42 71.8468 L2350.06 27.2059 L2357.96 27.2059 L2372.14 62.6918 L2386.32 27.2059 L2394.22 27.2059 L2374.29 76.7889 Z" fill="#000000" fill-rule="nonzero" fill-opacity="1" /><path clip-path="url(#clip470)" d="M2438.98 86.3491 L2438.98 92.1419 L2395.88 92.1419 L2395.88 86.3491 L2438.98 86.3491 Z" fill="#000000" fill-rule="nonzero" fill-opacity="1" /><path clip-path="url(#clip470)" d="M2466.61 49.7694 Q2457.58 49.7694 2454.09 51.8354 Q2450.61 53.9013 2450.61 58.8839 Q2450.61 62.8538 2453.2 65.2034 Q2455.83 67.5124 2460.33 67.5124 Q2466.53 67.5124 2470.25 63.1374 Q2474.02 58.7219 2474.02 51.4303 L2474.02 49.7694 L2466.61 49.7694 M2481.48 46.6907 L2481.48 72.576 L2474.02 72.576 L2474.02 65.6895 Q2471.47 69.8214 2467.66 71.8063 Q2463.85 73.7508 2458.35 73.7508 Q2451.38 73.7508 2447.25 69.8619 Q2443.15 65.9325 2443.15 59.3701 Q2443.15 51.7138 2448.26 47.825 Q2453.4 43.9361 2463.57 43.9361 L2474.02 43.9361 L2474.02 43.2069 Q2474.02 38.0623 2470.62 35.2672 Q2467.26 32.4315 2461.14 32.4315 Q2457.25 32.4315 2453.57 33.3632 Q2449.88 34.295 2446.48 36.1584 L2446.48 29.2718 Q2450.57 27.692 2454.42 26.9223 Q2458.26 26.1121 2461.91 26.1121 Q2471.75 26.1121 2476.61 31.2163 Q2481.48 36.3204 2481.48 46.6907 Z" fill="#000000" fill-rule="nonzero" fill-opacity="1" /><path clip-path="url(#clip470)" d="M2496.83 9.54393 L2504.28 9.54393 L2504.28 72.576 L2496.83 72.576 L2496.83 9.54393 Z" fill="#000000" fill-rule="nonzero" fill-opacity="1" /><path clip-path="url(#clip470)" d="M2527.09 65.7705 L2527.09 89.8329 L2519.59 89.8329 L2519.59 27.2059 L2527.09 27.2059 L2527.09 34.0924 Q2529.44 30.0415 2533 28.0971 Q2536.61 26.1121 2541.59 26.1121 Q2549.86 26.1121 2555 32.6746 Q2560.18 39.2371 2560.18 49.9314 Q2560.18 60.6258 2555 67.1883 Q2549.86 73.7508 2541.59 73.7508 Q2536.61 73.7508 2533 71.8063 Q2529.44 69.8214 2527.09 65.7705 M2552.45 49.9314 Q2552.45 41.7081 2549.04 37.0496 Q2545.68 32.3505 2539.77 32.3505 Q2533.85 32.3505 2530.45 37.0496 Q2527.09 41.7081 2527.09 49.9314 Q2527.09 58.1548 2530.45 62.8538 Q2533.85 67.5124 2539.77 67.5124 Q2545.68 67.5124 2549.04 62.8538 Q2552.45 58.1548 2552.45 49.9314 Z" fill="#000000" fill-rule="nonzero" fill-opacity="1" /><path clip-path="url(#clip470)" d="M2610.25 45.1919 L2610.25 72.576 L2602.8 72.576 L2602.8 45.4349 Q2602.8 38.994 2600.29 35.7938 Q2597.78 32.5936 2592.75 32.5936 Q2586.72 32.5936 2583.23 36.4419 Q2579.75 40.2903 2579.75 46.9338 L2579.75 72.576 L2572.26 72.576 L2572.26 9.54393 L2579.75 9.54393 L2579.75 34.2544 Q2582.42 30.163 2586.03 28.1376 Q2589.68 26.1121 2594.42 26.1121 Q2602.23 26.1121 2606.24 30.9732 Q2610.25 35.7938 2610.25 45.1919 Z" fill="#000000" fill-rule="nonzero" fill-opacity="1" /><path clip-path="url(#clip470)" d="M2645.74 49.7694 Q2636.71 49.7694 2633.22 51.8354 Q2629.74 53.9013 2629.74 58.8839 Q2629.74 62.8538 2632.33 65.2034 Q2634.96 67.5124 2639.46 67.5124 Q2645.66 67.5124 2649.39 63.1374 Q2653.15 58.7219 2653.15 51.4303 L2653.15 49.7694 L2645.74 49.7694 M2660.61 46.6907 L2660.61 72.576 L2653.15 72.576 L2653.15 65.6895 Q2650.6 69.8214 2646.79 71.8063 Q2642.99 73.7508 2637.48 73.7508 Q2630.51 73.7508 2626.38 69.8619 Q2622.29 65.9325 2622.29 59.3701 Q2622.29 51.7138 2627.39 47.825 Q2632.53 43.9361 2642.7 43.9361 L2653.15 43.9361 L2653.15 43.2069 Q2653.15 38.0623 2649.75 35.2672 Q2646.39 32.4315 2640.27 32.4315 Q2636.38 32.4315 2632.7 33.3632 Q2629.01 34.295 2625.61 36.1584 L2625.61 29.2718 Q2629.7 27.692 2633.55 26.9223 Q2637.4 26.1121 2641.04 26.1121 Q2650.88 26.1121 2655.75 31.2163 Q2660.61 36.3204 2660.61 46.6907 Z" fill="#000000" fill-rule="nonzero" fill-opacity="1" /><polyline clip-path="url(#clip471)" style="stroke:#009af9; stroke-linecap:round; stroke-linejoin:round; stroke-width:4; stroke-opacity:1; fill:none" points="347.466,1784.2 511.252,1382.35 675.038,1019.31 838.824,752.082 1002.61,616.067 1166.4,484.412 1330.18,385.609 1493.97,295.025 1657.75,217.525 1821.54,190.081 1985.32,181.681 2149.11,176.324 2312.9,170.274 2476.68,162.056 2640.47,177.011 2804.25,196.473 2968.04,209.665 3131.83,215.482 3295.61,210.021 3459.4,224.192 "/>
</svg>
